%FSLAX45Y45*%
G04 Gerber Fmt 4.5, Leading zero omitted, Abs format (unit mm)*
G04 Created by KiCad (PCBNEW (5.1.5)-3) date 2020-01-14 09:49:02*
%MOMM*%
%LPD*%
G04 APERTURE LIST*
%TA.AperFunction,Profile*%
%ADD10C,0.050000*%
%TD*%
%ADD11C,0.200000*%
%ADD12C,0.300000*%
G04 APERTURE END LIST*
D10*
X11525000Y-7850000D02*
G75*
G02X11575000Y-7900000I0J-50000D01*
G01*
X10425000Y-7900000D02*
G75*
G02X10475000Y-7850000I50000J0D01*
G01*
X10900000Y-4400000D02*
X10900000Y-5100000D01*
X11100000Y-5100000D02*
G75*
G02X10900000Y-5100000I-100000J0D01*
G01*
X10900000Y-4400000D02*
G75*
G02X11100000Y-4400000I100000J0D01*
G01*
X11100000Y-4400000D02*
X11100000Y-5100000D01*
X11100000Y-6250000D02*
G75*
G02X10900000Y-6250000I-100000J0D01*
G01*
X10900000Y-5550000D02*
X10900000Y-6250000D01*
X11100000Y-5550000D02*
X11100000Y-6250000D01*
X10900000Y-5550000D02*
G75*
G02X11100000Y-5550000I100000J0D01*
G01*
X10900000Y-6700000D02*
G75*
G02X11100000Y-6700000I100000J0D01*
G01*
X11100000Y-7400000D02*
G75*
G02X10900000Y-7400000I-100000J0D01*
G01*
X11100000Y-6700000D02*
X11100000Y-7400000D01*
X10900000Y-6700000D02*
X10900000Y-7400000D01*
X11575000Y-7900000D02*
X11575000Y-16000000D01*
X10475000Y-7850000D02*
X11525000Y-7850000D01*
X10425000Y-16000000D02*
X10425000Y-7900000D01*
X11575000Y-16000000D02*
X22500000Y-16000000D01*
X22500000Y-4000000D02*
X3500000Y-4000000D01*
X22500000Y-16000000D02*
X22500000Y-4000000D01*
X3500000Y-16000000D02*
X10425000Y-16000000D01*
X3500000Y-4000000D02*
X3500000Y-16000000D01*
D11*
D12*
X3783928Y-16468214D02*
X3783928Y-16168214D01*
X3855357Y-16168214D01*
X3898214Y-16182500D01*
X3926786Y-16211071D01*
X3941071Y-16239643D01*
X3955357Y-16296786D01*
X3955357Y-16339643D01*
X3941071Y-16396786D01*
X3926786Y-16425357D01*
X3898214Y-16453929D01*
X3855357Y-16468214D01*
X3783928Y-16468214D01*
X4083928Y-16468214D02*
X4083928Y-16268214D01*
X4083928Y-16325357D02*
X4098214Y-16296786D01*
X4112500Y-16282500D01*
X4141071Y-16268214D01*
X4169643Y-16268214D01*
X4269643Y-16468214D02*
X4269643Y-16268214D01*
X4269643Y-16168214D02*
X4255357Y-16182500D01*
X4269643Y-16196786D01*
X4283928Y-16182500D01*
X4269643Y-16168214D01*
X4269643Y-16196786D01*
X4455357Y-16468214D02*
X4426786Y-16453929D01*
X4412500Y-16425357D01*
X4412500Y-16168214D01*
X4612500Y-16468214D02*
X4583928Y-16453929D01*
X4569643Y-16425357D01*
X4569643Y-16168214D01*
X4955357Y-16468214D02*
X4955357Y-16168214D01*
X5055357Y-16382500D01*
X5155357Y-16168214D01*
X5155357Y-16468214D01*
X5426786Y-16468214D02*
X5426786Y-16311071D01*
X5412500Y-16282500D01*
X5383928Y-16268214D01*
X5326786Y-16268214D01*
X5298214Y-16282500D01*
X5426786Y-16453929D02*
X5398214Y-16468214D01*
X5326786Y-16468214D01*
X5298214Y-16453929D01*
X5283928Y-16425357D01*
X5283928Y-16396786D01*
X5298214Y-16368214D01*
X5326786Y-16353929D01*
X5398214Y-16353929D01*
X5426786Y-16339643D01*
X5569643Y-16268214D02*
X5569643Y-16568214D01*
X5569643Y-16282500D02*
X5598214Y-16268214D01*
X5655357Y-16268214D01*
X5683928Y-16282500D01*
X5698214Y-16296786D01*
X5712500Y-16325357D01*
X5712500Y-16411071D01*
X5698214Y-16439643D01*
X5683928Y-16453929D01*
X5655357Y-16468214D01*
X5598214Y-16468214D01*
X5569643Y-16453929D01*
X5841071Y-16439643D02*
X5855357Y-16453929D01*
X5841071Y-16468214D01*
X5826786Y-16453929D01*
X5841071Y-16439643D01*
X5841071Y-16468214D01*
X5841071Y-16282500D02*
X5855357Y-16296786D01*
X5841071Y-16311071D01*
X5826786Y-16296786D01*
X5841071Y-16282500D01*
X5841071Y-16311071D01*
M02*
