G04 #@! TF.GenerationSoftware,KiCad,Pcbnew,(5.1.5)-3*
G04 #@! TF.CreationDate,2020-02-07T11:13:09+01:00*
G04 #@! TF.ProjectId,RF-AMP-VHF_V1,52462d41-4d50-42d5-9648-465f56312e6b,A*
G04 #@! TF.SameCoordinates,Original*
G04 #@! TF.FileFunction,Profile,NP*
%FSLAX46Y46*%
G04 Gerber Fmt 4.6, Leading zero omitted, Abs format (unit mm)*
G04 Created by KiCad (PCBNEW (5.1.5)-3) date 2020-02-07 11:13:09*
%MOMM*%
%LPD*%
G04 APERTURE LIST*
%ADD10C,0.050000*%
G04 APERTURE END LIST*
D10*
X115250000Y-78500000D02*
G75*
G02X115750000Y-79000000I0J-500000D01*
G01*
X104250000Y-79000000D02*
G75*
G02X104750000Y-78500000I500000J0D01*
G01*
X109000000Y-44000000D02*
X109000000Y-51000000D01*
X111000000Y-51000000D02*
G75*
G02X109000000Y-51000000I-1000000J0D01*
G01*
X109000000Y-44000000D02*
G75*
G02X111000000Y-44000000I1000000J0D01*
G01*
X111000000Y-44000000D02*
X111000000Y-51000000D01*
X111000000Y-62500000D02*
G75*
G02X109000000Y-62500000I-1000000J0D01*
G01*
X109000000Y-55500000D02*
X109000000Y-62500000D01*
X111000000Y-55500000D02*
X111000000Y-62500000D01*
X109000000Y-55500000D02*
G75*
G02X111000000Y-55500000I1000000J0D01*
G01*
X109000000Y-67000000D02*
G75*
G02X111000000Y-67000000I1000000J0D01*
G01*
X111000000Y-74000000D02*
G75*
G02X109000000Y-74000000I-1000000J0D01*
G01*
X111000000Y-67000000D02*
X111000000Y-74000000D01*
X109000000Y-67000000D02*
X109000000Y-74000000D01*
X115750000Y-79000000D02*
X115750000Y-160000000D01*
X104750000Y-78500000D02*
X115250000Y-78500000D01*
X104250000Y-160000000D02*
X104250000Y-79000000D01*
X115750000Y-160000000D02*
X225000000Y-160000000D01*
X225000000Y-40000000D02*
X35000000Y-40000000D01*
X225000000Y-160000000D02*
X225000000Y-40000000D01*
X35000000Y-160000000D02*
X104250000Y-160000000D01*
X35000000Y-40000000D02*
X35000000Y-160000000D01*
M02*
