M48
; DRILL file {KiCad 5.1.5+dfsg1-2~bpo10+1} date Tue 04 Feb 2020 09:03:22 PM CET
; FORMAT={-:-/ absolute / metric / decimal}
; #@! TF.CreationDate,2020-02-04T21:03:22+01:00
; #@! TF.GenerationSoftware,Kicad,Pcbnew,5.1.5+dfsg1-2~bpo10+1
; #@! TF.FileFunction,Plated,1,2,PTH
FMAT,2
METRIC
T1C0.400
T2C0.600
T3C1.000
T4C3.200
T5C4.300
%
G90
G05
T1
X53.5Y-136.5
X53.5Y-147.0
X56.5Y-136.5
X56.5Y-147.0
X58.5Y-135.25
X58.5Y-145.75
X60.75Y-51.25
X60.75Y-81.25
X62.25Y-48.25
X62.25Y-48.25
X62.25Y-54.25
X62.25Y-66.25
X62.25Y-72.25
X62.25Y-78.25
X62.25Y-84.25
X63.0Y-135.25
X63.0Y-145.5
X63.75Y-51.25
X63.75Y-57.25
X63.75Y-63.25
X63.75Y-69.25
X63.75Y-75.25
X63.75Y-81.25
X65.0Y-147.25
X65.25Y-48.25
X65.25Y-54.25
X65.25Y-66.25
X65.25Y-72.25
X65.25Y-78.25
X65.25Y-84.25
X66.5Y-131.75
X66.75Y-51.25
X66.75Y-57.25
X66.75Y-63.25
X66.75Y-69.25
X66.75Y-75.25
X66.75Y-81.25
X68.25Y-48.25
X68.25Y-54.25
X68.25Y-66.25
X68.25Y-72.25
X68.25Y-78.25
X68.25Y-84.25
X69.75Y-51.25
X69.75Y-57.25
X69.75Y-63.25
X69.75Y-69.25
X69.75Y-75.25
X69.75Y-81.25
X70.25Y-136.75
X70.25Y-142.25
X71.25Y-48.25
X71.25Y-54.25
X71.25Y-66.25
X71.25Y-72.25
X71.25Y-78.25
X71.25Y-84.25
X72.75Y-51.25
X72.75Y-69.25
X75.0Y-140.0
X86.3Y-143.0
X89.75Y-131.5
X90.0Y-128.7
X90.0Y-146.5
X92.0Y-131.5
X93.0Y-128.7
X94.5Y-148.0
X96.0Y-131.5
X96.0Y-146.0
X100.0Y-129.75
X100.75Y-137.5
X100.75Y-139.5
X101.75Y-128.25
X203.5Y-84.9
X204.75Y-79.0
X208.0Y-121.0
X209.5Y-115.1
T2
X197.75Y-110.0
X197.75Y-113.25
X198.75Y-111.5
X200.0Y-113.25
X201.25Y-111.5
X202.25Y-110.0
X202.25Y-113.25
T3
X36.75Y-57.25
X36.75Y-69.25
X36.75Y-75.25
X36.75Y-93.25
X36.75Y-106.75
X38.25Y-60.25
X38.25Y-72.25
X38.25Y-78.25
X38.25Y-90.25
X38.25Y-109.75
X39.75Y-57.25
X39.75Y-69.25
X39.75Y-75.25
X39.75Y-93.25
X39.75Y-106.75
X41.25Y-60.25
X41.25Y-72.25
X41.25Y-78.25
X41.25Y-90.25
X41.25Y-109.75
X42.75Y-57.25
X42.75Y-57.25
X42.75Y-69.25
X42.75Y-106.75
X44.25Y-60.25
X44.25Y-109.75
X45.75Y-57.25
X45.75Y-57.25
X47.25Y-54.25
X47.25Y-60.25
X48.75Y-51.25
X48.75Y-57.25
X48.75Y-57.25
X50.25Y-48.25
X51.75Y-45.25
X51.75Y-51.25
X51.75Y-87.25
X51.75Y-93.25
X51.75Y-106.75
X51.75Y-112.75
X53.25Y-48.25
X53.25Y-84.25
X53.25Y-90.25
X53.25Y-109.75
X54.75Y-45.25
X54.75Y-87.25
X54.75Y-93.25
X54.75Y-106.75
X54.75Y-112.75
X56.25Y-48.25
X56.25Y-90.25
X56.25Y-109.75
X57.75Y-45.25
X57.75Y-87.25
X57.75Y-112.75
X59.25Y-48.25
X59.25Y-115.75
X60.75Y-45.25
X60.75Y-87.25
X60.75Y-112.75
X62.25Y-60.25
X62.25Y-115.75
X63.75Y-45.25
X63.75Y-87.25
X63.75Y-112.75
X63.75Y-118.75
X65.25Y-60.25
X65.25Y-115.75
X65.25Y-121.75
X66.75Y-45.25
X66.75Y-87.25
X66.75Y-112.75
X66.75Y-118.75
X66.75Y-124.75
X68.25Y-60.25
X68.25Y-115.75
X68.25Y-121.75
X68.25Y-127.75
X68.25Y-127.75
X69.75Y-45.25
X69.75Y-87.25
X69.75Y-124.75
X71.25Y-60.25
X71.25Y-127.75
X72.75Y-45.25
X72.75Y-57.25
X72.75Y-63.25
X72.75Y-75.25
X72.75Y-81.25
X72.75Y-87.25
X72.75Y-124.75
X73.75Y-114.25
X73.75Y-116.5
X73.75Y-118.75
X74.25Y-48.25
X74.25Y-60.25
X74.25Y-72.25
X74.25Y-78.25
X74.25Y-84.25
X74.25Y-127.75
X75.75Y-75.25
X75.75Y-81.25
X75.75Y-87.25
X75.75Y-124.75
X76.3Y-113.25
X76.3Y-115.5
X76.3Y-117.75
X77.25Y-72.25
X77.25Y-78.25
X77.25Y-127.75
X78.75Y-75.25
X78.75Y-124.75
X80.25Y-72.25
X80.25Y-78.25
X80.25Y-127.75
X80.25Y-127.75
X81.75Y-69.25
X81.75Y-75.25
X81.75Y-124.75
X83.25Y-72.25
X83.25Y-78.25
X83.25Y-127.75
X84.75Y-69.25
X84.75Y-75.25
X86.25Y-72.25
X87.75Y-69.25
X89.1Y-126.3
X89.25Y-72.25
X90.75Y-69.25
X92.0Y-126.3
X92.25Y-72.25
X93.75Y-69.25
X94.9Y-126.3
X95.25Y-72.25
X96.75Y-69.25
X98.25Y-72.25
X98.75Y-78.25
X98.75Y-81.25
X98.75Y-84.25
X98.75Y-115.75
X98.75Y-118.75
X98.75Y-121.75
X99.75Y-69.25
X99.75Y-75.25
X101.25Y-72.25
X101.75Y-78.25
X101.75Y-81.25
X101.75Y-84.25
X101.75Y-115.75
X101.75Y-118.75
X101.75Y-121.75
X102.75Y-75.25
X118.25Y-81.25
X118.25Y-118.75
X119.75Y-84.25
X119.75Y-115.75
X121.25Y-81.25
X121.25Y-118.75
X122.75Y-84.25
X122.75Y-115.75
X124.25Y-81.25
X124.25Y-118.75
X125.75Y-84.25
X125.75Y-115.75
X127.25Y-81.25
X127.25Y-118.75
X128.75Y-48.25
X128.75Y-54.25
X128.75Y-60.25
X128.75Y-66.25
X128.75Y-72.25
X128.75Y-78.25
X128.75Y-84.25
X128.75Y-115.75
X128.75Y-121.75
X128.75Y-127.75
X128.75Y-133.75
X128.75Y-139.75
X128.75Y-145.75
X128.75Y-151.75
X130.25Y-45.25
X130.25Y-51.25
X130.25Y-57.25
X130.25Y-63.25
X130.25Y-69.25
X130.25Y-75.25
X130.25Y-81.25
X130.25Y-118.75
X130.25Y-124.75
X130.25Y-130.75
X130.25Y-136.75
X130.25Y-142.75
X130.25Y-148.75
X130.25Y-154.75
X131.75Y-48.25
X131.75Y-54.25
X131.75Y-60.25
X131.75Y-66.25
X131.75Y-72.25
X131.75Y-78.25
X131.75Y-84.25
X131.75Y-115.75
X131.75Y-121.75
X131.75Y-127.75
X131.75Y-133.75
X131.75Y-139.75
X131.75Y-145.75
X131.75Y-151.75
X133.25Y-45.25
X133.25Y-51.25
X133.25Y-57.25
X133.25Y-63.25
X133.25Y-69.25
X133.25Y-75.25
X133.25Y-81.25
X133.25Y-118.75
X133.25Y-124.75
X133.25Y-130.75
X133.25Y-136.75
X133.25Y-142.75
X133.25Y-148.75
X133.25Y-154.75
X134.75Y-48.25
X134.75Y-151.75
X136.25Y-45.25
X136.25Y-154.75
X137.75Y-48.25
X137.75Y-151.75
X139.25Y-45.25
X139.25Y-154.75
X140.75Y-48.25
X140.75Y-151.75
X142.25Y-45.25
X142.25Y-154.75
X143.75Y-48.25
X143.75Y-151.75
X145.25Y-45.25
X145.25Y-154.75
X146.75Y-48.25
X146.75Y-151.75
X148.25Y-45.25
X148.25Y-154.75
X149.75Y-48.25
X149.75Y-151.75
X151.25Y-45.25
X151.25Y-154.75
X152.75Y-48.25
X152.75Y-70.25
X152.75Y-151.75
X153.15Y-129.75
X154.25Y-45.25
X154.25Y-73.05
X154.25Y-78.65
X154.25Y-84.25
X154.25Y-154.75
X154.5Y-115.75
X154.5Y-121.35
X154.5Y-126.95
X155.75Y-48.25
X155.75Y-70.25
X155.75Y-75.85
X155.75Y-81.45
X155.75Y-151.75
X155.85Y-118.55
X155.85Y-124.15
X155.85Y-129.75
X157.2Y-115.75
X157.2Y-121.35
X157.2Y-126.95
X157.25Y-45.25
X157.25Y-73.05
X157.25Y-78.65
X157.25Y-84.25
X157.25Y-154.75
X158.55Y-118.55
X158.55Y-124.15
X158.55Y-129.75
X158.75Y-48.25
X158.75Y-70.25
X158.75Y-75.85
X158.75Y-81.45
X158.75Y-151.75
X159.9Y-115.75
X159.9Y-121.35
X159.9Y-126.95
X160.25Y-45.25
X160.25Y-73.05
X160.25Y-84.25
X160.25Y-154.75
X161.25Y-118.55
X161.25Y-124.15
X161.25Y-129.75
X161.75Y-70.25
X161.75Y-81.45
X162.6Y-115.75
X162.6Y-121.35
X163.25Y-73.05
X163.25Y-84.25
X164.75Y-70.25
X164.75Y-81.45
X166.25Y-73.05
X166.25Y-84.25
X167.75Y-70.25
X167.75Y-81.45
X169.25Y-73.05
X169.25Y-84.25
X169.25Y-89.85
X170.75Y-70.25
X170.75Y-81.45
X170.75Y-87.05
X170.75Y-92.65
X172.25Y-45.25
X172.25Y-73.05
X172.25Y-84.25
X172.25Y-89.85
X172.25Y-154.75
X173.75Y-48.25
X173.75Y-70.25
X173.75Y-81.45
X173.75Y-87.05
X173.75Y-92.65
X173.75Y-151.75
X175.25Y-45.25
X175.25Y-73.05
X175.25Y-84.25
X175.25Y-89.85
X175.25Y-154.75
X176.75Y-48.25
X176.75Y-70.25
X176.75Y-87.05
X176.75Y-92.65
X176.75Y-151.75
X178.25Y-45.25
X178.25Y-73.05
X178.25Y-89.85
X178.25Y-154.75
X179.75Y-48.25
X179.75Y-70.25
X179.75Y-92.65
X179.75Y-151.75
X181.25Y-45.25
X181.25Y-73.05
X181.25Y-89.85
X181.25Y-154.75
X182.75Y-48.25
X182.75Y-70.25
X182.75Y-92.65
X182.75Y-151.75
X184.25Y-45.25
X184.25Y-73.05
X184.25Y-89.85
X184.25Y-154.75
X185.75Y-48.25
X185.75Y-70.25
X185.75Y-92.65
X185.75Y-151.75
X187.25Y-45.25
X187.25Y-73.05
X187.25Y-89.85
X187.25Y-154.75
X188.75Y-48.25
X188.75Y-70.25
X188.75Y-87.05
X188.75Y-92.65
X188.75Y-151.75
X190.25Y-45.25
X190.25Y-73.05
X190.25Y-84.25
X190.25Y-89.85
X190.25Y-154.75
X191.75Y-48.25
X191.75Y-70.25
X191.75Y-75.85
X191.75Y-81.45
X191.75Y-87.05
X191.75Y-92.65
X191.75Y-151.75
X193.25Y-45.25
X193.25Y-73.05
X193.25Y-78.65
X193.25Y-84.25
X193.25Y-89.85
X193.25Y-154.75
X194.75Y-48.25
X194.75Y-70.25
X194.75Y-75.85
X194.75Y-81.45
X194.75Y-87.05
X194.75Y-92.65
X194.75Y-151.75
X196.25Y-45.25
X196.25Y-73.05
X196.25Y-78.65
X196.25Y-84.25
X196.25Y-89.85
X196.25Y-154.75
X197.75Y-48.25
X197.75Y-151.75
X199.25Y-45.25
X199.25Y-154.75
X200.75Y-48.25
X200.75Y-151.75
X202.25Y-45.25
X202.25Y-51.25
X202.25Y-57.25
X202.25Y-63.25
X202.25Y-69.25
X202.25Y-75.25
X202.25Y-124.75
X202.25Y-130.75
X202.25Y-136.75
X202.25Y-142.75
X202.25Y-148.75
X202.25Y-154.75
X203.75Y-48.25
X203.75Y-54.25
X203.75Y-60.25
X203.75Y-66.25
X203.75Y-72.25
X203.75Y-133.75
X203.75Y-139.75
X203.75Y-145.75
X203.75Y-151.75
X205.25Y-45.25
X205.25Y-51.25
X205.25Y-57.25
X205.25Y-63.25
X205.25Y-69.25
X205.25Y-75.25
X205.25Y-124.75
X205.25Y-130.75
X205.25Y-136.75
X205.25Y-142.75
X205.25Y-148.75
X205.25Y-154.75
X206.75Y-48.25
X206.75Y-54.25
X206.75Y-60.25
X206.75Y-66.25
X206.75Y-72.25
X206.75Y-127.75
X206.75Y-133.75
X206.75Y-139.75
X206.75Y-145.75
X206.75Y-151.75
X208.25Y-69.25
X208.25Y-75.25
X208.25Y-124.75
X208.25Y-130.75
X209.75Y-72.25
X209.75Y-127.75
X211.25Y-75.25
X211.25Y-124.75
X212.75Y-72.25
X212.75Y-127.75
X214.25Y-75.25
X214.25Y-124.75
X215.75Y-72.25
X215.75Y-78.25
X215.75Y-90.25
X215.75Y-109.75
X215.75Y-121.75
X215.75Y-127.75
X217.25Y-75.25
X217.25Y-81.25
X217.25Y-93.25
X217.25Y-106.75
X217.25Y-118.75
X217.25Y-124.75
X218.75Y-72.25
X218.75Y-78.25
X218.75Y-90.25
X218.75Y-109.75
X218.75Y-121.75
X218.75Y-127.75
X220.25Y-75.25
X220.25Y-93.25
X220.25Y-106.75
X220.25Y-124.75
X221.75Y-78.25
X221.75Y-90.25
X221.75Y-109.75
X221.75Y-121.75
X223.25Y-93.25
X223.25Y-106.75
T4
X76.0Y-67.0
X76.0Y-53.0
X40.0Y-115.0
X183.0Y-85.0
X40.0Y-85.0
X219.5Y-115.0
X183.0Y-115.0
X219.5Y-85.0
T5
X122.75Y-75.0
X97.25Y-47.0
X218.0Y-153.0
X122.75Y-47.0
X42.0Y-47.0
X122.75Y-153.0
X42.0Y-153.0
X97.25Y-153.0
X218.0Y-47.0
X122.75Y-125.0
T0
M30
