%FSLAX45Y45*%
G04 Gerber Fmt 4.5, Leading zero omitted, Abs format (unit mm)*
G04 Created by KiCad (PCBNEW (5.1.5)-3) date 2020-02-07 09:23:51*
%MOMM*%
%LPD*%
G04 APERTURE LIST*
%TA.AperFunction,Profile*%
%ADD10C,0.050000*%
%TD*%
%ADD11C,0.200000*%
%ADD12C,0.300000*%
G04 APERTURE END LIST*
D10*
X11525000Y-7850000D02*
G75*
G02X11575000Y-7900000I0J-50000D01*
G01*
X10425000Y-7900000D02*
G75*
G02X10475000Y-7850000I50000J0D01*
G01*
X10900000Y-4400000D02*
X10900000Y-5100000D01*
X11100000Y-5100000D02*
G75*
G02X10900000Y-5100000I-100000J0D01*
G01*
X10900000Y-4400000D02*
G75*
G02X11100000Y-4400000I100000J0D01*
G01*
X11100000Y-4400000D02*
X11100000Y-5100000D01*
X11100000Y-6250000D02*
G75*
G02X10900000Y-6250000I-100000J0D01*
G01*
X10900000Y-5550000D02*
X10900000Y-6250000D01*
X11100000Y-5550000D02*
X11100000Y-6250000D01*
X10900000Y-5550000D02*
G75*
G02X11100000Y-5550000I100000J0D01*
G01*
X10900000Y-6700000D02*
G75*
G02X11100000Y-6700000I100000J0D01*
G01*
X11100000Y-7400000D02*
G75*
G02X10900000Y-7400000I-100000J0D01*
G01*
X11100000Y-6700000D02*
X11100000Y-7400000D01*
X10900000Y-6700000D02*
X10900000Y-7400000D01*
X11575000Y-7900000D02*
X11575000Y-16000000D01*
X10475000Y-7850000D02*
X11525000Y-7850000D01*
X10425000Y-16000000D02*
X10425000Y-7900000D01*
X11575000Y-16000000D02*
X22500000Y-16000000D01*
X22500000Y-4000000D02*
X3500000Y-4000000D01*
X22500000Y-16000000D02*
X22500000Y-4000000D01*
X3500000Y-16000000D02*
X10425000Y-16000000D01*
X3500000Y-4000000D02*
X3500000Y-16000000D01*
D11*
X5330000Y-13630000D02*
X5370000Y-13670000D01*
X5370000Y-13630000D02*
X5330000Y-13670000D01*
X5330000Y-14680000D02*
X5370000Y-14720000D01*
X5370000Y-14680000D02*
X5330000Y-14720000D01*
X5630000Y-13630000D02*
X5670000Y-13670000D01*
X5670000Y-13630000D02*
X5630000Y-13670000D01*
X5630000Y-14680000D02*
X5670000Y-14720000D01*
X5670000Y-14680000D02*
X5630000Y-14720000D01*
X5830000Y-13505000D02*
X5870000Y-13545000D01*
X5870000Y-13505000D02*
X5830000Y-13545000D01*
X5830000Y-14555000D02*
X5870000Y-14595000D01*
X5870000Y-14555000D02*
X5830000Y-14595000D01*
X6055000Y-5105000D02*
X6095000Y-5145000D01*
X6095000Y-5105000D02*
X6055000Y-5145000D01*
X6055000Y-8105000D02*
X6095000Y-8145000D01*
X6095000Y-8105000D02*
X6055000Y-8145000D01*
X6205000Y-4805000D02*
X6245000Y-4845000D01*
X6245000Y-4805000D02*
X6205000Y-4845000D01*
X6205000Y-4805000D02*
X6245000Y-4845000D01*
X6245000Y-4805000D02*
X6205000Y-4845000D01*
X6205000Y-5405000D02*
X6245000Y-5445000D01*
X6245000Y-5405000D02*
X6205000Y-5445000D01*
X6205000Y-6605000D02*
X6245000Y-6645000D01*
X6245000Y-6605000D02*
X6205000Y-6645000D01*
X6205000Y-7205000D02*
X6245000Y-7245000D01*
X6245000Y-7205000D02*
X6205000Y-7245000D01*
X6205000Y-7805000D02*
X6245000Y-7845000D01*
X6245000Y-7805000D02*
X6205000Y-7845000D01*
X6205000Y-8405000D02*
X6245000Y-8445000D01*
X6245000Y-8405000D02*
X6205000Y-8445000D01*
X6280000Y-13505000D02*
X6320000Y-13545000D01*
X6320000Y-13505000D02*
X6280000Y-13545000D01*
X6280000Y-14530000D02*
X6320000Y-14570000D01*
X6320000Y-14530000D02*
X6280000Y-14570000D01*
X6355000Y-5105000D02*
X6395000Y-5145000D01*
X6395000Y-5105000D02*
X6355000Y-5145000D01*
X6355000Y-5705000D02*
X6395000Y-5745000D01*
X6395000Y-5705000D02*
X6355000Y-5745000D01*
X6355000Y-6305000D02*
X6395000Y-6345000D01*
X6395000Y-6305000D02*
X6355000Y-6345000D01*
X6355000Y-6905000D02*
X6395000Y-6945000D01*
X6395000Y-6905000D02*
X6355000Y-6945000D01*
X6355000Y-7505000D02*
X6395000Y-7545000D01*
X6395000Y-7505000D02*
X6355000Y-7545000D01*
X6355000Y-8105000D02*
X6395000Y-8145000D01*
X6395000Y-8105000D02*
X6355000Y-8145000D01*
X6480000Y-14705000D02*
X6520000Y-14745000D01*
X6520000Y-14705000D02*
X6480000Y-14745000D01*
X6505000Y-4805000D02*
X6545000Y-4845000D01*
X6545000Y-4805000D02*
X6505000Y-4845000D01*
X6505000Y-5405000D02*
X6545000Y-5445000D01*
X6545000Y-5405000D02*
X6505000Y-5445000D01*
X6505000Y-6605000D02*
X6545000Y-6645000D01*
X6545000Y-6605000D02*
X6505000Y-6645000D01*
X6505000Y-7205000D02*
X6545000Y-7245000D01*
X6545000Y-7205000D02*
X6505000Y-7245000D01*
X6505000Y-7805000D02*
X6545000Y-7845000D01*
X6545000Y-7805000D02*
X6505000Y-7845000D01*
X6505000Y-8405000D02*
X6545000Y-8445000D01*
X6545000Y-8405000D02*
X6505000Y-8445000D01*
X6630000Y-13155000D02*
X6670000Y-13195000D01*
X6670000Y-13155000D02*
X6630000Y-13195000D01*
X6655000Y-5105000D02*
X6695000Y-5145000D01*
X6695000Y-5105000D02*
X6655000Y-5145000D01*
X6655000Y-5705000D02*
X6695000Y-5745000D01*
X6695000Y-5705000D02*
X6655000Y-5745000D01*
X6655000Y-6305000D02*
X6695000Y-6345000D01*
X6695000Y-6305000D02*
X6655000Y-6345000D01*
X6655000Y-6905000D02*
X6695000Y-6945000D01*
X6695000Y-6905000D02*
X6655000Y-6945000D01*
X6655000Y-7505000D02*
X6695000Y-7545000D01*
X6695000Y-7505000D02*
X6655000Y-7545000D01*
X6655000Y-8105000D02*
X6695000Y-8145000D01*
X6695000Y-8105000D02*
X6655000Y-8145000D01*
X6805000Y-4805000D02*
X6845000Y-4845000D01*
X6845000Y-4805000D02*
X6805000Y-4845000D01*
X6805000Y-5405000D02*
X6845000Y-5445000D01*
X6845000Y-5405000D02*
X6805000Y-5445000D01*
X6805000Y-6605000D02*
X6845000Y-6645000D01*
X6845000Y-6605000D02*
X6805000Y-6645000D01*
X6805000Y-7205000D02*
X6845000Y-7245000D01*
X6845000Y-7205000D02*
X6805000Y-7245000D01*
X6805000Y-7805000D02*
X6845000Y-7845000D01*
X6845000Y-7805000D02*
X6805000Y-7845000D01*
X6805000Y-8405000D02*
X6845000Y-8445000D01*
X6845000Y-8405000D02*
X6805000Y-8445000D01*
X6955000Y-5105000D02*
X6995000Y-5145000D01*
X6995000Y-5105000D02*
X6955000Y-5145000D01*
X6955000Y-5705000D02*
X6995000Y-5745000D01*
X6995000Y-5705000D02*
X6955000Y-5745000D01*
X6955000Y-6305000D02*
X6995000Y-6345000D01*
X6995000Y-6305000D02*
X6955000Y-6345000D01*
X6955000Y-6905000D02*
X6995000Y-6945000D01*
X6995000Y-6905000D02*
X6955000Y-6945000D01*
X6955000Y-7505000D02*
X6995000Y-7545000D01*
X6995000Y-7505000D02*
X6955000Y-7545000D01*
X6955000Y-8105000D02*
X6995000Y-8145000D01*
X6995000Y-8105000D02*
X6955000Y-8145000D01*
X7005000Y-13655000D02*
X7045000Y-13695000D01*
X7045000Y-13655000D02*
X7005000Y-13695000D01*
X7005000Y-14205000D02*
X7045000Y-14245000D01*
X7045000Y-14205000D02*
X7005000Y-14245000D01*
X7105000Y-4805000D02*
X7145000Y-4845000D01*
X7145000Y-4805000D02*
X7105000Y-4845000D01*
X7105000Y-5405000D02*
X7145000Y-5445000D01*
X7145000Y-5405000D02*
X7105000Y-5445000D01*
X7105000Y-6605000D02*
X7145000Y-6645000D01*
X7145000Y-6605000D02*
X7105000Y-6645000D01*
X7105000Y-7205000D02*
X7145000Y-7245000D01*
X7145000Y-7205000D02*
X7105000Y-7245000D01*
X7105000Y-7805000D02*
X7145000Y-7845000D01*
X7145000Y-7805000D02*
X7105000Y-7845000D01*
X7105000Y-8405000D02*
X7145000Y-8445000D01*
X7145000Y-8405000D02*
X7105000Y-8445000D01*
X7255000Y-5105000D02*
X7295000Y-5145000D01*
X7295000Y-5105000D02*
X7255000Y-5145000D01*
X7255000Y-6905000D02*
X7295000Y-6945000D01*
X7295000Y-6905000D02*
X7255000Y-6945000D01*
X7480000Y-13980000D02*
X7520000Y-14020000D01*
X7520000Y-13980000D02*
X7480000Y-14020000D01*
X8610000Y-14280000D02*
X8650000Y-14320000D01*
X8650000Y-14280000D02*
X8610000Y-14320000D01*
X8955000Y-13130000D02*
X8995000Y-13170000D01*
X8995000Y-13130000D02*
X8955000Y-13170000D01*
X8980000Y-12850000D02*
X9020000Y-12890000D01*
X9020000Y-12850000D02*
X8980000Y-12890000D01*
X8980000Y-14630000D02*
X9020000Y-14670000D01*
X9020000Y-14630000D02*
X8980000Y-14670000D01*
X9180000Y-13130000D02*
X9220000Y-13170000D01*
X9220000Y-13130000D02*
X9180000Y-13170000D01*
X9280000Y-12850000D02*
X9320000Y-12890000D01*
X9320000Y-12850000D02*
X9280000Y-12890000D01*
X9430000Y-14780000D02*
X9470000Y-14820000D01*
X9470000Y-14780000D02*
X9430000Y-14820000D01*
X9580000Y-13130000D02*
X9620000Y-13170000D01*
X9620000Y-13130000D02*
X9580000Y-13170000D01*
X9580000Y-14580000D02*
X9620000Y-14620000D01*
X9620000Y-14580000D02*
X9580000Y-14620000D01*
X9980000Y-12955000D02*
X10020000Y-12995000D01*
X10020000Y-12955000D02*
X9980000Y-12995000D01*
X10055000Y-13730000D02*
X10095000Y-13770000D01*
X10095000Y-13730000D02*
X10055000Y-13770000D01*
X10055000Y-13930000D02*
X10095000Y-13970000D01*
X10095000Y-13930000D02*
X10055000Y-13970000D01*
X10155000Y-12805000D02*
X10195000Y-12845000D01*
X10195000Y-12805000D02*
X10155000Y-12845000D01*
X20330002Y-8470000D02*
X20370002Y-8510000D01*
X20370002Y-8470000D02*
X20330002Y-8510000D01*
X20455000Y-7880000D02*
X20495000Y-7920000D01*
X20495000Y-7880000D02*
X20455000Y-7920000D01*
X20780000Y-12080000D02*
X20820000Y-12120000D01*
X20820000Y-12080000D02*
X20780000Y-12120000D01*
X20930000Y-11490000D02*
X20970000Y-11530000D01*
X20970000Y-11490000D02*
X20930000Y-11530000D01*
X19805000Y-11000000D02*
G75*
G03X19805000Y-11000000I-30000J0D01*
G01*
X19805000Y-11325000D02*
G75*
G03X19805000Y-11325000I-30000J0D01*
G01*
X19905000Y-11150000D02*
G75*
G03X19905000Y-11150000I-30000J0D01*
G01*
X20030000Y-11325000D02*
G75*
G03X20030000Y-11325000I-30000J0D01*
G01*
X20155000Y-11150000D02*
G75*
G03X20155000Y-11150000I-30000J0D01*
G01*
X20255000Y-11000000D02*
G75*
G03X20255000Y-11000000I-30000J0D01*
G01*
X20255000Y-11325000D02*
G75*
G03X20255000Y-11325000I-30000J0D01*
G01*
X3675000Y-5675000D02*
X3675000Y-5775000D01*
X3625000Y-5725000D02*
X3725000Y-5725000D01*
X3675000Y-6875000D02*
X3675000Y-6975000D01*
X3625000Y-6925000D02*
X3725000Y-6925000D01*
X3675000Y-7475000D02*
X3675000Y-7575000D01*
X3625000Y-7525000D02*
X3725000Y-7525000D01*
X3675000Y-9275000D02*
X3675000Y-9375000D01*
X3625000Y-9325000D02*
X3725000Y-9325000D01*
X3675000Y-10625000D02*
X3675000Y-10725000D01*
X3625000Y-10675000D02*
X3725000Y-10675000D01*
X3825000Y-5975000D02*
X3825000Y-6075000D01*
X3775000Y-6025000D02*
X3875000Y-6025000D01*
X3825000Y-7175000D02*
X3825000Y-7275000D01*
X3775000Y-7225000D02*
X3875000Y-7225000D01*
X3825000Y-7775000D02*
X3825000Y-7875000D01*
X3775000Y-7825000D02*
X3875000Y-7825000D01*
X3825000Y-8975000D02*
X3825000Y-9075000D01*
X3775000Y-9025000D02*
X3875000Y-9025000D01*
X3825000Y-10925000D02*
X3825000Y-11025000D01*
X3775000Y-10975000D02*
X3875000Y-10975000D01*
X3975000Y-5675000D02*
X3975000Y-5775000D01*
X3925000Y-5725000D02*
X4025000Y-5725000D01*
X3975000Y-6875000D02*
X3975000Y-6975000D01*
X3925000Y-6925000D02*
X4025000Y-6925000D01*
X3975000Y-7475000D02*
X3975000Y-7575000D01*
X3925000Y-7525000D02*
X4025000Y-7525000D01*
X3975000Y-9275000D02*
X3975000Y-9375000D01*
X3925000Y-9325000D02*
X4025000Y-9325000D01*
X3975000Y-10625000D02*
X3975000Y-10725000D01*
X3925000Y-10675000D02*
X4025000Y-10675000D01*
X4125000Y-5975000D02*
X4125000Y-6075000D01*
X4075000Y-6025000D02*
X4175000Y-6025000D01*
X4125000Y-7175000D02*
X4125000Y-7275000D01*
X4075000Y-7225000D02*
X4175000Y-7225000D01*
X4125000Y-7775000D02*
X4125000Y-7875000D01*
X4075000Y-7825000D02*
X4175000Y-7825000D01*
X4125000Y-8975000D02*
X4125000Y-9075000D01*
X4075000Y-9025000D02*
X4175000Y-9025000D01*
X4125000Y-10925000D02*
X4125000Y-11025000D01*
X4075000Y-10975000D02*
X4175000Y-10975000D01*
X4275000Y-5675000D02*
X4275000Y-5775000D01*
X4225000Y-5725000D02*
X4325000Y-5725000D01*
X4275000Y-5675000D02*
X4275000Y-5775000D01*
X4225000Y-5725000D02*
X4325000Y-5725000D01*
X4275000Y-6875000D02*
X4275000Y-6975000D01*
X4225000Y-6925000D02*
X4325000Y-6925000D01*
X4275000Y-10625000D02*
X4275000Y-10725000D01*
X4225000Y-10675000D02*
X4325000Y-10675000D01*
X4425000Y-5975000D02*
X4425000Y-6075000D01*
X4375000Y-6025000D02*
X4475000Y-6025000D01*
X4425000Y-10925000D02*
X4425000Y-11025000D01*
X4375000Y-10975000D02*
X4475000Y-10975000D01*
X4575000Y-5675000D02*
X4575000Y-5775000D01*
X4525000Y-5725000D02*
X4625000Y-5725000D01*
X4575000Y-5675000D02*
X4575000Y-5775000D01*
X4525000Y-5725000D02*
X4625000Y-5725000D01*
X4725000Y-5375000D02*
X4725000Y-5475000D01*
X4675000Y-5425000D02*
X4775000Y-5425000D01*
X4725000Y-5975000D02*
X4725000Y-6075000D01*
X4675000Y-6025000D02*
X4775000Y-6025000D01*
X4875000Y-5075000D02*
X4875000Y-5175000D01*
X4825000Y-5125000D02*
X4925000Y-5125000D01*
X4875000Y-5675000D02*
X4875000Y-5775000D01*
X4825000Y-5725000D02*
X4925000Y-5725000D01*
X4875000Y-5675000D02*
X4875000Y-5775000D01*
X4825000Y-5725000D02*
X4925000Y-5725000D01*
X5025000Y-4775000D02*
X5025000Y-4875000D01*
X4975000Y-4825000D02*
X5075000Y-4825000D01*
X5175000Y-4475000D02*
X5175000Y-4575000D01*
X5125000Y-4525000D02*
X5225000Y-4525000D01*
X5175000Y-5075000D02*
X5175000Y-5175000D01*
X5125000Y-5125000D02*
X5225000Y-5125000D01*
X5175000Y-8675000D02*
X5175000Y-8775000D01*
X5125000Y-8725000D02*
X5225000Y-8725000D01*
X5175000Y-9275000D02*
X5175000Y-9375000D01*
X5125000Y-9325000D02*
X5225000Y-9325000D01*
X5175000Y-10625000D02*
X5175000Y-10725000D01*
X5125000Y-10675000D02*
X5225000Y-10675000D01*
X5175000Y-11225000D02*
X5175000Y-11325000D01*
X5125000Y-11275000D02*
X5225000Y-11275000D01*
X5325000Y-4775000D02*
X5325000Y-4875000D01*
X5275000Y-4825000D02*
X5375000Y-4825000D01*
X5325000Y-8375000D02*
X5325000Y-8475000D01*
X5275000Y-8425000D02*
X5375000Y-8425000D01*
X5325000Y-8975000D02*
X5325000Y-9075000D01*
X5275000Y-9025000D02*
X5375000Y-9025000D01*
X5325000Y-10925000D02*
X5325000Y-11025000D01*
X5275000Y-10975000D02*
X5375000Y-10975000D01*
X5475000Y-4475000D02*
X5475000Y-4575000D01*
X5425000Y-4525000D02*
X5525000Y-4525000D01*
X5475000Y-8675000D02*
X5475000Y-8775000D01*
X5425000Y-8725000D02*
X5525000Y-8725000D01*
X5475000Y-9275000D02*
X5475000Y-9375000D01*
X5425000Y-9325000D02*
X5525000Y-9325000D01*
X5475000Y-10625000D02*
X5475000Y-10725000D01*
X5425000Y-10675000D02*
X5525000Y-10675000D01*
X5475000Y-11225000D02*
X5475000Y-11325000D01*
X5425000Y-11275000D02*
X5525000Y-11275000D01*
X5625000Y-4775000D02*
X5625000Y-4875000D01*
X5575000Y-4825000D02*
X5675000Y-4825000D01*
X5625000Y-8975000D02*
X5625000Y-9075000D01*
X5575000Y-9025000D02*
X5675000Y-9025000D01*
X5625000Y-10925000D02*
X5625000Y-11025000D01*
X5575000Y-10975000D02*
X5675000Y-10975000D01*
X5775000Y-4475000D02*
X5775000Y-4575000D01*
X5725000Y-4525000D02*
X5825000Y-4525000D01*
X5775000Y-8675000D02*
X5775000Y-8775000D01*
X5725000Y-8725000D02*
X5825000Y-8725000D01*
X5775000Y-11225000D02*
X5775000Y-11325000D01*
X5725000Y-11275000D02*
X5825000Y-11275000D01*
X5925000Y-4775000D02*
X5925000Y-4875000D01*
X5875000Y-4825000D02*
X5975000Y-4825000D01*
X5925000Y-11525000D02*
X5925000Y-11625000D01*
X5875000Y-11575000D02*
X5975000Y-11575000D01*
X6075000Y-4475000D02*
X6075000Y-4575000D01*
X6025000Y-4525000D02*
X6125000Y-4525000D01*
X6075000Y-8675000D02*
X6075000Y-8775000D01*
X6025000Y-8725000D02*
X6125000Y-8725000D01*
X6075000Y-11225000D02*
X6075000Y-11325000D01*
X6025000Y-11275000D02*
X6125000Y-11275000D01*
X6225000Y-5975000D02*
X6225000Y-6075000D01*
X6175000Y-6025000D02*
X6275000Y-6025000D01*
X6225000Y-11525000D02*
X6225000Y-11625000D01*
X6175000Y-11575000D02*
X6275000Y-11575000D01*
X6375000Y-4475000D02*
X6375000Y-4575000D01*
X6325000Y-4525000D02*
X6425000Y-4525000D01*
X6375000Y-8675000D02*
X6375000Y-8775000D01*
X6325000Y-8725000D02*
X6425000Y-8725000D01*
X6375000Y-11225000D02*
X6375000Y-11325000D01*
X6325000Y-11275000D02*
X6425000Y-11275000D01*
X6375000Y-11825000D02*
X6375000Y-11925000D01*
X6325000Y-11875000D02*
X6425000Y-11875000D01*
X6525000Y-5975000D02*
X6525000Y-6075000D01*
X6475000Y-6025000D02*
X6575000Y-6025000D01*
X6525000Y-11525000D02*
X6525000Y-11625000D01*
X6475000Y-11575000D02*
X6575000Y-11575000D01*
X6525000Y-12125000D02*
X6525000Y-12225000D01*
X6475000Y-12175000D02*
X6575000Y-12175000D01*
X6675000Y-4475000D02*
X6675000Y-4575000D01*
X6625000Y-4525000D02*
X6725000Y-4525000D01*
X6675000Y-8675000D02*
X6675000Y-8775000D01*
X6625000Y-8725000D02*
X6725000Y-8725000D01*
X6675000Y-11225000D02*
X6675000Y-11325000D01*
X6625000Y-11275000D02*
X6725000Y-11275000D01*
X6675000Y-11825000D02*
X6675000Y-11925000D01*
X6625000Y-11875000D02*
X6725000Y-11875000D01*
X6675000Y-12425000D02*
X6675000Y-12525000D01*
X6625000Y-12475000D02*
X6725000Y-12475000D01*
X6825000Y-5975000D02*
X6825000Y-6075000D01*
X6775000Y-6025000D02*
X6875000Y-6025000D01*
X6825000Y-11525000D02*
X6825000Y-11625000D01*
X6775000Y-11575000D02*
X6875000Y-11575000D01*
X6825000Y-12125000D02*
X6825000Y-12225000D01*
X6775000Y-12175000D02*
X6875000Y-12175000D01*
X6825000Y-12725000D02*
X6825000Y-12825000D01*
X6775000Y-12775000D02*
X6875000Y-12775000D01*
X6825000Y-12725000D02*
X6825000Y-12825000D01*
X6775000Y-12775000D02*
X6875000Y-12775000D01*
X6975000Y-4475000D02*
X6975000Y-4575000D01*
X6925000Y-4525000D02*
X7025000Y-4525000D01*
X6975000Y-8675000D02*
X6975000Y-8775000D01*
X6925000Y-8725000D02*
X7025000Y-8725000D01*
X6975000Y-12425000D02*
X6975000Y-12525000D01*
X6925000Y-12475000D02*
X7025000Y-12475000D01*
X7125000Y-5975000D02*
X7125000Y-6075000D01*
X7075000Y-6025000D02*
X7175000Y-6025000D01*
X7125000Y-12725000D02*
X7125000Y-12825000D01*
X7075000Y-12775000D02*
X7175000Y-12775000D01*
X7275000Y-4475000D02*
X7275000Y-4575000D01*
X7225000Y-4525000D02*
X7325000Y-4525000D01*
X7275000Y-5675000D02*
X7275000Y-5775000D01*
X7225000Y-5725000D02*
X7325000Y-5725000D01*
X7275000Y-6275000D02*
X7275000Y-6375000D01*
X7225000Y-6325000D02*
X7325000Y-6325000D01*
X7275000Y-7475000D02*
X7275000Y-7575000D01*
X7225000Y-7525000D02*
X7325000Y-7525000D01*
X7275000Y-8075000D02*
X7275000Y-8175000D01*
X7225000Y-8125000D02*
X7325000Y-8125000D01*
X7275000Y-8675000D02*
X7275000Y-8775000D01*
X7225000Y-8725000D02*
X7325000Y-8725000D01*
X7275000Y-12425000D02*
X7275000Y-12525000D01*
X7225000Y-12475000D02*
X7325000Y-12475000D01*
X7375000Y-11375000D02*
X7375000Y-11475000D01*
X7325000Y-11425000D02*
X7425000Y-11425000D01*
X7375000Y-11600000D02*
X7375000Y-11700000D01*
X7325000Y-11650000D02*
X7425000Y-11650000D01*
X7375000Y-11825000D02*
X7375000Y-11925000D01*
X7325000Y-11875000D02*
X7425000Y-11875000D01*
X7425000Y-4775000D02*
X7425000Y-4875000D01*
X7375000Y-4825000D02*
X7475000Y-4825000D01*
X7425000Y-5975000D02*
X7425000Y-6075000D01*
X7375000Y-6025000D02*
X7475000Y-6025000D01*
X7425000Y-7175000D02*
X7425000Y-7275000D01*
X7375000Y-7225000D02*
X7475000Y-7225000D01*
X7425000Y-7775000D02*
X7425000Y-7875000D01*
X7375000Y-7825000D02*
X7475000Y-7825000D01*
X7425000Y-8375000D02*
X7425000Y-8475000D01*
X7375000Y-8425000D02*
X7475000Y-8425000D01*
X7425000Y-12725000D02*
X7425000Y-12825000D01*
X7375000Y-12775000D02*
X7475000Y-12775000D01*
X7575000Y-7475000D02*
X7575000Y-7575000D01*
X7525000Y-7525000D02*
X7625000Y-7525000D01*
X7575000Y-8075000D02*
X7575000Y-8175000D01*
X7525000Y-8125000D02*
X7625000Y-8125000D01*
X7575000Y-8675000D02*
X7575000Y-8775000D01*
X7525000Y-8725000D02*
X7625000Y-8725000D01*
X7575000Y-12425000D02*
X7575000Y-12525000D01*
X7525000Y-12475000D02*
X7625000Y-12475000D01*
X7630000Y-11275000D02*
X7630000Y-11375000D01*
X7580000Y-11325000D02*
X7680000Y-11325000D01*
X7630000Y-11500000D02*
X7630000Y-11600000D01*
X7580000Y-11550000D02*
X7680000Y-11550000D01*
X7630000Y-11725000D02*
X7630000Y-11825000D01*
X7580000Y-11775000D02*
X7680000Y-11775000D01*
X7725000Y-7175000D02*
X7725000Y-7275000D01*
X7675000Y-7225000D02*
X7775000Y-7225000D01*
X7725000Y-7775000D02*
X7725000Y-7875000D01*
X7675000Y-7825000D02*
X7775000Y-7825000D01*
X7725000Y-12725000D02*
X7725000Y-12825000D01*
X7675000Y-12775000D02*
X7775000Y-12775000D01*
X7875000Y-7475000D02*
X7875000Y-7575000D01*
X7825000Y-7525000D02*
X7925000Y-7525000D01*
X7875000Y-12425000D02*
X7875000Y-12525000D01*
X7825000Y-12475000D02*
X7925000Y-12475000D01*
X8025000Y-7175000D02*
X8025000Y-7275000D01*
X7975000Y-7225000D02*
X8075000Y-7225000D01*
X8025000Y-7775000D02*
X8025000Y-7875000D01*
X7975000Y-7825000D02*
X8075000Y-7825000D01*
X8025000Y-12725000D02*
X8025000Y-12825000D01*
X7975000Y-12775000D02*
X8075000Y-12775000D01*
X8025000Y-12725000D02*
X8025000Y-12825000D01*
X7975000Y-12775000D02*
X8075000Y-12775000D01*
X8175000Y-6875000D02*
X8175000Y-6975000D01*
X8125000Y-6925000D02*
X8225000Y-6925000D01*
X8175000Y-7475000D02*
X8175000Y-7575000D01*
X8125000Y-7525000D02*
X8225000Y-7525000D01*
X8175000Y-12425000D02*
X8175000Y-12525000D01*
X8125000Y-12475000D02*
X8225000Y-12475000D01*
X8325000Y-7175000D02*
X8325000Y-7275000D01*
X8275000Y-7225000D02*
X8375000Y-7225000D01*
X8325000Y-7775000D02*
X8325000Y-7875000D01*
X8275000Y-7825000D02*
X8375000Y-7825000D01*
X8325000Y-12725000D02*
X8325000Y-12825000D01*
X8275000Y-12775000D02*
X8375000Y-12775000D01*
X8475000Y-6875000D02*
X8475000Y-6975000D01*
X8425000Y-6925000D02*
X8525000Y-6925000D01*
X8475000Y-7475000D02*
X8475000Y-7575000D01*
X8425000Y-7525000D02*
X8525000Y-7525000D01*
X8625000Y-7175000D02*
X8625000Y-7275000D01*
X8575000Y-7225000D02*
X8675000Y-7225000D01*
X8775000Y-6875000D02*
X8775000Y-6975000D01*
X8725000Y-6925000D02*
X8825000Y-6925000D01*
X8910000Y-12580000D02*
X8910000Y-12680000D01*
X8860000Y-12630000D02*
X8960000Y-12630000D01*
X8925000Y-7175000D02*
X8925000Y-7275000D01*
X8875000Y-7225000D02*
X8975000Y-7225000D01*
X9075000Y-6875000D02*
X9075000Y-6975000D01*
X9025000Y-6925000D02*
X9125000Y-6925000D01*
X9200000Y-12580000D02*
X9200000Y-12680000D01*
X9150000Y-12630000D02*
X9250000Y-12630000D01*
X9225000Y-7175000D02*
X9225000Y-7275000D01*
X9175000Y-7225000D02*
X9275000Y-7225000D01*
X9375000Y-6875000D02*
X9375000Y-6975000D01*
X9325000Y-6925000D02*
X9425000Y-6925000D01*
X9490000Y-12580000D02*
X9490000Y-12680000D01*
X9440000Y-12630000D02*
X9540000Y-12630000D01*
X9525000Y-7175000D02*
X9525000Y-7275000D01*
X9475000Y-7225000D02*
X9575000Y-7225000D01*
X9675000Y-6875000D02*
X9675000Y-6975000D01*
X9625000Y-6925000D02*
X9725000Y-6925000D01*
X9825000Y-7175000D02*
X9825000Y-7275000D01*
X9775000Y-7225000D02*
X9875000Y-7225000D01*
X9875000Y-7775000D02*
X9875000Y-7875000D01*
X9825000Y-7825000D02*
X9925000Y-7825000D01*
X9875000Y-8075000D02*
X9875000Y-8175000D01*
X9825000Y-8125000D02*
X9925000Y-8125000D01*
X9875000Y-8375000D02*
X9875000Y-8475000D01*
X9825000Y-8425000D02*
X9925000Y-8425000D01*
X9875000Y-11525000D02*
X9875000Y-11625000D01*
X9825000Y-11575000D02*
X9925000Y-11575000D01*
X9875000Y-11825000D02*
X9875000Y-11925000D01*
X9825000Y-11875000D02*
X9925000Y-11875000D01*
X9875000Y-12125000D02*
X9875000Y-12225000D01*
X9825000Y-12175000D02*
X9925000Y-12175000D01*
X9975000Y-6875000D02*
X9975000Y-6975000D01*
X9925000Y-6925000D02*
X10025000Y-6925000D01*
X9975000Y-7475000D02*
X9975000Y-7575000D01*
X9925000Y-7525000D02*
X10025000Y-7525000D01*
X10125000Y-7175000D02*
X10125000Y-7275000D01*
X10075000Y-7225000D02*
X10175000Y-7225000D01*
X10175000Y-7775000D02*
X10175000Y-7875000D01*
X10125000Y-7825000D02*
X10225000Y-7825000D01*
X10175000Y-8075000D02*
X10175000Y-8175000D01*
X10125000Y-8125000D02*
X10225000Y-8125000D01*
X10175000Y-8375000D02*
X10175000Y-8475000D01*
X10125000Y-8425000D02*
X10225000Y-8425000D01*
X10175000Y-11525000D02*
X10175000Y-11625000D01*
X10125000Y-11575000D02*
X10225000Y-11575000D01*
X10175000Y-11825000D02*
X10175000Y-11925000D01*
X10125000Y-11875000D02*
X10225000Y-11875000D01*
X10175000Y-12125000D02*
X10175000Y-12225000D01*
X10125000Y-12175000D02*
X10225000Y-12175000D01*
X10275000Y-7475000D02*
X10275000Y-7575000D01*
X10225000Y-7525000D02*
X10325000Y-7525000D01*
X11825000Y-8075000D02*
X11825000Y-8175000D01*
X11775000Y-8125000D02*
X11875000Y-8125000D01*
X11825000Y-11825000D02*
X11825000Y-11925000D01*
X11775000Y-11875000D02*
X11875000Y-11875000D01*
X11975000Y-8375000D02*
X11975000Y-8475000D01*
X11925000Y-8425000D02*
X12025000Y-8425000D01*
X11975000Y-11525000D02*
X11975000Y-11625000D01*
X11925000Y-11575000D02*
X12025000Y-11575000D01*
X12125000Y-8075000D02*
X12125000Y-8175000D01*
X12075000Y-8125000D02*
X12175000Y-8125000D01*
X12125000Y-11825000D02*
X12125000Y-11925000D01*
X12075000Y-11875000D02*
X12175000Y-11875000D01*
X12275000Y-8375000D02*
X12275000Y-8475000D01*
X12225000Y-8425000D02*
X12325000Y-8425000D01*
X12275000Y-11525000D02*
X12275000Y-11625000D01*
X12225000Y-11575000D02*
X12325000Y-11575000D01*
X12425000Y-8075000D02*
X12425000Y-8175000D01*
X12375000Y-8125000D02*
X12475000Y-8125000D01*
X12425000Y-11825000D02*
X12425000Y-11925000D01*
X12375000Y-11875000D02*
X12475000Y-11875000D01*
X12575000Y-8375000D02*
X12575000Y-8475000D01*
X12525000Y-8425000D02*
X12625000Y-8425000D01*
X12575000Y-11525000D02*
X12575000Y-11625000D01*
X12525000Y-11575000D02*
X12625000Y-11575000D01*
X12725000Y-8075000D02*
X12725000Y-8175000D01*
X12675000Y-8125000D02*
X12775000Y-8125000D01*
X12725000Y-11825000D02*
X12725000Y-11925000D01*
X12675000Y-11875000D02*
X12775000Y-11875000D01*
X12875000Y-4775000D02*
X12875000Y-4875000D01*
X12825000Y-4825000D02*
X12925000Y-4825000D01*
X12875000Y-5375000D02*
X12875000Y-5475000D01*
X12825000Y-5425000D02*
X12925000Y-5425000D01*
X12875000Y-5975000D02*
X12875000Y-6075000D01*
X12825000Y-6025000D02*
X12925000Y-6025000D01*
X12875000Y-6575000D02*
X12875000Y-6675000D01*
X12825000Y-6625000D02*
X12925000Y-6625000D01*
X12875000Y-7175000D02*
X12875000Y-7275000D01*
X12825000Y-7225000D02*
X12925000Y-7225000D01*
X12875000Y-7775000D02*
X12875000Y-7875000D01*
X12825000Y-7825000D02*
X12925000Y-7825000D01*
X12875000Y-8375000D02*
X12875000Y-8475000D01*
X12825000Y-8425000D02*
X12925000Y-8425000D01*
X12875000Y-11525000D02*
X12875000Y-11625000D01*
X12825000Y-11575000D02*
X12925000Y-11575000D01*
X12875000Y-12125000D02*
X12875000Y-12225000D01*
X12825000Y-12175000D02*
X12925000Y-12175000D01*
X12875000Y-12725000D02*
X12875000Y-12825000D01*
X12825000Y-12775000D02*
X12925000Y-12775000D01*
X12875000Y-13325000D02*
X12875000Y-13425000D01*
X12825000Y-13375000D02*
X12925000Y-13375000D01*
X12875000Y-13925000D02*
X12875000Y-14025000D01*
X12825000Y-13975000D02*
X12925000Y-13975000D01*
X12875000Y-14525000D02*
X12875000Y-14625000D01*
X12825000Y-14575000D02*
X12925000Y-14575000D01*
X12875000Y-15125000D02*
X12875000Y-15225000D01*
X12825000Y-15175000D02*
X12925000Y-15175000D01*
X13025000Y-4475000D02*
X13025000Y-4575000D01*
X12975000Y-4525000D02*
X13075000Y-4525000D01*
X13025000Y-5075000D02*
X13025000Y-5175000D01*
X12975000Y-5125000D02*
X13075000Y-5125000D01*
X13025000Y-5675000D02*
X13025000Y-5775000D01*
X12975000Y-5725000D02*
X13075000Y-5725000D01*
X13025000Y-6275000D02*
X13025000Y-6375000D01*
X12975000Y-6325000D02*
X13075000Y-6325000D01*
X13025000Y-6875000D02*
X13025000Y-6975000D01*
X12975000Y-6925000D02*
X13075000Y-6925000D01*
X13025000Y-7475000D02*
X13025000Y-7575000D01*
X12975000Y-7525000D02*
X13075000Y-7525000D01*
X13025000Y-8075000D02*
X13025000Y-8175000D01*
X12975000Y-8125000D02*
X13075000Y-8125000D01*
X13025000Y-11825000D02*
X13025000Y-11925000D01*
X12975000Y-11875000D02*
X13075000Y-11875000D01*
X13025000Y-12425000D02*
X13025000Y-12525000D01*
X12975000Y-12475000D02*
X13075000Y-12475000D01*
X13025000Y-13025000D02*
X13025000Y-13125000D01*
X12975000Y-13075000D02*
X13075000Y-13075000D01*
X13025000Y-13625000D02*
X13025000Y-13725000D01*
X12975000Y-13675000D02*
X13075000Y-13675000D01*
X13025000Y-14225000D02*
X13025000Y-14325000D01*
X12975000Y-14275000D02*
X13075000Y-14275000D01*
X13025000Y-14825000D02*
X13025000Y-14925000D01*
X12975000Y-14875000D02*
X13075000Y-14875000D01*
X13025000Y-15425000D02*
X13025000Y-15525000D01*
X12975000Y-15475000D02*
X13075000Y-15475000D01*
X13175000Y-4775000D02*
X13175000Y-4875000D01*
X13125000Y-4825000D02*
X13225000Y-4825000D01*
X13175000Y-5375000D02*
X13175000Y-5475000D01*
X13125000Y-5425000D02*
X13225000Y-5425000D01*
X13175000Y-5975000D02*
X13175000Y-6075000D01*
X13125000Y-6025000D02*
X13225000Y-6025000D01*
X13175000Y-6575000D02*
X13175000Y-6675000D01*
X13125000Y-6625000D02*
X13225000Y-6625000D01*
X13175000Y-7175000D02*
X13175000Y-7275000D01*
X13125000Y-7225000D02*
X13225000Y-7225000D01*
X13175000Y-7775000D02*
X13175000Y-7875000D01*
X13125000Y-7825000D02*
X13225000Y-7825000D01*
X13175000Y-8375000D02*
X13175000Y-8475000D01*
X13125000Y-8425000D02*
X13225000Y-8425000D01*
X13175000Y-11525000D02*
X13175000Y-11625000D01*
X13125000Y-11575000D02*
X13225000Y-11575000D01*
X13175000Y-12125000D02*
X13175000Y-12225000D01*
X13125000Y-12175000D02*
X13225000Y-12175000D01*
X13175000Y-12725000D02*
X13175000Y-12825000D01*
X13125000Y-12775000D02*
X13225000Y-12775000D01*
X13175000Y-13325000D02*
X13175000Y-13425000D01*
X13125000Y-13375000D02*
X13225000Y-13375000D01*
X13175000Y-13925000D02*
X13175000Y-14025000D01*
X13125000Y-13975000D02*
X13225000Y-13975000D01*
X13175000Y-14525000D02*
X13175000Y-14625000D01*
X13125000Y-14575000D02*
X13225000Y-14575000D01*
X13175000Y-15125000D02*
X13175000Y-15225000D01*
X13125000Y-15175000D02*
X13225000Y-15175000D01*
X13325000Y-4475000D02*
X13325000Y-4575000D01*
X13275000Y-4525000D02*
X13375000Y-4525000D01*
X13325000Y-5075000D02*
X13325000Y-5175000D01*
X13275000Y-5125000D02*
X13375000Y-5125000D01*
X13325000Y-5675000D02*
X13325000Y-5775000D01*
X13275000Y-5725000D02*
X13375000Y-5725000D01*
X13325000Y-6275000D02*
X13325000Y-6375000D01*
X13275000Y-6325000D02*
X13375000Y-6325000D01*
X13325000Y-6875000D02*
X13325000Y-6975000D01*
X13275000Y-6925000D02*
X13375000Y-6925000D01*
X13325000Y-7475000D02*
X13325000Y-7575000D01*
X13275000Y-7525000D02*
X13375000Y-7525000D01*
X13325000Y-8075000D02*
X13325000Y-8175000D01*
X13275000Y-8125000D02*
X13375000Y-8125000D01*
X13325000Y-11825000D02*
X13325000Y-11925000D01*
X13275000Y-11875000D02*
X13375000Y-11875000D01*
X13325000Y-12425000D02*
X13325000Y-12525000D01*
X13275000Y-12475000D02*
X13375000Y-12475000D01*
X13325000Y-13025000D02*
X13325000Y-13125000D01*
X13275000Y-13075000D02*
X13375000Y-13075000D01*
X13325000Y-13625000D02*
X13325000Y-13725000D01*
X13275000Y-13675000D02*
X13375000Y-13675000D01*
X13325000Y-14225000D02*
X13325000Y-14325000D01*
X13275000Y-14275000D02*
X13375000Y-14275000D01*
X13325000Y-14825000D02*
X13325000Y-14925000D01*
X13275000Y-14875000D02*
X13375000Y-14875000D01*
X13325000Y-15425000D02*
X13325000Y-15525000D01*
X13275000Y-15475000D02*
X13375000Y-15475000D01*
X13475000Y-4775000D02*
X13475000Y-4875000D01*
X13425000Y-4825000D02*
X13525000Y-4825000D01*
X13475000Y-15125000D02*
X13475000Y-15225000D01*
X13425000Y-15175000D02*
X13525000Y-15175000D01*
X13625000Y-4475000D02*
X13625000Y-4575000D01*
X13575000Y-4525000D02*
X13675000Y-4525000D01*
X13625000Y-15425000D02*
X13625000Y-15525000D01*
X13575000Y-15475000D02*
X13675000Y-15475000D01*
X13775000Y-4775000D02*
X13775000Y-4875000D01*
X13725000Y-4825000D02*
X13825000Y-4825000D01*
X13775000Y-15125000D02*
X13775000Y-15225000D01*
X13725000Y-15175000D02*
X13825000Y-15175000D01*
X13925000Y-4475000D02*
X13925000Y-4575000D01*
X13875000Y-4525000D02*
X13975000Y-4525000D01*
X13925000Y-15425000D02*
X13925000Y-15525000D01*
X13875000Y-15475000D02*
X13975000Y-15475000D01*
X14075000Y-4775000D02*
X14075000Y-4875000D01*
X14025000Y-4825000D02*
X14125000Y-4825000D01*
X14075000Y-15125000D02*
X14075000Y-15225000D01*
X14025000Y-15175000D02*
X14125000Y-15175000D01*
X14225000Y-4475000D02*
X14225000Y-4575000D01*
X14175000Y-4525000D02*
X14275000Y-4525000D01*
X14225000Y-15425000D02*
X14225000Y-15525000D01*
X14175000Y-15475000D02*
X14275000Y-15475000D01*
X14375000Y-4775000D02*
X14375000Y-4875000D01*
X14325000Y-4825000D02*
X14425000Y-4825000D01*
X14375000Y-15125000D02*
X14375000Y-15225000D01*
X14325000Y-15175000D02*
X14425000Y-15175000D01*
X14525000Y-4475000D02*
X14525000Y-4575000D01*
X14475000Y-4525000D02*
X14575000Y-4525000D01*
X14525000Y-15425000D02*
X14525000Y-15525000D01*
X14475000Y-15475000D02*
X14575000Y-15475000D01*
X14675000Y-4775000D02*
X14675000Y-4875000D01*
X14625000Y-4825000D02*
X14725000Y-4825000D01*
X14675000Y-15125000D02*
X14675000Y-15225000D01*
X14625000Y-15175000D02*
X14725000Y-15175000D01*
X14825000Y-4475000D02*
X14825000Y-4575000D01*
X14775000Y-4525000D02*
X14875000Y-4525000D01*
X14825000Y-15425000D02*
X14825000Y-15525000D01*
X14775000Y-15475000D02*
X14875000Y-15475000D01*
X14975000Y-4775000D02*
X14975000Y-4875000D01*
X14925000Y-4825000D02*
X15025000Y-4825000D01*
X14975000Y-15125000D02*
X14975000Y-15225000D01*
X14925000Y-15175000D02*
X15025000Y-15175000D01*
X15125000Y-4475000D02*
X15125000Y-4575000D01*
X15075000Y-4525000D02*
X15175000Y-4525000D01*
X15125000Y-15425000D02*
X15125000Y-15525000D01*
X15075000Y-15475000D02*
X15175000Y-15475000D01*
X15275000Y-4775000D02*
X15275000Y-4875000D01*
X15225000Y-4825000D02*
X15325000Y-4825000D01*
X15275000Y-6975000D02*
X15275000Y-7075000D01*
X15225000Y-7025000D02*
X15325000Y-7025000D01*
X15275000Y-15125000D02*
X15275000Y-15225000D01*
X15225000Y-15175000D02*
X15325000Y-15175000D01*
X15315000Y-12925000D02*
X15315000Y-13025000D01*
X15265000Y-12975000D02*
X15365000Y-12975000D01*
X15425000Y-4475000D02*
X15425000Y-4575000D01*
X15375000Y-4525000D02*
X15475000Y-4525000D01*
X15425000Y-7255000D02*
X15425000Y-7355000D01*
X15375000Y-7305000D02*
X15475000Y-7305000D01*
X15425000Y-7815000D02*
X15425000Y-7915000D01*
X15375000Y-7865000D02*
X15475000Y-7865000D01*
X15425000Y-8375000D02*
X15425000Y-8475000D01*
X15375000Y-8425000D02*
X15475000Y-8425000D01*
X15425000Y-15425000D02*
X15425000Y-15525000D01*
X15375000Y-15475000D02*
X15475000Y-15475000D01*
X15450000Y-11525000D02*
X15450000Y-11625000D01*
X15400000Y-11575000D02*
X15500000Y-11575000D01*
X15450000Y-12085000D02*
X15450000Y-12185000D01*
X15400000Y-12135000D02*
X15500000Y-12135000D01*
X15450000Y-12645000D02*
X15450000Y-12745000D01*
X15400000Y-12695000D02*
X15500000Y-12695000D01*
X15575000Y-4775000D02*
X15575000Y-4875000D01*
X15525000Y-4825000D02*
X15625000Y-4825000D01*
X15575000Y-6975000D02*
X15575000Y-7075000D01*
X15525000Y-7025000D02*
X15625000Y-7025000D01*
X15575000Y-7535000D02*
X15575000Y-7635000D01*
X15525000Y-7585000D02*
X15625000Y-7585000D01*
X15575000Y-8095000D02*
X15575000Y-8195000D01*
X15525000Y-8145000D02*
X15625000Y-8145000D01*
X15575000Y-15125000D02*
X15575000Y-15225000D01*
X15525000Y-15175000D02*
X15625000Y-15175000D01*
X15585000Y-11805000D02*
X15585000Y-11905000D01*
X15535000Y-11855000D02*
X15635000Y-11855000D01*
X15585000Y-12365000D02*
X15585000Y-12465000D01*
X15535000Y-12415000D02*
X15635000Y-12415000D01*
X15585000Y-12925000D02*
X15585000Y-13025000D01*
X15535000Y-12975000D02*
X15635000Y-12975000D01*
X15720000Y-11525000D02*
X15720000Y-11625000D01*
X15670000Y-11575000D02*
X15770000Y-11575000D01*
X15720000Y-12085000D02*
X15720000Y-12185000D01*
X15670000Y-12135000D02*
X15770000Y-12135000D01*
X15720000Y-12645000D02*
X15720000Y-12745000D01*
X15670000Y-12695000D02*
X15770000Y-12695000D01*
X15725000Y-4475000D02*
X15725000Y-4575000D01*
X15675000Y-4525000D02*
X15775000Y-4525000D01*
X15725000Y-7255000D02*
X15725000Y-7355000D01*
X15675000Y-7305000D02*
X15775000Y-7305000D01*
X15725000Y-7815000D02*
X15725000Y-7915000D01*
X15675000Y-7865000D02*
X15775000Y-7865000D01*
X15725000Y-8375000D02*
X15725000Y-8475000D01*
X15675000Y-8425000D02*
X15775000Y-8425000D01*
X15725000Y-15425000D02*
X15725000Y-15525000D01*
X15675000Y-15475000D02*
X15775000Y-15475000D01*
X15855000Y-11805000D02*
X15855000Y-11905000D01*
X15805000Y-11855000D02*
X15905000Y-11855000D01*
X15855000Y-12365000D02*
X15855000Y-12465000D01*
X15805000Y-12415000D02*
X15905000Y-12415000D01*
X15855000Y-12925000D02*
X15855000Y-13025000D01*
X15805000Y-12975000D02*
X15905000Y-12975000D01*
X15875000Y-4775000D02*
X15875000Y-4875000D01*
X15825000Y-4825000D02*
X15925000Y-4825000D01*
X15875000Y-6975000D02*
X15875000Y-7075000D01*
X15825000Y-7025000D02*
X15925000Y-7025000D01*
X15875000Y-7535000D02*
X15875000Y-7635000D01*
X15825000Y-7585000D02*
X15925000Y-7585000D01*
X15875000Y-8095000D02*
X15875000Y-8195000D01*
X15825000Y-8145000D02*
X15925000Y-8145000D01*
X15875000Y-15125000D02*
X15875000Y-15225000D01*
X15825000Y-15175000D02*
X15925000Y-15175000D01*
X15990000Y-11525000D02*
X15990000Y-11625000D01*
X15940000Y-11575000D02*
X16040000Y-11575000D01*
X15990000Y-12085000D02*
X15990000Y-12185000D01*
X15940000Y-12135000D02*
X16040000Y-12135000D01*
X15990000Y-12645000D02*
X15990000Y-12745000D01*
X15940000Y-12695000D02*
X16040000Y-12695000D01*
X16025000Y-4475000D02*
X16025000Y-4575000D01*
X15975000Y-4525000D02*
X16075000Y-4525000D01*
X16025000Y-7255000D02*
X16025000Y-7355000D01*
X15975000Y-7305000D02*
X16075000Y-7305000D01*
X16025000Y-8375000D02*
X16025000Y-8475000D01*
X15975000Y-8425000D02*
X16075000Y-8425000D01*
X16025000Y-15425000D02*
X16025000Y-15525000D01*
X15975000Y-15475000D02*
X16075000Y-15475000D01*
X16125000Y-11805000D02*
X16125000Y-11905000D01*
X16075000Y-11855000D02*
X16175000Y-11855000D01*
X16125000Y-12365000D02*
X16125000Y-12465000D01*
X16075000Y-12415000D02*
X16175000Y-12415000D01*
X16125000Y-12925000D02*
X16125000Y-13025000D01*
X16075000Y-12975000D02*
X16175000Y-12975000D01*
X16175000Y-6975000D02*
X16175000Y-7075000D01*
X16125000Y-7025000D02*
X16225000Y-7025000D01*
X16175000Y-8095000D02*
X16175000Y-8195000D01*
X16125000Y-8145000D02*
X16225000Y-8145000D01*
X16260000Y-11525000D02*
X16260000Y-11625000D01*
X16210000Y-11575000D02*
X16310000Y-11575000D01*
X16260000Y-12085000D02*
X16260000Y-12185000D01*
X16210000Y-12135000D02*
X16310000Y-12135000D01*
X16325000Y-7255000D02*
X16325000Y-7355000D01*
X16275000Y-7305000D02*
X16375000Y-7305000D01*
X16325000Y-8375000D02*
X16325000Y-8475000D01*
X16275000Y-8425000D02*
X16375000Y-8425000D01*
X16475000Y-6975000D02*
X16475000Y-7075000D01*
X16425000Y-7025000D02*
X16525000Y-7025000D01*
X16475000Y-8095000D02*
X16475000Y-8195000D01*
X16425000Y-8145000D02*
X16525000Y-8145000D01*
X16625000Y-7255000D02*
X16625000Y-7355000D01*
X16575000Y-7305000D02*
X16675000Y-7305000D01*
X16625000Y-8375000D02*
X16625000Y-8475000D01*
X16575000Y-8425000D02*
X16675000Y-8425000D01*
X16775000Y-6975000D02*
X16775000Y-7075000D01*
X16725000Y-7025000D02*
X16825000Y-7025000D01*
X16775000Y-8095000D02*
X16775000Y-8195000D01*
X16725000Y-8145000D02*
X16825000Y-8145000D01*
X16925000Y-7255000D02*
X16925000Y-7355000D01*
X16875000Y-7305000D02*
X16975000Y-7305000D01*
X16925000Y-8375000D02*
X16925000Y-8475000D01*
X16875000Y-8425000D02*
X16975000Y-8425000D01*
X16925000Y-8935000D02*
X16925000Y-9035000D01*
X16875000Y-8985000D02*
X16975000Y-8985000D01*
X17075000Y-6975000D02*
X17075000Y-7075000D01*
X17025000Y-7025000D02*
X17125000Y-7025000D01*
X17075000Y-8095000D02*
X17075000Y-8195000D01*
X17025000Y-8145000D02*
X17125000Y-8145000D01*
X17075000Y-8655000D02*
X17075000Y-8755000D01*
X17025000Y-8705000D02*
X17125000Y-8705000D01*
X17075000Y-9215000D02*
X17075000Y-9315000D01*
X17025000Y-9265000D02*
X17125000Y-9265000D01*
X17225000Y-4475000D02*
X17225000Y-4575000D01*
X17175000Y-4525000D02*
X17275000Y-4525000D01*
X17225000Y-7255000D02*
X17225000Y-7355000D01*
X17175000Y-7305000D02*
X17275000Y-7305000D01*
X17225000Y-8375000D02*
X17225000Y-8475000D01*
X17175000Y-8425000D02*
X17275000Y-8425000D01*
X17225000Y-8935000D02*
X17225000Y-9035000D01*
X17175000Y-8985000D02*
X17275000Y-8985000D01*
X17225000Y-15425000D02*
X17225000Y-15525000D01*
X17175000Y-15475000D02*
X17275000Y-15475000D01*
X17375000Y-4775000D02*
X17375000Y-4875000D01*
X17325000Y-4825000D02*
X17425000Y-4825000D01*
X17375000Y-6975000D02*
X17375000Y-7075000D01*
X17325000Y-7025000D02*
X17425000Y-7025000D01*
X17375000Y-8095000D02*
X17375000Y-8195000D01*
X17325000Y-8145000D02*
X17425000Y-8145000D01*
X17375000Y-8655000D02*
X17375000Y-8755000D01*
X17325000Y-8705000D02*
X17425000Y-8705000D01*
X17375000Y-9215000D02*
X17375000Y-9315000D01*
X17325000Y-9265000D02*
X17425000Y-9265000D01*
X17375000Y-15125000D02*
X17375000Y-15225000D01*
X17325000Y-15175000D02*
X17425000Y-15175000D01*
X17525000Y-4475000D02*
X17525000Y-4575000D01*
X17475000Y-4525000D02*
X17575000Y-4525000D01*
X17525000Y-7255000D02*
X17525000Y-7355000D01*
X17475000Y-7305000D02*
X17575000Y-7305000D01*
X17525000Y-8375000D02*
X17525000Y-8475000D01*
X17475000Y-8425000D02*
X17575000Y-8425000D01*
X17525000Y-8935000D02*
X17525000Y-9035000D01*
X17475000Y-8985000D02*
X17575000Y-8985000D01*
X17525000Y-15425000D02*
X17525000Y-15525000D01*
X17475000Y-15475000D02*
X17575000Y-15475000D01*
X17675000Y-4775000D02*
X17675000Y-4875000D01*
X17625000Y-4825000D02*
X17725000Y-4825000D01*
X17675000Y-6975000D02*
X17675000Y-7075000D01*
X17625000Y-7025000D02*
X17725000Y-7025000D01*
X17675000Y-8655000D02*
X17675000Y-8755000D01*
X17625000Y-8705000D02*
X17725000Y-8705000D01*
X17675000Y-9215000D02*
X17675000Y-9315000D01*
X17625000Y-9265000D02*
X17725000Y-9265000D01*
X17675000Y-15125000D02*
X17675000Y-15225000D01*
X17625000Y-15175000D02*
X17725000Y-15175000D01*
X17825000Y-4475000D02*
X17825000Y-4575000D01*
X17775000Y-4525000D02*
X17875000Y-4525000D01*
X17825000Y-7255000D02*
X17825000Y-7355000D01*
X17775000Y-7305000D02*
X17875000Y-7305000D01*
X17825000Y-8935000D02*
X17825000Y-9035000D01*
X17775000Y-8985000D02*
X17875000Y-8985000D01*
X17825000Y-15425000D02*
X17825000Y-15525000D01*
X17775000Y-15475000D02*
X17875000Y-15475000D01*
X17975000Y-4775000D02*
X17975000Y-4875000D01*
X17925000Y-4825000D02*
X18025000Y-4825000D01*
X17975000Y-6975000D02*
X17975000Y-7075000D01*
X17925000Y-7025000D02*
X18025000Y-7025000D01*
X17975000Y-9215000D02*
X17975000Y-9315000D01*
X17925000Y-9265000D02*
X18025000Y-9265000D01*
X17975000Y-15125000D02*
X17975000Y-15225000D01*
X17925000Y-15175000D02*
X18025000Y-15175000D01*
X18125000Y-4475000D02*
X18125000Y-4575000D01*
X18075000Y-4525000D02*
X18175000Y-4525000D01*
X18125000Y-7255000D02*
X18125000Y-7355000D01*
X18075000Y-7305000D02*
X18175000Y-7305000D01*
X18125000Y-8935000D02*
X18125000Y-9035000D01*
X18075000Y-8985000D02*
X18175000Y-8985000D01*
X18125000Y-15425000D02*
X18125000Y-15525000D01*
X18075000Y-15475000D02*
X18175000Y-15475000D01*
X18275000Y-4775000D02*
X18275000Y-4875000D01*
X18225000Y-4825000D02*
X18325000Y-4825000D01*
X18275000Y-6975000D02*
X18275000Y-7075000D01*
X18225000Y-7025000D02*
X18325000Y-7025000D01*
X18275000Y-9215000D02*
X18275000Y-9315000D01*
X18225000Y-9265000D02*
X18325000Y-9265000D01*
X18275000Y-15125000D02*
X18275000Y-15225000D01*
X18225000Y-15175000D02*
X18325000Y-15175000D01*
X18425000Y-4475000D02*
X18425000Y-4575000D01*
X18375000Y-4525000D02*
X18475000Y-4525000D01*
X18425000Y-7255000D02*
X18425000Y-7355000D01*
X18375000Y-7305000D02*
X18475000Y-7305000D01*
X18425000Y-8935000D02*
X18425000Y-9035000D01*
X18375000Y-8985000D02*
X18475000Y-8985000D01*
X18425000Y-15425000D02*
X18425000Y-15525000D01*
X18375000Y-15475000D02*
X18475000Y-15475000D01*
X18575000Y-4775000D02*
X18575000Y-4875000D01*
X18525000Y-4825000D02*
X18625000Y-4825000D01*
X18575000Y-6975000D02*
X18575000Y-7075000D01*
X18525000Y-7025000D02*
X18625000Y-7025000D01*
X18575000Y-9215000D02*
X18575000Y-9315000D01*
X18525000Y-9265000D02*
X18625000Y-9265000D01*
X18575000Y-15125000D02*
X18575000Y-15225000D01*
X18525000Y-15175000D02*
X18625000Y-15175000D01*
X18725000Y-4475000D02*
X18725000Y-4575000D01*
X18675000Y-4525000D02*
X18775000Y-4525000D01*
X18725000Y-7255000D02*
X18725000Y-7355000D01*
X18675000Y-7305000D02*
X18775000Y-7305000D01*
X18725000Y-8935000D02*
X18725000Y-9035000D01*
X18675000Y-8985000D02*
X18775000Y-8985000D01*
X18725000Y-15425000D02*
X18725000Y-15525000D01*
X18675000Y-15475000D02*
X18775000Y-15475000D01*
X18875000Y-4775000D02*
X18875000Y-4875000D01*
X18825000Y-4825000D02*
X18925000Y-4825000D01*
X18875000Y-6975000D02*
X18875000Y-7075000D01*
X18825000Y-7025000D02*
X18925000Y-7025000D01*
X18875000Y-8655000D02*
X18875000Y-8755000D01*
X18825000Y-8705000D02*
X18925000Y-8705000D01*
X18875000Y-9215000D02*
X18875000Y-9315000D01*
X18825000Y-9265000D02*
X18925000Y-9265000D01*
X18875000Y-15125000D02*
X18875000Y-15225000D01*
X18825000Y-15175000D02*
X18925000Y-15175000D01*
X19025000Y-4475000D02*
X19025000Y-4575000D01*
X18975000Y-4525000D02*
X19075000Y-4525000D01*
X19025000Y-7255000D02*
X19025000Y-7355000D01*
X18975000Y-7305000D02*
X19075000Y-7305000D01*
X19025000Y-8375000D02*
X19025000Y-8475000D01*
X18975000Y-8425000D02*
X19075000Y-8425000D01*
X19025000Y-8935000D02*
X19025000Y-9035000D01*
X18975000Y-8985000D02*
X19075000Y-8985000D01*
X19025000Y-15425000D02*
X19025000Y-15525000D01*
X18975000Y-15475000D02*
X19075000Y-15475000D01*
X19175000Y-4775000D02*
X19175000Y-4875000D01*
X19125000Y-4825000D02*
X19225000Y-4825000D01*
X19175000Y-6975000D02*
X19175000Y-7075000D01*
X19125000Y-7025000D02*
X19225000Y-7025000D01*
X19175000Y-7535000D02*
X19175000Y-7635000D01*
X19125000Y-7585000D02*
X19225000Y-7585000D01*
X19175000Y-8095000D02*
X19175000Y-8195000D01*
X19125000Y-8145000D02*
X19225000Y-8145000D01*
X19175000Y-8655000D02*
X19175000Y-8755000D01*
X19125000Y-8705000D02*
X19225000Y-8705000D01*
X19175000Y-9215000D02*
X19175000Y-9315000D01*
X19125000Y-9265000D02*
X19225000Y-9265000D01*
X19175000Y-15125000D02*
X19175000Y-15225000D01*
X19125000Y-15175000D02*
X19225000Y-15175000D01*
X19325000Y-4475000D02*
X19325000Y-4575000D01*
X19275000Y-4525000D02*
X19375000Y-4525000D01*
X19325000Y-7255000D02*
X19325000Y-7355000D01*
X19275000Y-7305000D02*
X19375000Y-7305000D01*
X19325000Y-7815000D02*
X19325000Y-7915000D01*
X19275000Y-7865000D02*
X19375000Y-7865000D01*
X19325000Y-8375000D02*
X19325000Y-8475000D01*
X19275000Y-8425000D02*
X19375000Y-8425000D01*
X19325000Y-8935000D02*
X19325000Y-9035000D01*
X19275000Y-8985000D02*
X19375000Y-8985000D01*
X19325000Y-15425000D02*
X19325000Y-15525000D01*
X19275000Y-15475000D02*
X19375000Y-15475000D01*
X19475000Y-4775000D02*
X19475000Y-4875000D01*
X19425000Y-4825000D02*
X19525000Y-4825000D01*
X19475000Y-6975000D02*
X19475000Y-7075000D01*
X19425000Y-7025000D02*
X19525000Y-7025000D01*
X19475000Y-7535000D02*
X19475000Y-7635000D01*
X19425000Y-7585000D02*
X19525000Y-7585000D01*
X19475000Y-8095000D02*
X19475000Y-8195000D01*
X19425000Y-8145000D02*
X19525000Y-8145000D01*
X19475000Y-8655000D02*
X19475000Y-8755000D01*
X19425000Y-8705000D02*
X19525000Y-8705000D01*
X19475000Y-9215000D02*
X19475000Y-9315000D01*
X19425000Y-9265000D02*
X19525000Y-9265000D01*
X19475000Y-15125000D02*
X19475000Y-15225000D01*
X19425000Y-15175000D02*
X19525000Y-15175000D01*
X19625000Y-4475000D02*
X19625000Y-4575000D01*
X19575000Y-4525000D02*
X19675000Y-4525000D01*
X19625000Y-7255000D02*
X19625000Y-7355000D01*
X19575000Y-7305000D02*
X19675000Y-7305000D01*
X19625000Y-7815000D02*
X19625000Y-7915000D01*
X19575000Y-7865000D02*
X19675000Y-7865000D01*
X19625000Y-8375000D02*
X19625000Y-8475000D01*
X19575000Y-8425000D02*
X19675000Y-8425000D01*
X19625000Y-8935000D02*
X19625000Y-9035000D01*
X19575000Y-8985000D02*
X19675000Y-8985000D01*
X19625000Y-15425000D02*
X19625000Y-15525000D01*
X19575000Y-15475000D02*
X19675000Y-15475000D01*
X19775000Y-4775000D02*
X19775000Y-4875000D01*
X19725000Y-4825000D02*
X19825000Y-4825000D01*
X19775000Y-15125000D02*
X19775000Y-15225000D01*
X19725000Y-15175000D02*
X19825000Y-15175000D01*
X19925000Y-4475000D02*
X19925000Y-4575000D01*
X19875000Y-4525000D02*
X19975000Y-4525000D01*
X19925000Y-15425000D02*
X19925000Y-15525000D01*
X19875000Y-15475000D02*
X19975000Y-15475000D01*
X20075000Y-4775000D02*
X20075000Y-4875000D01*
X20025000Y-4825000D02*
X20125000Y-4825000D01*
X20075000Y-15125000D02*
X20075000Y-15225000D01*
X20025000Y-15175000D02*
X20125000Y-15175000D01*
X20225000Y-4475000D02*
X20225000Y-4575000D01*
X20175000Y-4525000D02*
X20275000Y-4525000D01*
X20225000Y-5075000D02*
X20225000Y-5175000D01*
X20175000Y-5125000D02*
X20275000Y-5125000D01*
X20225000Y-5675000D02*
X20225000Y-5775000D01*
X20175000Y-5725000D02*
X20275000Y-5725000D01*
X20225000Y-6275000D02*
X20225000Y-6375000D01*
X20175000Y-6325000D02*
X20275000Y-6325000D01*
X20225000Y-6875000D02*
X20225000Y-6975000D01*
X20175000Y-6925000D02*
X20275000Y-6925000D01*
X20225000Y-7475000D02*
X20225000Y-7575000D01*
X20175000Y-7525000D02*
X20275000Y-7525000D01*
X20225000Y-12425000D02*
X20225000Y-12525000D01*
X20175000Y-12475000D02*
X20275000Y-12475000D01*
X20225000Y-13025000D02*
X20225000Y-13125000D01*
X20175000Y-13075000D02*
X20275000Y-13075000D01*
X20225000Y-13625000D02*
X20225000Y-13725000D01*
X20175000Y-13675000D02*
X20275000Y-13675000D01*
X20225000Y-14225000D02*
X20225000Y-14325000D01*
X20175000Y-14275000D02*
X20275000Y-14275000D01*
X20225000Y-14825000D02*
X20225000Y-14925000D01*
X20175000Y-14875000D02*
X20275000Y-14875000D01*
X20225000Y-15425000D02*
X20225000Y-15525000D01*
X20175000Y-15475000D02*
X20275000Y-15475000D01*
X20375000Y-4775000D02*
X20375000Y-4875000D01*
X20325000Y-4825000D02*
X20425000Y-4825000D01*
X20375000Y-5375000D02*
X20375000Y-5475000D01*
X20325000Y-5425000D02*
X20425000Y-5425000D01*
X20375000Y-5975000D02*
X20375000Y-6075000D01*
X20325000Y-6025000D02*
X20425000Y-6025000D01*
X20375000Y-6575000D02*
X20375000Y-6675000D01*
X20325000Y-6625000D02*
X20425000Y-6625000D01*
X20375000Y-7175000D02*
X20375000Y-7275000D01*
X20325000Y-7225000D02*
X20425000Y-7225000D01*
X20375000Y-13325000D02*
X20375000Y-13425000D01*
X20325000Y-13375000D02*
X20425000Y-13375000D01*
X20375000Y-13925000D02*
X20375000Y-14025000D01*
X20325000Y-13975000D02*
X20425000Y-13975000D01*
X20375000Y-14525000D02*
X20375000Y-14625000D01*
X20325000Y-14575000D02*
X20425000Y-14575000D01*
X20375000Y-15125000D02*
X20375000Y-15225000D01*
X20325000Y-15175000D02*
X20425000Y-15175000D01*
X20525000Y-4475000D02*
X20525000Y-4575000D01*
X20475000Y-4525000D02*
X20575000Y-4525000D01*
X20525000Y-5075000D02*
X20525000Y-5175000D01*
X20475000Y-5125000D02*
X20575000Y-5125000D01*
X20525000Y-5675000D02*
X20525000Y-5775000D01*
X20475000Y-5725000D02*
X20575000Y-5725000D01*
X20525000Y-6275000D02*
X20525000Y-6375000D01*
X20475000Y-6325000D02*
X20575000Y-6325000D01*
X20525000Y-6875000D02*
X20525000Y-6975000D01*
X20475000Y-6925000D02*
X20575000Y-6925000D01*
X20525000Y-7475000D02*
X20525000Y-7575000D01*
X20475000Y-7525000D02*
X20575000Y-7525000D01*
X20525000Y-12425000D02*
X20525000Y-12525000D01*
X20475000Y-12475000D02*
X20575000Y-12475000D01*
X20525000Y-13025000D02*
X20525000Y-13125000D01*
X20475000Y-13075000D02*
X20575000Y-13075000D01*
X20525000Y-13625000D02*
X20525000Y-13725000D01*
X20475000Y-13675000D02*
X20575000Y-13675000D01*
X20525000Y-14225000D02*
X20525000Y-14325000D01*
X20475000Y-14275000D02*
X20575000Y-14275000D01*
X20525000Y-14825000D02*
X20525000Y-14925000D01*
X20475000Y-14875000D02*
X20575000Y-14875000D01*
X20525000Y-15425000D02*
X20525000Y-15525000D01*
X20475000Y-15475000D02*
X20575000Y-15475000D01*
X20675000Y-4775000D02*
X20675000Y-4875000D01*
X20625000Y-4825000D02*
X20725000Y-4825000D01*
X20675000Y-5375000D02*
X20675000Y-5475000D01*
X20625000Y-5425000D02*
X20725000Y-5425000D01*
X20675000Y-5975000D02*
X20675000Y-6075000D01*
X20625000Y-6025000D02*
X20725000Y-6025000D01*
X20675000Y-6575000D02*
X20675000Y-6675000D01*
X20625000Y-6625000D02*
X20725000Y-6625000D01*
X20675000Y-7175000D02*
X20675000Y-7275000D01*
X20625000Y-7225000D02*
X20725000Y-7225000D01*
X20675000Y-12725000D02*
X20675000Y-12825000D01*
X20625000Y-12775000D02*
X20725000Y-12775000D01*
X20675000Y-13325000D02*
X20675000Y-13425000D01*
X20625000Y-13375000D02*
X20725000Y-13375000D01*
X20675000Y-13925000D02*
X20675000Y-14025000D01*
X20625000Y-13975000D02*
X20725000Y-13975000D01*
X20675000Y-14525000D02*
X20675000Y-14625000D01*
X20625000Y-14575000D02*
X20725000Y-14575000D01*
X20675000Y-15125000D02*
X20675000Y-15225000D01*
X20625000Y-15175000D02*
X20725000Y-15175000D01*
X20825000Y-6875000D02*
X20825000Y-6975000D01*
X20775000Y-6925000D02*
X20875000Y-6925000D01*
X20825000Y-7475000D02*
X20825000Y-7575000D01*
X20775000Y-7525000D02*
X20875000Y-7525000D01*
X20825000Y-12425000D02*
X20825000Y-12525000D01*
X20775000Y-12475000D02*
X20875000Y-12475000D01*
X20825000Y-13025000D02*
X20825000Y-13125000D01*
X20775000Y-13075000D02*
X20875000Y-13075000D01*
X20975000Y-7175000D02*
X20975000Y-7275000D01*
X20925000Y-7225000D02*
X21025000Y-7225000D01*
X20975000Y-12725000D02*
X20975000Y-12825000D01*
X20925000Y-12775000D02*
X21025000Y-12775000D01*
X21125000Y-7475000D02*
X21125000Y-7575000D01*
X21075000Y-7525000D02*
X21175000Y-7525000D01*
X21125000Y-12425000D02*
X21125000Y-12525000D01*
X21075000Y-12475000D02*
X21175000Y-12475000D01*
X21275000Y-7175000D02*
X21275000Y-7275000D01*
X21225000Y-7225000D02*
X21325000Y-7225000D01*
X21275000Y-12725000D02*
X21275000Y-12825000D01*
X21225000Y-12775000D02*
X21325000Y-12775000D01*
X21425000Y-7475000D02*
X21425000Y-7575000D01*
X21375000Y-7525000D02*
X21475000Y-7525000D01*
X21425000Y-12425000D02*
X21425000Y-12525000D01*
X21375000Y-12475000D02*
X21475000Y-12475000D01*
X21575000Y-7175000D02*
X21575000Y-7275000D01*
X21525000Y-7225000D02*
X21625000Y-7225000D01*
X21575000Y-7775000D02*
X21575000Y-7875000D01*
X21525000Y-7825000D02*
X21625000Y-7825000D01*
X21575000Y-8975000D02*
X21575000Y-9075000D01*
X21525000Y-9025000D02*
X21625000Y-9025000D01*
X21575000Y-10925000D02*
X21575000Y-11025000D01*
X21525000Y-10975000D02*
X21625000Y-10975000D01*
X21575000Y-12125000D02*
X21575000Y-12225000D01*
X21525000Y-12175000D02*
X21625000Y-12175000D01*
X21575000Y-12725000D02*
X21575000Y-12825000D01*
X21525000Y-12775000D02*
X21625000Y-12775000D01*
X21725000Y-7475000D02*
X21725000Y-7575000D01*
X21675000Y-7525000D02*
X21775000Y-7525000D01*
X21725000Y-8075000D02*
X21725000Y-8175000D01*
X21675000Y-8125000D02*
X21775000Y-8125000D01*
X21725000Y-9275000D02*
X21725000Y-9375000D01*
X21675000Y-9325000D02*
X21775000Y-9325000D01*
X21725000Y-10625000D02*
X21725000Y-10725000D01*
X21675000Y-10675000D02*
X21775000Y-10675000D01*
X21725000Y-11825000D02*
X21725000Y-11925000D01*
X21675000Y-11875000D02*
X21775000Y-11875000D01*
X21725000Y-12425000D02*
X21725000Y-12525000D01*
X21675000Y-12475000D02*
X21775000Y-12475000D01*
X21875000Y-7175000D02*
X21875000Y-7275000D01*
X21825000Y-7225000D02*
X21925000Y-7225000D01*
X21875000Y-7775000D02*
X21875000Y-7875000D01*
X21825000Y-7825000D02*
X21925000Y-7825000D01*
X21875000Y-8975000D02*
X21875000Y-9075000D01*
X21825000Y-9025000D02*
X21925000Y-9025000D01*
X21875000Y-10925000D02*
X21875000Y-11025000D01*
X21825000Y-10975000D02*
X21925000Y-10975000D01*
X21875000Y-12125000D02*
X21875000Y-12225000D01*
X21825000Y-12175000D02*
X21925000Y-12175000D01*
X21875000Y-12725000D02*
X21875000Y-12825000D01*
X21825000Y-12775000D02*
X21925000Y-12775000D01*
X22025000Y-7475000D02*
X22025000Y-7575000D01*
X21975000Y-7525000D02*
X22075000Y-7525000D01*
X22025000Y-9275000D02*
X22025000Y-9375000D01*
X21975000Y-9325000D02*
X22075000Y-9325000D01*
X22025000Y-10625000D02*
X22025000Y-10725000D01*
X21975000Y-10675000D02*
X22075000Y-10675000D01*
X22025000Y-12425000D02*
X22025000Y-12525000D01*
X21975000Y-12475000D02*
X22075000Y-12475000D01*
X22175000Y-7775000D02*
X22175000Y-7875000D01*
X22125000Y-7825000D02*
X22225000Y-7825000D01*
X22175000Y-8975000D02*
X22175000Y-9075000D01*
X22125000Y-9025000D02*
X22225000Y-9025000D01*
X22175000Y-10925000D02*
X22175000Y-11025000D01*
X22125000Y-10975000D02*
X22225000Y-10975000D01*
X22175000Y-12125000D02*
X22175000Y-12225000D01*
X22125000Y-12175000D02*
X22225000Y-12175000D01*
X22325000Y-9275000D02*
X22325000Y-9375000D01*
X22275000Y-9325000D02*
X22375000Y-9325000D01*
X22325000Y-10625000D02*
X22325000Y-10725000D01*
X22275000Y-10675000D02*
X22375000Y-10675000D01*
X4113138Y-8613138D02*
X4113138Y-8386862D01*
X3886862Y-8386862D01*
X3886862Y-8613138D01*
X4113138Y-8613138D01*
X4113138Y-11613138D02*
X4113138Y-11386862D01*
X3886862Y-11386862D01*
X3886862Y-11613138D01*
X4113138Y-11613138D01*
X22063138Y-8613138D02*
X22063138Y-8386862D01*
X21836862Y-8386862D01*
X21836862Y-8613138D01*
X22063138Y-8613138D01*
X18413138Y-11613138D02*
X18413138Y-11386862D01*
X18186862Y-11386862D01*
X18186862Y-11613138D01*
X18413138Y-11613138D01*
X7713138Y-5413138D02*
X7713138Y-5186862D01*
X7486862Y-5186862D01*
X7486862Y-5413138D01*
X7713138Y-5413138D01*
X22063138Y-11613138D02*
X22063138Y-11386862D01*
X21836862Y-11386862D01*
X21836862Y-11613138D01*
X22063138Y-11613138D01*
X7713138Y-6813138D02*
X7713138Y-6586862D01*
X7486862Y-6586862D01*
X7486862Y-6813138D01*
X7713138Y-6813138D01*
X18413138Y-8613138D02*
X18413138Y-8386862D01*
X18186862Y-8386862D01*
X18186862Y-8613138D01*
X18413138Y-8613138D01*
X12275000Y-4915000D02*
X12490000Y-4700000D01*
X12275000Y-4485000D01*
X12060000Y-4700000D01*
X12275000Y-4915000D01*
X12275000Y-12715000D02*
X12490000Y-12500000D01*
X12275000Y-12285000D01*
X12060000Y-12500000D01*
X12275000Y-12715000D01*
X12275000Y-7715000D02*
X12490000Y-7500000D01*
X12275000Y-7285000D01*
X12060000Y-7500000D01*
X12275000Y-7715000D01*
X4200000Y-15515000D02*
X4415000Y-15300000D01*
X4200000Y-15085000D01*
X3985000Y-15300000D01*
X4200000Y-15515000D01*
X9725000Y-15515000D02*
X9940000Y-15300000D01*
X9725000Y-15085000D01*
X9510000Y-15300000D01*
X9725000Y-15515000D01*
X21800000Y-4915000D02*
X22015000Y-4700000D01*
X21800000Y-4485000D01*
X21585000Y-4700000D01*
X21800000Y-4915000D01*
X21800000Y-15515000D02*
X22015000Y-15300000D01*
X21800000Y-15085000D01*
X21585000Y-15300000D01*
X21800000Y-15515000D01*
X12275000Y-15515000D02*
X12490000Y-15300000D01*
X12275000Y-15085000D01*
X12060000Y-15300000D01*
X12275000Y-15515000D01*
X4200000Y-4915000D02*
X4415000Y-4700000D01*
X4200000Y-4485000D01*
X3985000Y-4700000D01*
X4200000Y-4915000D01*
X9725000Y-4915000D02*
X9940000Y-4700000D01*
X9725000Y-4485000D01*
X9510000Y-4700000D01*
X9725000Y-4915000D01*
D12*
X3783928Y-16468214D02*
X3783928Y-16168214D01*
X3855357Y-16168214D01*
X3898214Y-16182500D01*
X3926786Y-16211071D01*
X3941071Y-16239643D01*
X3955357Y-16296786D01*
X3955357Y-16339643D01*
X3941071Y-16396786D01*
X3926786Y-16425357D01*
X3898214Y-16453929D01*
X3855357Y-16468214D01*
X3783928Y-16468214D01*
X4083928Y-16468214D02*
X4083928Y-16268214D01*
X4083928Y-16325357D02*
X4098214Y-16296786D01*
X4112500Y-16282500D01*
X4141071Y-16268214D01*
X4169643Y-16268214D01*
X4269643Y-16468214D02*
X4269643Y-16268214D01*
X4269643Y-16168214D02*
X4255357Y-16182500D01*
X4269643Y-16196786D01*
X4283928Y-16182500D01*
X4269643Y-16168214D01*
X4269643Y-16196786D01*
X4455357Y-16468214D02*
X4426786Y-16453929D01*
X4412500Y-16425357D01*
X4412500Y-16168214D01*
X4612500Y-16468214D02*
X4583928Y-16453929D01*
X4569643Y-16425357D01*
X4569643Y-16168214D01*
X4955357Y-16468214D02*
X4955357Y-16168214D01*
X5055357Y-16382500D01*
X5155357Y-16168214D01*
X5155357Y-16468214D01*
X5426786Y-16468214D02*
X5426786Y-16311071D01*
X5412500Y-16282500D01*
X5383928Y-16268214D01*
X5326786Y-16268214D01*
X5298214Y-16282500D01*
X5426786Y-16453929D02*
X5398214Y-16468214D01*
X5326786Y-16468214D01*
X5298214Y-16453929D01*
X5283928Y-16425357D01*
X5283928Y-16396786D01*
X5298214Y-16368214D01*
X5326786Y-16353929D01*
X5398214Y-16353929D01*
X5426786Y-16339643D01*
X5569643Y-16268214D02*
X5569643Y-16568214D01*
X5569643Y-16282500D02*
X5598214Y-16268214D01*
X5655357Y-16268214D01*
X5683928Y-16282500D01*
X5698214Y-16296786D01*
X5712500Y-16325357D01*
X5712500Y-16411071D01*
X5698214Y-16439643D01*
X5683928Y-16453929D01*
X5655357Y-16468214D01*
X5598214Y-16468214D01*
X5569643Y-16453929D01*
X5841071Y-16439643D02*
X5855357Y-16453929D01*
X5841071Y-16468214D01*
X5826786Y-16453929D01*
X5841071Y-16439643D01*
X5841071Y-16468214D01*
X5841071Y-16282500D02*
X5855357Y-16296786D01*
X5841071Y-16311071D01*
X5826786Y-16296786D01*
X5841071Y-16282500D01*
X5841071Y-16311071D01*
X3457500Y-16942500D02*
X3497500Y-16982500D01*
X3497500Y-16942500D02*
X3457500Y-16982500D01*
X3841071Y-16798214D02*
X3869643Y-16798214D01*
X3898214Y-16812500D01*
X3912500Y-16826786D01*
X3926786Y-16855357D01*
X3941071Y-16912500D01*
X3941071Y-16983929D01*
X3926786Y-17041072D01*
X3912500Y-17069643D01*
X3898214Y-17083929D01*
X3869643Y-17098214D01*
X3841071Y-17098214D01*
X3812500Y-17083929D01*
X3798214Y-17069643D01*
X3783928Y-17041072D01*
X3769643Y-16983929D01*
X3769643Y-16912500D01*
X3783928Y-16855357D01*
X3798214Y-16826786D01*
X3812500Y-16812500D01*
X3841071Y-16798214D01*
X4069643Y-17069643D02*
X4083928Y-17083929D01*
X4069643Y-17098214D01*
X4055357Y-17083929D01*
X4069643Y-17069643D01*
X4069643Y-17098214D01*
X4341071Y-16898214D02*
X4341071Y-17098214D01*
X4269643Y-16783929D02*
X4198214Y-16998214D01*
X4383928Y-16998214D01*
X4555357Y-16798214D02*
X4583928Y-16798214D01*
X4612500Y-16812500D01*
X4626786Y-16826786D01*
X4641071Y-16855357D01*
X4655357Y-16912500D01*
X4655357Y-16983929D01*
X4641071Y-17041072D01*
X4626786Y-17069643D01*
X4612500Y-17083929D01*
X4583928Y-17098214D01*
X4555357Y-17098214D01*
X4526786Y-17083929D01*
X4512500Y-17069643D01*
X4498214Y-17041072D01*
X4483928Y-16983929D01*
X4483928Y-16912500D01*
X4498214Y-16855357D01*
X4512500Y-16826786D01*
X4526786Y-16812500D01*
X4555357Y-16798214D01*
X4783928Y-17098214D02*
X4783928Y-16898214D01*
X4783928Y-16926786D02*
X4798214Y-16912500D01*
X4826786Y-16898214D01*
X4869643Y-16898214D01*
X4898214Y-16912500D01*
X4912500Y-16941072D01*
X4912500Y-17098214D01*
X4912500Y-16941072D02*
X4926786Y-16912500D01*
X4955357Y-16898214D01*
X4998214Y-16898214D01*
X5026786Y-16912500D01*
X5041071Y-16941072D01*
X5041071Y-17098214D01*
X5183928Y-17098214D02*
X5183928Y-16898214D01*
X5183928Y-16926786D02*
X5198214Y-16912500D01*
X5226786Y-16898214D01*
X5269643Y-16898214D01*
X5298214Y-16912500D01*
X5312500Y-16941072D01*
X5312500Y-17098214D01*
X5312500Y-16941072D02*
X5326786Y-16912500D01*
X5355357Y-16898214D01*
X5398214Y-16898214D01*
X5426786Y-16912500D01*
X5441071Y-16941072D01*
X5441071Y-17098214D01*
X6026786Y-16783929D02*
X5769643Y-17169643D01*
X6412500Y-16798214D02*
X6441071Y-16798214D01*
X6469643Y-16812500D01*
X6483928Y-16826786D01*
X6498214Y-16855357D01*
X6512500Y-16912500D01*
X6512500Y-16983929D01*
X6498214Y-17041072D01*
X6483928Y-17069643D01*
X6469643Y-17083929D01*
X6441071Y-17098214D01*
X6412500Y-17098214D01*
X6383928Y-17083929D01*
X6369643Y-17069643D01*
X6355357Y-17041072D01*
X6341071Y-16983929D01*
X6341071Y-16912500D01*
X6355357Y-16855357D01*
X6369643Y-16826786D01*
X6383928Y-16812500D01*
X6412500Y-16798214D01*
X6641071Y-17069643D02*
X6655357Y-17083929D01*
X6641071Y-17098214D01*
X6626786Y-17083929D01*
X6641071Y-17069643D01*
X6641071Y-17098214D01*
X6841071Y-16798214D02*
X6869643Y-16798214D01*
X6898214Y-16812500D01*
X6912500Y-16826786D01*
X6926786Y-16855357D01*
X6941071Y-16912500D01*
X6941071Y-16983929D01*
X6926786Y-17041072D01*
X6912500Y-17069643D01*
X6898214Y-17083929D01*
X6869643Y-17098214D01*
X6841071Y-17098214D01*
X6812500Y-17083929D01*
X6798214Y-17069643D01*
X6783928Y-17041072D01*
X6769643Y-16983929D01*
X6769643Y-16912500D01*
X6783928Y-16855357D01*
X6798214Y-16826786D01*
X6812500Y-16812500D01*
X6841071Y-16798214D01*
X7226786Y-17098214D02*
X7055357Y-17098214D01*
X7141071Y-17098214D02*
X7141071Y-16798214D01*
X7112500Y-16841072D01*
X7083928Y-16869643D01*
X7055357Y-16883929D01*
X7483928Y-16798214D02*
X7426786Y-16798214D01*
X7398214Y-16812500D01*
X7383928Y-16826786D01*
X7355357Y-16869643D01*
X7341071Y-16926786D01*
X7341071Y-17041072D01*
X7355357Y-17069643D01*
X7369643Y-17083929D01*
X7398214Y-17098214D01*
X7455357Y-17098214D01*
X7483928Y-17083929D01*
X7498214Y-17069643D01*
X7512500Y-17041072D01*
X7512500Y-16969643D01*
X7498214Y-16941072D01*
X7483928Y-16926786D01*
X7455357Y-16912500D01*
X7398214Y-16912500D01*
X7369643Y-16926786D01*
X7355357Y-16941072D01*
X7341071Y-16969643D01*
X7626786Y-16798214D02*
X7626786Y-16855357D01*
X7741071Y-16798214D02*
X7741071Y-16855357D01*
X8183928Y-17212500D02*
X8169643Y-17198214D01*
X8141071Y-17155357D01*
X8126786Y-17126786D01*
X8112500Y-17083929D01*
X8098214Y-17012500D01*
X8098214Y-16955357D01*
X8112500Y-16883929D01*
X8126786Y-16841072D01*
X8141071Y-16812500D01*
X8169643Y-16769643D01*
X8183928Y-16755357D01*
X8269643Y-16798214D02*
X8469643Y-16798214D01*
X8341071Y-17098214D01*
X8555357Y-16798214D02*
X8755357Y-16798214D01*
X8626786Y-17098214D01*
X9098214Y-17098214D02*
X9098214Y-16798214D01*
X9226786Y-17098214D02*
X9226786Y-16941072D01*
X9212500Y-16912500D01*
X9183928Y-16898214D01*
X9141071Y-16898214D01*
X9112500Y-16912500D01*
X9098214Y-16926786D01*
X9412500Y-17098214D02*
X9383928Y-17083929D01*
X9369643Y-17069643D01*
X9355357Y-17041072D01*
X9355357Y-16955357D01*
X9369643Y-16926786D01*
X9383928Y-16912500D01*
X9412500Y-16898214D01*
X9455357Y-16898214D01*
X9483928Y-16912500D01*
X9498214Y-16926786D01*
X9512500Y-16955357D01*
X9512500Y-17041072D01*
X9498214Y-17069643D01*
X9483928Y-17083929D01*
X9455357Y-17098214D01*
X9412500Y-17098214D01*
X9683928Y-17098214D02*
X9655357Y-17083929D01*
X9641071Y-17055357D01*
X9641071Y-16798214D01*
X9912500Y-17083929D02*
X9883928Y-17098214D01*
X9826786Y-17098214D01*
X9798214Y-17083929D01*
X9783928Y-17055357D01*
X9783928Y-16941072D01*
X9798214Y-16912500D01*
X9826786Y-16898214D01*
X9883928Y-16898214D01*
X9912500Y-16912500D01*
X9926786Y-16941072D01*
X9926786Y-16969643D01*
X9783928Y-16998214D01*
X10041071Y-17083929D02*
X10069643Y-17098214D01*
X10126786Y-17098214D01*
X10155357Y-17083929D01*
X10169643Y-17055357D01*
X10169643Y-17041072D01*
X10155357Y-17012500D01*
X10126786Y-16998214D01*
X10083928Y-16998214D01*
X10055357Y-16983929D01*
X10041071Y-16955357D01*
X10041071Y-16941072D01*
X10055357Y-16912500D01*
X10083928Y-16898214D01*
X10126786Y-16898214D01*
X10155357Y-16912500D01*
X10269643Y-17212500D02*
X10283928Y-17198214D01*
X10312500Y-17155357D01*
X10326786Y-17126786D01*
X10341071Y-17083929D01*
X10355357Y-17012500D01*
X10355357Y-16955357D01*
X10341071Y-16883929D01*
X10326786Y-16841072D01*
X10312500Y-16812500D01*
X10283928Y-16769643D01*
X10269643Y-16755357D01*
X3497500Y-17358500D02*
G75*
G03X3497500Y-17358500I-30000J0D01*
G01*
X3841071Y-17194214D02*
X3869643Y-17194214D01*
X3898214Y-17208500D01*
X3912500Y-17222786D01*
X3926786Y-17251357D01*
X3941071Y-17308500D01*
X3941071Y-17379929D01*
X3926786Y-17437072D01*
X3912500Y-17465643D01*
X3898214Y-17479929D01*
X3869643Y-17494214D01*
X3841071Y-17494214D01*
X3812500Y-17479929D01*
X3798214Y-17465643D01*
X3783928Y-17437072D01*
X3769643Y-17379929D01*
X3769643Y-17308500D01*
X3783928Y-17251357D01*
X3798214Y-17222786D01*
X3812500Y-17208500D01*
X3841071Y-17194214D01*
X4069643Y-17465643D02*
X4083928Y-17479929D01*
X4069643Y-17494214D01*
X4055357Y-17479929D01*
X4069643Y-17465643D01*
X4069643Y-17494214D01*
X4341071Y-17194214D02*
X4283928Y-17194214D01*
X4255357Y-17208500D01*
X4241071Y-17222786D01*
X4212500Y-17265643D01*
X4198214Y-17322786D01*
X4198214Y-17437072D01*
X4212500Y-17465643D01*
X4226786Y-17479929D01*
X4255357Y-17494214D01*
X4312500Y-17494214D01*
X4341071Y-17479929D01*
X4355357Y-17465643D01*
X4369643Y-17437072D01*
X4369643Y-17365643D01*
X4355357Y-17337072D01*
X4341071Y-17322786D01*
X4312500Y-17308500D01*
X4255357Y-17308500D01*
X4226786Y-17322786D01*
X4212500Y-17337072D01*
X4198214Y-17365643D01*
X4555357Y-17194214D02*
X4583928Y-17194214D01*
X4612500Y-17208500D01*
X4626786Y-17222786D01*
X4641071Y-17251357D01*
X4655357Y-17308500D01*
X4655357Y-17379929D01*
X4641071Y-17437072D01*
X4626786Y-17465643D01*
X4612500Y-17479929D01*
X4583928Y-17494214D01*
X4555357Y-17494214D01*
X4526786Y-17479929D01*
X4512500Y-17465643D01*
X4498214Y-17437072D01*
X4483928Y-17379929D01*
X4483928Y-17308500D01*
X4498214Y-17251357D01*
X4512500Y-17222786D01*
X4526786Y-17208500D01*
X4555357Y-17194214D01*
X4783928Y-17494214D02*
X4783928Y-17294214D01*
X4783928Y-17322786D02*
X4798214Y-17308500D01*
X4826786Y-17294214D01*
X4869643Y-17294214D01*
X4898214Y-17308500D01*
X4912500Y-17337072D01*
X4912500Y-17494214D01*
X4912500Y-17337072D02*
X4926786Y-17308500D01*
X4955357Y-17294214D01*
X4998214Y-17294214D01*
X5026786Y-17308500D01*
X5041071Y-17337072D01*
X5041071Y-17494214D01*
X5183928Y-17494214D02*
X5183928Y-17294214D01*
X5183928Y-17322786D02*
X5198214Y-17308500D01*
X5226786Y-17294214D01*
X5269643Y-17294214D01*
X5298214Y-17308500D01*
X5312500Y-17337072D01*
X5312500Y-17494214D01*
X5312500Y-17337072D02*
X5326786Y-17308500D01*
X5355357Y-17294214D01*
X5398214Y-17294214D01*
X5426786Y-17308500D01*
X5441071Y-17337072D01*
X5441071Y-17494214D01*
X6026786Y-17179929D02*
X5769643Y-17565643D01*
X6412500Y-17194214D02*
X6441071Y-17194214D01*
X6469643Y-17208500D01*
X6483928Y-17222786D01*
X6498214Y-17251357D01*
X6512500Y-17308500D01*
X6512500Y-17379929D01*
X6498214Y-17437072D01*
X6483928Y-17465643D01*
X6469643Y-17479929D01*
X6441071Y-17494214D01*
X6412500Y-17494214D01*
X6383928Y-17479929D01*
X6369643Y-17465643D01*
X6355357Y-17437072D01*
X6341071Y-17379929D01*
X6341071Y-17308500D01*
X6355357Y-17251357D01*
X6369643Y-17222786D01*
X6383928Y-17208500D01*
X6412500Y-17194214D01*
X6641071Y-17465643D02*
X6655357Y-17479929D01*
X6641071Y-17494214D01*
X6626786Y-17479929D01*
X6641071Y-17465643D01*
X6641071Y-17494214D01*
X6841071Y-17194214D02*
X6869643Y-17194214D01*
X6898214Y-17208500D01*
X6912500Y-17222786D01*
X6926786Y-17251357D01*
X6941071Y-17308500D01*
X6941071Y-17379929D01*
X6926786Y-17437072D01*
X6912500Y-17465643D01*
X6898214Y-17479929D01*
X6869643Y-17494214D01*
X6841071Y-17494214D01*
X6812500Y-17479929D01*
X6798214Y-17465643D01*
X6783928Y-17437072D01*
X6769643Y-17379929D01*
X6769643Y-17308500D01*
X6783928Y-17251357D01*
X6798214Y-17222786D01*
X6812500Y-17208500D01*
X6841071Y-17194214D01*
X7055357Y-17222786D02*
X7069643Y-17208500D01*
X7098214Y-17194214D01*
X7169643Y-17194214D01*
X7198214Y-17208500D01*
X7212500Y-17222786D01*
X7226786Y-17251357D01*
X7226786Y-17279929D01*
X7212500Y-17322786D01*
X7041071Y-17494214D01*
X7226786Y-17494214D01*
X7483928Y-17294214D02*
X7483928Y-17494214D01*
X7412500Y-17179929D02*
X7341071Y-17394214D01*
X7526786Y-17394214D01*
X7626786Y-17194214D02*
X7626786Y-17251357D01*
X7741071Y-17194214D02*
X7741071Y-17251357D01*
X8183928Y-17608500D02*
X8169643Y-17594214D01*
X8141071Y-17551357D01*
X8126786Y-17522786D01*
X8112500Y-17479929D01*
X8098214Y-17408500D01*
X8098214Y-17351357D01*
X8112500Y-17279929D01*
X8126786Y-17237072D01*
X8141071Y-17208500D01*
X8169643Y-17165643D01*
X8183928Y-17151357D01*
X8269643Y-17194214D02*
X8469643Y-17194214D01*
X8341071Y-17494214D01*
X8812500Y-17494214D02*
X8812500Y-17194214D01*
X8941071Y-17494214D02*
X8941071Y-17337072D01*
X8926786Y-17308500D01*
X8898214Y-17294214D01*
X8855357Y-17294214D01*
X8826786Y-17308500D01*
X8812500Y-17322786D01*
X9126786Y-17494214D02*
X9098214Y-17479929D01*
X9083928Y-17465643D01*
X9069643Y-17437072D01*
X9069643Y-17351357D01*
X9083928Y-17322786D01*
X9098214Y-17308500D01*
X9126786Y-17294214D01*
X9169643Y-17294214D01*
X9198214Y-17308500D01*
X9212500Y-17322786D01*
X9226786Y-17351357D01*
X9226786Y-17437072D01*
X9212500Y-17465643D01*
X9198214Y-17479929D01*
X9169643Y-17494214D01*
X9126786Y-17494214D01*
X9398214Y-17494214D02*
X9369643Y-17479929D01*
X9355357Y-17451357D01*
X9355357Y-17194214D01*
X9626786Y-17479929D02*
X9598214Y-17494214D01*
X9541071Y-17494214D01*
X9512500Y-17479929D01*
X9498214Y-17451357D01*
X9498214Y-17337072D01*
X9512500Y-17308500D01*
X9541071Y-17294214D01*
X9598214Y-17294214D01*
X9626786Y-17308500D01*
X9641071Y-17337072D01*
X9641071Y-17365643D01*
X9498214Y-17394214D01*
X9755357Y-17479929D02*
X9783928Y-17494214D01*
X9841071Y-17494214D01*
X9869643Y-17479929D01*
X9883928Y-17451357D01*
X9883928Y-17437072D01*
X9869643Y-17408500D01*
X9841071Y-17394214D01*
X9798214Y-17394214D01*
X9769643Y-17379929D01*
X9755357Y-17351357D01*
X9755357Y-17337072D01*
X9769643Y-17308500D01*
X9798214Y-17294214D01*
X9841071Y-17294214D01*
X9869643Y-17308500D01*
X9983928Y-17608500D02*
X9998214Y-17594214D01*
X10026786Y-17551357D01*
X10041071Y-17522786D01*
X10055357Y-17479929D01*
X10069643Y-17408500D01*
X10069643Y-17351357D01*
X10055357Y-17279929D01*
X10041071Y-17237072D01*
X10026786Y-17208500D01*
X9998214Y-17165643D01*
X9983928Y-17151357D01*
X3447500Y-17704500D02*
X3447500Y-17804500D01*
X3397500Y-17754500D02*
X3497500Y-17754500D01*
X3941071Y-17890214D02*
X3769643Y-17890214D01*
X3855357Y-17890214D02*
X3855357Y-17590214D01*
X3826786Y-17633072D01*
X3798214Y-17661643D01*
X3769643Y-17675929D01*
X4069643Y-17861643D02*
X4083928Y-17875929D01*
X4069643Y-17890214D01*
X4055357Y-17875929D01*
X4069643Y-17861643D01*
X4069643Y-17890214D01*
X4269643Y-17590214D02*
X4298214Y-17590214D01*
X4326786Y-17604500D01*
X4341071Y-17618786D01*
X4355357Y-17647357D01*
X4369643Y-17704500D01*
X4369643Y-17775929D01*
X4355357Y-17833072D01*
X4341071Y-17861643D01*
X4326786Y-17875929D01*
X4298214Y-17890214D01*
X4269643Y-17890214D01*
X4241071Y-17875929D01*
X4226786Y-17861643D01*
X4212500Y-17833072D01*
X4198214Y-17775929D01*
X4198214Y-17704500D01*
X4212500Y-17647357D01*
X4226786Y-17618786D01*
X4241071Y-17604500D01*
X4269643Y-17590214D01*
X4555357Y-17590214D02*
X4583928Y-17590214D01*
X4612500Y-17604500D01*
X4626786Y-17618786D01*
X4641071Y-17647357D01*
X4655357Y-17704500D01*
X4655357Y-17775929D01*
X4641071Y-17833072D01*
X4626786Y-17861643D01*
X4612500Y-17875929D01*
X4583928Y-17890214D01*
X4555357Y-17890214D01*
X4526786Y-17875929D01*
X4512500Y-17861643D01*
X4498214Y-17833072D01*
X4483928Y-17775929D01*
X4483928Y-17704500D01*
X4498214Y-17647357D01*
X4512500Y-17618786D01*
X4526786Y-17604500D01*
X4555357Y-17590214D01*
X4783928Y-17890214D02*
X4783928Y-17690214D01*
X4783928Y-17718786D02*
X4798214Y-17704500D01*
X4826786Y-17690214D01*
X4869643Y-17690214D01*
X4898214Y-17704500D01*
X4912500Y-17733072D01*
X4912500Y-17890214D01*
X4912500Y-17733072D02*
X4926786Y-17704500D01*
X4955357Y-17690214D01*
X4998214Y-17690214D01*
X5026786Y-17704500D01*
X5041071Y-17733072D01*
X5041071Y-17890214D01*
X5183928Y-17890214D02*
X5183928Y-17690214D01*
X5183928Y-17718786D02*
X5198214Y-17704500D01*
X5226786Y-17690214D01*
X5269643Y-17690214D01*
X5298214Y-17704500D01*
X5312500Y-17733072D01*
X5312500Y-17890214D01*
X5312500Y-17733072D02*
X5326786Y-17704500D01*
X5355357Y-17690214D01*
X5398214Y-17690214D01*
X5426786Y-17704500D01*
X5441071Y-17733072D01*
X5441071Y-17890214D01*
X6026786Y-17575929D02*
X5769643Y-17961643D01*
X6412500Y-17590214D02*
X6441071Y-17590214D01*
X6469643Y-17604500D01*
X6483928Y-17618786D01*
X6498214Y-17647357D01*
X6512500Y-17704500D01*
X6512500Y-17775929D01*
X6498214Y-17833072D01*
X6483928Y-17861643D01*
X6469643Y-17875929D01*
X6441071Y-17890214D01*
X6412500Y-17890214D01*
X6383928Y-17875929D01*
X6369643Y-17861643D01*
X6355357Y-17833072D01*
X6341071Y-17775929D01*
X6341071Y-17704500D01*
X6355357Y-17647357D01*
X6369643Y-17618786D01*
X6383928Y-17604500D01*
X6412500Y-17590214D01*
X6641071Y-17861643D02*
X6655357Y-17875929D01*
X6641071Y-17890214D01*
X6626786Y-17875929D01*
X6641071Y-17861643D01*
X6641071Y-17890214D01*
X6841071Y-17590214D02*
X6869643Y-17590214D01*
X6898214Y-17604500D01*
X6912500Y-17618786D01*
X6926786Y-17647357D01*
X6941071Y-17704500D01*
X6941071Y-17775929D01*
X6926786Y-17833072D01*
X6912500Y-17861643D01*
X6898214Y-17875929D01*
X6869643Y-17890214D01*
X6841071Y-17890214D01*
X6812500Y-17875929D01*
X6798214Y-17861643D01*
X6783928Y-17833072D01*
X6769643Y-17775929D01*
X6769643Y-17704500D01*
X6783928Y-17647357D01*
X6798214Y-17618786D01*
X6812500Y-17604500D01*
X6841071Y-17590214D01*
X7041071Y-17590214D02*
X7226786Y-17590214D01*
X7126786Y-17704500D01*
X7169643Y-17704500D01*
X7198214Y-17718786D01*
X7212500Y-17733072D01*
X7226786Y-17761643D01*
X7226786Y-17833072D01*
X7212500Y-17861643D01*
X7198214Y-17875929D01*
X7169643Y-17890214D01*
X7083928Y-17890214D01*
X7055357Y-17875929D01*
X7041071Y-17861643D01*
X7369643Y-17890214D02*
X7426786Y-17890214D01*
X7455357Y-17875929D01*
X7469643Y-17861643D01*
X7498214Y-17818786D01*
X7512500Y-17761643D01*
X7512500Y-17647357D01*
X7498214Y-17618786D01*
X7483928Y-17604500D01*
X7455357Y-17590214D01*
X7398214Y-17590214D01*
X7369643Y-17604500D01*
X7355357Y-17618786D01*
X7341071Y-17647357D01*
X7341071Y-17718786D01*
X7355357Y-17747357D01*
X7369643Y-17761643D01*
X7398214Y-17775929D01*
X7455357Y-17775929D01*
X7483928Y-17761643D01*
X7498214Y-17747357D01*
X7512500Y-17718786D01*
X7626786Y-17590214D02*
X7626786Y-17647357D01*
X7741071Y-17590214D02*
X7741071Y-17647357D01*
X8183928Y-18004500D02*
X8169643Y-17990214D01*
X8141071Y-17947357D01*
X8126786Y-17918786D01*
X8112500Y-17875929D01*
X8098214Y-17804500D01*
X8098214Y-17747357D01*
X8112500Y-17675929D01*
X8126786Y-17633072D01*
X8141071Y-17604500D01*
X8169643Y-17561643D01*
X8183928Y-17547357D01*
X8426786Y-17690214D02*
X8426786Y-17890214D01*
X8355357Y-17575929D02*
X8283928Y-17790214D01*
X8469643Y-17790214D01*
X8626786Y-17718786D02*
X8598214Y-17704500D01*
X8583928Y-17690214D01*
X8569643Y-17661643D01*
X8569643Y-17647357D01*
X8583928Y-17618786D01*
X8598214Y-17604500D01*
X8626786Y-17590214D01*
X8683928Y-17590214D01*
X8712500Y-17604500D01*
X8726786Y-17618786D01*
X8741071Y-17647357D01*
X8741071Y-17661643D01*
X8726786Y-17690214D01*
X8712500Y-17704500D01*
X8683928Y-17718786D01*
X8626786Y-17718786D01*
X8598214Y-17733072D01*
X8583928Y-17747357D01*
X8569643Y-17775929D01*
X8569643Y-17833072D01*
X8583928Y-17861643D01*
X8598214Y-17875929D01*
X8626786Y-17890214D01*
X8683928Y-17890214D01*
X8712500Y-17875929D01*
X8726786Y-17861643D01*
X8741071Y-17833072D01*
X8741071Y-17775929D01*
X8726786Y-17747357D01*
X8712500Y-17733072D01*
X8683928Y-17718786D01*
X9012500Y-17590214D02*
X8869643Y-17590214D01*
X8855357Y-17733072D01*
X8869643Y-17718786D01*
X8898214Y-17704500D01*
X8969643Y-17704500D01*
X8998214Y-17718786D01*
X9012500Y-17733072D01*
X9026786Y-17761643D01*
X9026786Y-17833072D01*
X9012500Y-17861643D01*
X8998214Y-17875929D01*
X8969643Y-17890214D01*
X8898214Y-17890214D01*
X8869643Y-17875929D01*
X8855357Y-17861643D01*
X9383928Y-17890214D02*
X9383928Y-17590214D01*
X9512500Y-17890214D02*
X9512500Y-17733072D01*
X9498214Y-17704500D01*
X9469643Y-17690214D01*
X9426786Y-17690214D01*
X9398214Y-17704500D01*
X9383928Y-17718786D01*
X9698214Y-17890214D02*
X9669643Y-17875929D01*
X9655357Y-17861643D01*
X9641071Y-17833072D01*
X9641071Y-17747357D01*
X9655357Y-17718786D01*
X9669643Y-17704500D01*
X9698214Y-17690214D01*
X9741071Y-17690214D01*
X9769643Y-17704500D01*
X9783928Y-17718786D01*
X9798214Y-17747357D01*
X9798214Y-17833072D01*
X9783928Y-17861643D01*
X9769643Y-17875929D01*
X9741071Y-17890214D01*
X9698214Y-17890214D01*
X9969643Y-17890214D02*
X9941071Y-17875929D01*
X9926786Y-17847357D01*
X9926786Y-17590214D01*
X10198214Y-17875929D02*
X10169643Y-17890214D01*
X10112500Y-17890214D01*
X10083928Y-17875929D01*
X10069643Y-17847357D01*
X10069643Y-17733072D01*
X10083928Y-17704500D01*
X10112500Y-17690214D01*
X10169643Y-17690214D01*
X10198214Y-17704500D01*
X10212500Y-17733072D01*
X10212500Y-17761643D01*
X10069643Y-17790214D01*
X10326786Y-17875929D02*
X10355357Y-17890214D01*
X10412500Y-17890214D01*
X10441071Y-17875929D01*
X10455357Y-17847357D01*
X10455357Y-17833072D01*
X10441071Y-17804500D01*
X10412500Y-17790214D01*
X10369643Y-17790214D01*
X10341071Y-17775929D01*
X10326786Y-17747357D01*
X10326786Y-17733072D01*
X10341071Y-17704500D01*
X10369643Y-17690214D01*
X10412500Y-17690214D01*
X10441071Y-17704500D01*
X10555357Y-18004500D02*
X10569643Y-17990214D01*
X10598214Y-17947357D01*
X10612500Y-17918786D01*
X10626786Y-17875929D01*
X10641071Y-17804500D01*
X10641071Y-17747357D01*
X10626786Y-17675929D01*
X10612500Y-17633072D01*
X10598214Y-17604500D01*
X10569643Y-17561643D01*
X10555357Y-17547357D01*
X3450638Y-18263638D02*
X3450638Y-18037362D01*
X3224362Y-18037362D01*
X3224362Y-18263638D01*
X3450638Y-18263638D01*
X3755357Y-17986214D02*
X3941071Y-17986214D01*
X3841071Y-18100500D01*
X3883928Y-18100500D01*
X3912500Y-18114786D01*
X3926786Y-18129072D01*
X3941071Y-18157643D01*
X3941071Y-18229072D01*
X3926786Y-18257643D01*
X3912500Y-18271929D01*
X3883928Y-18286214D01*
X3798214Y-18286214D01*
X3769643Y-18271929D01*
X3755357Y-18257643D01*
X4069643Y-18257643D02*
X4083928Y-18271929D01*
X4069643Y-18286214D01*
X4055357Y-18271929D01*
X4069643Y-18257643D01*
X4069643Y-18286214D01*
X4198214Y-18014786D02*
X4212500Y-18000500D01*
X4241071Y-17986214D01*
X4312500Y-17986214D01*
X4341071Y-18000500D01*
X4355357Y-18014786D01*
X4369643Y-18043357D01*
X4369643Y-18071929D01*
X4355357Y-18114786D01*
X4183928Y-18286214D01*
X4369643Y-18286214D01*
X4555357Y-17986214D02*
X4583928Y-17986214D01*
X4612500Y-18000500D01*
X4626786Y-18014786D01*
X4641071Y-18043357D01*
X4655357Y-18100500D01*
X4655357Y-18171929D01*
X4641071Y-18229072D01*
X4626786Y-18257643D01*
X4612500Y-18271929D01*
X4583928Y-18286214D01*
X4555357Y-18286214D01*
X4526786Y-18271929D01*
X4512500Y-18257643D01*
X4498214Y-18229072D01*
X4483928Y-18171929D01*
X4483928Y-18100500D01*
X4498214Y-18043357D01*
X4512500Y-18014786D01*
X4526786Y-18000500D01*
X4555357Y-17986214D01*
X4783928Y-18286214D02*
X4783928Y-18086214D01*
X4783928Y-18114786D02*
X4798214Y-18100500D01*
X4826786Y-18086214D01*
X4869643Y-18086214D01*
X4898214Y-18100500D01*
X4912500Y-18129072D01*
X4912500Y-18286214D01*
X4912500Y-18129072D02*
X4926786Y-18100500D01*
X4955357Y-18086214D01*
X4998214Y-18086214D01*
X5026786Y-18100500D01*
X5041071Y-18129072D01*
X5041071Y-18286214D01*
X5183928Y-18286214D02*
X5183928Y-18086214D01*
X5183928Y-18114786D02*
X5198214Y-18100500D01*
X5226786Y-18086214D01*
X5269643Y-18086214D01*
X5298214Y-18100500D01*
X5312500Y-18129072D01*
X5312500Y-18286214D01*
X5312500Y-18129072D02*
X5326786Y-18100500D01*
X5355357Y-18086214D01*
X5398214Y-18086214D01*
X5426786Y-18100500D01*
X5441071Y-18129072D01*
X5441071Y-18286214D01*
X6026786Y-17971929D02*
X5769643Y-18357643D01*
X6412500Y-17986214D02*
X6441071Y-17986214D01*
X6469643Y-18000500D01*
X6483928Y-18014786D01*
X6498214Y-18043357D01*
X6512500Y-18100500D01*
X6512500Y-18171929D01*
X6498214Y-18229072D01*
X6483928Y-18257643D01*
X6469643Y-18271929D01*
X6441071Y-18286214D01*
X6412500Y-18286214D01*
X6383928Y-18271929D01*
X6369643Y-18257643D01*
X6355357Y-18229072D01*
X6341071Y-18171929D01*
X6341071Y-18100500D01*
X6355357Y-18043357D01*
X6369643Y-18014786D01*
X6383928Y-18000500D01*
X6412500Y-17986214D01*
X6641071Y-18257643D02*
X6655357Y-18271929D01*
X6641071Y-18286214D01*
X6626786Y-18271929D01*
X6641071Y-18257643D01*
X6641071Y-18286214D01*
X6941071Y-18286214D02*
X6769643Y-18286214D01*
X6855357Y-18286214D02*
X6855357Y-17986214D01*
X6826786Y-18029072D01*
X6798214Y-18057643D01*
X6769643Y-18071929D01*
X7055357Y-18014786D02*
X7069643Y-18000500D01*
X7098214Y-17986214D01*
X7169643Y-17986214D01*
X7198214Y-18000500D01*
X7212500Y-18014786D01*
X7226786Y-18043357D01*
X7226786Y-18071929D01*
X7212500Y-18114786D01*
X7041071Y-18286214D01*
X7226786Y-18286214D01*
X7483928Y-17986214D02*
X7426786Y-17986214D01*
X7398214Y-18000500D01*
X7383928Y-18014786D01*
X7355357Y-18057643D01*
X7341071Y-18114786D01*
X7341071Y-18229072D01*
X7355357Y-18257643D01*
X7369643Y-18271929D01*
X7398214Y-18286214D01*
X7455357Y-18286214D01*
X7483928Y-18271929D01*
X7498214Y-18257643D01*
X7512500Y-18229072D01*
X7512500Y-18157643D01*
X7498214Y-18129072D01*
X7483928Y-18114786D01*
X7455357Y-18100500D01*
X7398214Y-18100500D01*
X7369643Y-18114786D01*
X7355357Y-18129072D01*
X7341071Y-18157643D01*
X7626786Y-17986214D02*
X7626786Y-18043357D01*
X7741071Y-17986214D02*
X7741071Y-18043357D01*
X8183928Y-18400500D02*
X8169643Y-18386214D01*
X8141071Y-18343357D01*
X8126786Y-18314786D01*
X8112500Y-18271929D01*
X8098214Y-18200500D01*
X8098214Y-18143357D01*
X8112500Y-18071929D01*
X8126786Y-18029072D01*
X8141071Y-18000500D01*
X8169643Y-17957643D01*
X8183928Y-17943357D01*
X8341071Y-18114786D02*
X8312500Y-18100500D01*
X8298214Y-18086214D01*
X8283928Y-18057643D01*
X8283928Y-18043357D01*
X8298214Y-18014786D01*
X8312500Y-18000500D01*
X8341071Y-17986214D01*
X8398214Y-17986214D01*
X8426786Y-18000500D01*
X8441071Y-18014786D01*
X8455357Y-18043357D01*
X8455357Y-18057643D01*
X8441071Y-18086214D01*
X8426786Y-18100500D01*
X8398214Y-18114786D01*
X8341071Y-18114786D01*
X8312500Y-18129072D01*
X8298214Y-18143357D01*
X8283928Y-18171929D01*
X8283928Y-18229072D01*
X8298214Y-18257643D01*
X8312500Y-18271929D01*
X8341071Y-18286214D01*
X8398214Y-18286214D01*
X8426786Y-18271929D01*
X8441071Y-18257643D01*
X8455357Y-18229072D01*
X8455357Y-18171929D01*
X8441071Y-18143357D01*
X8426786Y-18129072D01*
X8398214Y-18114786D01*
X8812500Y-18286214D02*
X8812500Y-17986214D01*
X8941071Y-18286214D02*
X8941071Y-18129072D01*
X8926786Y-18100500D01*
X8898214Y-18086214D01*
X8855357Y-18086214D01*
X8826786Y-18100500D01*
X8812500Y-18114786D01*
X9126786Y-18286214D02*
X9098214Y-18271929D01*
X9083928Y-18257643D01*
X9069643Y-18229072D01*
X9069643Y-18143357D01*
X9083928Y-18114786D01*
X9098214Y-18100500D01*
X9126786Y-18086214D01*
X9169643Y-18086214D01*
X9198214Y-18100500D01*
X9212500Y-18114786D01*
X9226786Y-18143357D01*
X9226786Y-18229072D01*
X9212500Y-18257643D01*
X9198214Y-18271929D01*
X9169643Y-18286214D01*
X9126786Y-18286214D01*
X9398214Y-18286214D02*
X9369643Y-18271929D01*
X9355357Y-18243357D01*
X9355357Y-17986214D01*
X9626786Y-18271929D02*
X9598214Y-18286214D01*
X9541071Y-18286214D01*
X9512500Y-18271929D01*
X9498214Y-18243357D01*
X9498214Y-18129072D01*
X9512500Y-18100500D01*
X9541071Y-18086214D01*
X9598214Y-18086214D01*
X9626786Y-18100500D01*
X9641071Y-18129072D01*
X9641071Y-18157643D01*
X9498214Y-18186214D01*
X9755357Y-18271929D02*
X9783928Y-18286214D01*
X9841071Y-18286214D01*
X9869643Y-18271929D01*
X9883928Y-18243357D01*
X9883928Y-18229072D01*
X9869643Y-18200500D01*
X9841071Y-18186214D01*
X9798214Y-18186214D01*
X9769643Y-18171929D01*
X9755357Y-18143357D01*
X9755357Y-18129072D01*
X9769643Y-18100500D01*
X9798214Y-18086214D01*
X9841071Y-18086214D01*
X9869643Y-18100500D01*
X9983928Y-18400500D02*
X9998214Y-18386214D01*
X10026786Y-18343357D01*
X10041071Y-18314786D01*
X10055357Y-18271929D01*
X10069643Y-18200500D01*
X10069643Y-18143357D01*
X10055357Y-18071929D01*
X10041071Y-18029072D01*
X10026786Y-18000500D01*
X9998214Y-17957643D01*
X9983928Y-17943357D01*
X3282500Y-18815500D02*
X3497500Y-18600500D01*
X3282500Y-18385500D01*
X3067500Y-18600500D01*
X3282500Y-18815500D01*
X3912500Y-18536214D02*
X3912500Y-18736214D01*
X3841071Y-18421929D02*
X3769643Y-18636214D01*
X3955357Y-18636214D01*
X4069643Y-18707643D02*
X4083928Y-18721929D01*
X4069643Y-18736214D01*
X4055357Y-18721929D01*
X4069643Y-18707643D01*
X4069643Y-18736214D01*
X4183928Y-18436214D02*
X4369643Y-18436214D01*
X4269643Y-18550500D01*
X4312500Y-18550500D01*
X4341071Y-18564786D01*
X4355357Y-18579072D01*
X4369643Y-18607643D01*
X4369643Y-18679072D01*
X4355357Y-18707643D01*
X4341071Y-18721929D01*
X4312500Y-18736214D01*
X4226786Y-18736214D01*
X4198214Y-18721929D01*
X4183928Y-18707643D01*
X4555357Y-18436214D02*
X4583928Y-18436214D01*
X4612500Y-18450500D01*
X4626786Y-18464786D01*
X4641071Y-18493357D01*
X4655357Y-18550500D01*
X4655357Y-18621929D01*
X4641071Y-18679072D01*
X4626786Y-18707643D01*
X4612500Y-18721929D01*
X4583928Y-18736214D01*
X4555357Y-18736214D01*
X4526786Y-18721929D01*
X4512500Y-18707643D01*
X4498214Y-18679072D01*
X4483928Y-18621929D01*
X4483928Y-18550500D01*
X4498214Y-18493357D01*
X4512500Y-18464786D01*
X4526786Y-18450500D01*
X4555357Y-18436214D01*
X4783928Y-18736214D02*
X4783928Y-18536214D01*
X4783928Y-18564786D02*
X4798214Y-18550500D01*
X4826786Y-18536214D01*
X4869643Y-18536214D01*
X4898214Y-18550500D01*
X4912500Y-18579072D01*
X4912500Y-18736214D01*
X4912500Y-18579072D02*
X4926786Y-18550500D01*
X4955357Y-18536214D01*
X4998214Y-18536214D01*
X5026786Y-18550500D01*
X5041071Y-18579072D01*
X5041071Y-18736214D01*
X5183928Y-18736214D02*
X5183928Y-18536214D01*
X5183928Y-18564786D02*
X5198214Y-18550500D01*
X5226786Y-18536214D01*
X5269643Y-18536214D01*
X5298214Y-18550500D01*
X5312500Y-18579072D01*
X5312500Y-18736214D01*
X5312500Y-18579072D02*
X5326786Y-18550500D01*
X5355357Y-18536214D01*
X5398214Y-18536214D01*
X5426786Y-18550500D01*
X5441071Y-18579072D01*
X5441071Y-18736214D01*
X6026786Y-18421929D02*
X5769643Y-18807643D01*
X6412500Y-18436214D02*
X6441071Y-18436214D01*
X6469643Y-18450500D01*
X6483928Y-18464786D01*
X6498214Y-18493357D01*
X6512500Y-18550500D01*
X6512500Y-18621929D01*
X6498214Y-18679072D01*
X6483928Y-18707643D01*
X6469643Y-18721929D01*
X6441071Y-18736214D01*
X6412500Y-18736214D01*
X6383928Y-18721929D01*
X6369643Y-18707643D01*
X6355357Y-18679072D01*
X6341071Y-18621929D01*
X6341071Y-18550500D01*
X6355357Y-18493357D01*
X6369643Y-18464786D01*
X6383928Y-18450500D01*
X6412500Y-18436214D01*
X6641071Y-18707643D02*
X6655357Y-18721929D01*
X6641071Y-18736214D01*
X6626786Y-18721929D01*
X6641071Y-18707643D01*
X6641071Y-18736214D01*
X6941071Y-18736214D02*
X6769643Y-18736214D01*
X6855357Y-18736214D02*
X6855357Y-18436214D01*
X6826786Y-18479072D01*
X6798214Y-18507643D01*
X6769643Y-18521929D01*
X7198214Y-18436214D02*
X7141071Y-18436214D01*
X7112500Y-18450500D01*
X7098214Y-18464786D01*
X7069643Y-18507643D01*
X7055357Y-18564786D01*
X7055357Y-18679072D01*
X7069643Y-18707643D01*
X7083928Y-18721929D01*
X7112500Y-18736214D01*
X7169643Y-18736214D01*
X7198214Y-18721929D01*
X7212500Y-18707643D01*
X7226786Y-18679072D01*
X7226786Y-18607643D01*
X7212500Y-18579072D01*
X7198214Y-18564786D01*
X7169643Y-18550500D01*
X7112500Y-18550500D01*
X7083928Y-18564786D01*
X7069643Y-18579072D01*
X7055357Y-18607643D01*
X7369643Y-18736214D02*
X7426786Y-18736214D01*
X7455357Y-18721929D01*
X7469643Y-18707643D01*
X7498214Y-18664786D01*
X7512500Y-18607643D01*
X7512500Y-18493357D01*
X7498214Y-18464786D01*
X7483928Y-18450500D01*
X7455357Y-18436214D01*
X7398214Y-18436214D01*
X7369643Y-18450500D01*
X7355357Y-18464786D01*
X7341071Y-18493357D01*
X7341071Y-18564786D01*
X7355357Y-18593357D01*
X7369643Y-18607643D01*
X7398214Y-18621929D01*
X7455357Y-18621929D01*
X7483928Y-18607643D01*
X7498214Y-18593357D01*
X7512500Y-18564786D01*
X7626786Y-18436214D02*
X7626786Y-18493357D01*
X7741071Y-18436214D02*
X7741071Y-18493357D01*
X8183928Y-18850500D02*
X8169643Y-18836214D01*
X8141071Y-18793357D01*
X8126786Y-18764786D01*
X8112500Y-18721929D01*
X8098214Y-18650500D01*
X8098214Y-18593357D01*
X8112500Y-18521929D01*
X8126786Y-18479072D01*
X8141071Y-18450500D01*
X8169643Y-18407643D01*
X8183928Y-18393357D01*
X8455357Y-18736214D02*
X8283928Y-18736214D01*
X8369643Y-18736214D02*
X8369643Y-18436214D01*
X8341071Y-18479072D01*
X8312500Y-18507643D01*
X8283928Y-18521929D01*
X8641071Y-18436214D02*
X8669643Y-18436214D01*
X8698214Y-18450500D01*
X8712500Y-18464786D01*
X8726786Y-18493357D01*
X8741071Y-18550500D01*
X8741071Y-18621929D01*
X8726786Y-18679072D01*
X8712500Y-18707643D01*
X8698214Y-18721929D01*
X8669643Y-18736214D01*
X8641071Y-18736214D01*
X8612500Y-18721929D01*
X8598214Y-18707643D01*
X8583928Y-18679072D01*
X8569643Y-18621929D01*
X8569643Y-18550500D01*
X8583928Y-18493357D01*
X8598214Y-18464786D01*
X8612500Y-18450500D01*
X8641071Y-18436214D01*
X9098214Y-18736214D02*
X9098214Y-18436214D01*
X9226786Y-18736214D02*
X9226786Y-18579072D01*
X9212500Y-18550500D01*
X9183928Y-18536214D01*
X9141071Y-18536214D01*
X9112500Y-18550500D01*
X9098214Y-18564786D01*
X9412500Y-18736214D02*
X9383928Y-18721929D01*
X9369643Y-18707643D01*
X9355357Y-18679072D01*
X9355357Y-18593357D01*
X9369643Y-18564786D01*
X9383928Y-18550500D01*
X9412500Y-18536214D01*
X9455357Y-18536214D01*
X9483928Y-18550500D01*
X9498214Y-18564786D01*
X9512500Y-18593357D01*
X9512500Y-18679072D01*
X9498214Y-18707643D01*
X9483928Y-18721929D01*
X9455357Y-18736214D01*
X9412500Y-18736214D01*
X9683928Y-18736214D02*
X9655357Y-18721929D01*
X9641071Y-18693357D01*
X9641071Y-18436214D01*
X9912500Y-18721929D02*
X9883928Y-18736214D01*
X9826786Y-18736214D01*
X9798214Y-18721929D01*
X9783928Y-18693357D01*
X9783928Y-18579072D01*
X9798214Y-18550500D01*
X9826786Y-18536214D01*
X9883928Y-18536214D01*
X9912500Y-18550500D01*
X9926786Y-18579072D01*
X9926786Y-18607643D01*
X9783928Y-18636214D01*
X10041071Y-18721929D02*
X10069643Y-18736214D01*
X10126786Y-18736214D01*
X10155357Y-18721929D01*
X10169643Y-18693357D01*
X10169643Y-18679072D01*
X10155357Y-18650500D01*
X10126786Y-18636214D01*
X10083928Y-18636214D01*
X10055357Y-18621929D01*
X10041071Y-18593357D01*
X10041071Y-18579072D01*
X10055357Y-18550500D01*
X10083928Y-18536214D01*
X10126786Y-18536214D01*
X10155357Y-18550500D01*
X10269643Y-18850500D02*
X10283928Y-18836214D01*
X10312500Y-18793357D01*
X10326786Y-18764786D01*
X10341071Y-18721929D01*
X10355357Y-18650500D01*
X10355357Y-18593357D01*
X10341071Y-18521929D01*
X10326786Y-18479072D01*
X10312500Y-18450500D01*
X10283928Y-18407643D01*
X10269643Y-18393357D01*
M02*
