%FSLAX45Y45*%
G04 Gerber Fmt 4.5, Leading zero omitted, Abs format (unit mm)*
G04 Created by KiCad (PCBNEW 5.1.5+dfsg1-2~bpo10+1) date 2020-01-05 16:28:06*
%MOMM*%
%LPD*%
G04 APERTURE LIST*
%TA.AperFunction,Profile*%
%ADD10C,0.050000*%
%TD*%
%ADD11C,0.200000*%
%ADD12C,0.300000*%
G04 APERTURE END LIST*
D10*
X11525000Y-7850000D02*
G75*
G02X11575000Y-7900000I0J-50000D01*
G01*
X10425000Y-7900000D02*
G75*
G02X10475000Y-7850000I50000J0D01*
G01*
X10900000Y-4400000D02*
X10900000Y-5100000D01*
X11100000Y-5100000D02*
G75*
G02X10900000Y-5100000I-100000J0D01*
G01*
X10900000Y-4400000D02*
G75*
G02X11100000Y-4400000I100000J0D01*
G01*
X11100000Y-4400000D02*
X11100000Y-5100000D01*
X11100000Y-6250000D02*
G75*
G02X10900000Y-6250000I-100000J0D01*
G01*
X10900000Y-5550000D02*
X10900000Y-6250000D01*
X11100000Y-5550000D02*
X11100000Y-6250000D01*
X10900000Y-5550000D02*
G75*
G02X11100000Y-5550000I100000J0D01*
G01*
X10900000Y-6700000D02*
G75*
G02X11100000Y-6700000I100000J0D01*
G01*
X11100000Y-7400000D02*
G75*
G02X10900000Y-7400000I-100000J0D01*
G01*
X11100000Y-6700000D02*
X11100000Y-7400000D01*
X10900000Y-6700000D02*
X10900000Y-7400000D01*
X11575000Y-7900000D02*
X11575000Y-16000000D01*
X10475000Y-7850000D02*
X11525000Y-7850000D01*
X10425000Y-16000000D02*
X10425000Y-7900000D01*
X11575000Y-16000000D02*
X22500000Y-16000000D01*
X22500000Y-4000000D02*
X3500000Y-4000000D01*
X22500000Y-16000000D02*
X22500000Y-4000000D01*
X3500000Y-16000000D02*
X10425000Y-16000000D01*
X3500000Y-4000000D02*
X3500000Y-16000000D01*
D11*
X3655000Y-5705000D02*
X3695000Y-5745000D01*
X3695000Y-5705000D02*
X3655000Y-5745000D01*
X3655000Y-6905000D02*
X3695000Y-6945000D01*
X3695000Y-6905000D02*
X3655000Y-6945000D01*
X3655000Y-7505000D02*
X3695000Y-7545000D01*
X3695000Y-7505000D02*
X3655000Y-7545000D01*
X3655000Y-8105000D02*
X3695000Y-8145000D01*
X3695000Y-8105000D02*
X3655000Y-8145000D01*
X3655000Y-8705000D02*
X3695000Y-8745000D01*
X3695000Y-8705000D02*
X3655000Y-8745000D01*
X3655000Y-9305000D02*
X3695000Y-9345000D01*
X3695000Y-9305000D02*
X3655000Y-9345000D01*
X3655000Y-10655000D02*
X3695000Y-10695000D01*
X3695000Y-10655000D02*
X3655000Y-10695000D01*
X3805000Y-5405000D02*
X3845000Y-5445000D01*
X3845000Y-5405000D02*
X3805000Y-5445000D01*
X3805000Y-6005000D02*
X3845000Y-6045000D01*
X3845000Y-6005000D02*
X3805000Y-6045000D01*
X3805000Y-7205000D02*
X3845000Y-7245000D01*
X3845000Y-7205000D02*
X3805000Y-7245000D01*
X3805000Y-7805000D02*
X3845000Y-7845000D01*
X3845000Y-7805000D02*
X3805000Y-7845000D01*
X3805000Y-9005000D02*
X3845000Y-9045000D01*
X3845000Y-9005000D02*
X3805000Y-9045000D01*
X3805000Y-9605000D02*
X3845000Y-9645000D01*
X3845000Y-9605000D02*
X3805000Y-9645000D01*
X3805000Y-10355000D02*
X3845000Y-10395000D01*
X3845000Y-10355000D02*
X3805000Y-10395000D01*
X3805000Y-10955000D02*
X3845000Y-10995000D01*
X3845000Y-10955000D02*
X3805000Y-10995000D01*
X3955000Y-5705000D02*
X3995000Y-5745000D01*
X3995000Y-5705000D02*
X3955000Y-5745000D01*
X3955000Y-6905000D02*
X3995000Y-6945000D01*
X3995000Y-6905000D02*
X3955000Y-6945000D01*
X3955000Y-7505000D02*
X3995000Y-7545000D01*
X3995000Y-7505000D02*
X3955000Y-7545000D01*
X3955000Y-8105000D02*
X3995000Y-8145000D01*
X3995000Y-8105000D02*
X3955000Y-8145000D01*
X3955000Y-9305000D02*
X3995000Y-9345000D01*
X3995000Y-9305000D02*
X3955000Y-9345000D01*
X3955000Y-10655000D02*
X3995000Y-10695000D01*
X3995000Y-10655000D02*
X3955000Y-10695000D01*
X4105000Y-5405000D02*
X4145000Y-5445000D01*
X4145000Y-5405000D02*
X4105000Y-5445000D01*
X4105000Y-6005000D02*
X4145000Y-6045000D01*
X4145000Y-6005000D02*
X4105000Y-6045000D01*
X4105000Y-7205000D02*
X4145000Y-7245000D01*
X4145000Y-7205000D02*
X4105000Y-7245000D01*
X4105000Y-7805000D02*
X4145000Y-7845000D01*
X4145000Y-7805000D02*
X4105000Y-7845000D01*
X4105000Y-9005000D02*
X4145000Y-9045000D01*
X4145000Y-9005000D02*
X4105000Y-9045000D01*
X4105000Y-9605000D02*
X4145000Y-9645000D01*
X4145000Y-9605000D02*
X4105000Y-9645000D01*
X4105000Y-10355000D02*
X4145000Y-10395000D01*
X4145000Y-10355000D02*
X4105000Y-10395000D01*
X4105000Y-10955000D02*
X4145000Y-10995000D01*
X4145000Y-10955000D02*
X4105000Y-10995000D01*
X4255000Y-5705000D02*
X4295000Y-5745000D01*
X4295000Y-5705000D02*
X4255000Y-5745000D01*
X4255000Y-5705000D02*
X4295000Y-5745000D01*
X4295000Y-5705000D02*
X4255000Y-5745000D01*
X4255000Y-6905000D02*
X4295000Y-6945000D01*
X4295000Y-6905000D02*
X4255000Y-6945000D01*
X4255000Y-7505000D02*
X4295000Y-7545000D01*
X4295000Y-7505000D02*
X4255000Y-7545000D01*
X4255000Y-8105000D02*
X4295000Y-8145000D01*
X4295000Y-8105000D02*
X4255000Y-8145000D01*
X4255000Y-8705000D02*
X4295000Y-8745000D01*
X4295000Y-8705000D02*
X4255000Y-8745000D01*
X4255000Y-9305000D02*
X4295000Y-9345000D01*
X4295000Y-9305000D02*
X4255000Y-9345000D01*
X4255000Y-10655000D02*
X4295000Y-10695000D01*
X4295000Y-10655000D02*
X4255000Y-10695000D01*
X4405000Y-5405000D02*
X4445000Y-5445000D01*
X4445000Y-5405000D02*
X4405000Y-5445000D01*
X4405000Y-6005000D02*
X4445000Y-6045000D01*
X4445000Y-6005000D02*
X4405000Y-6045000D01*
X4405000Y-10355000D02*
X4445000Y-10395000D01*
X4445000Y-10355000D02*
X4405000Y-10395000D01*
X4405000Y-10955000D02*
X4445000Y-10995000D01*
X4445000Y-10955000D02*
X4405000Y-10995000D01*
X4555000Y-5705000D02*
X4595000Y-5745000D01*
X4595000Y-5705000D02*
X4555000Y-5745000D01*
X4555000Y-5705000D02*
X4595000Y-5745000D01*
X4595000Y-5705000D02*
X4555000Y-5745000D01*
X4705000Y-5405000D02*
X4745000Y-5445000D01*
X4745000Y-5405000D02*
X4705000Y-5445000D01*
X4705000Y-6005000D02*
X4745000Y-6045000D01*
X4745000Y-6005000D02*
X4705000Y-6045000D01*
X4855000Y-4505000D02*
X4895000Y-4545000D01*
X4895000Y-4505000D02*
X4855000Y-4545000D01*
X4855000Y-5105000D02*
X4895000Y-5145000D01*
X4895000Y-5105000D02*
X4855000Y-5145000D01*
X4855000Y-5705000D02*
X4895000Y-5745000D01*
X4895000Y-5705000D02*
X4855000Y-5745000D01*
X4855000Y-5705000D02*
X4895000Y-5745000D01*
X4895000Y-5705000D02*
X4855000Y-5745000D01*
X5005000Y-4805000D02*
X5045000Y-4845000D01*
X5045000Y-4805000D02*
X5005000Y-4845000D01*
X5005000Y-8405000D02*
X5045000Y-8445000D01*
X5045000Y-8405000D02*
X5005000Y-8445000D01*
X5005000Y-9005000D02*
X5045000Y-9045000D01*
X5045000Y-9005000D02*
X5005000Y-9045000D01*
X5155000Y-4505000D02*
X5195000Y-4545000D01*
X5195000Y-4505000D02*
X5155000Y-4545000D01*
X5155000Y-5105000D02*
X5195000Y-5145000D01*
X5195000Y-5105000D02*
X5155000Y-5145000D01*
X5155000Y-8705000D02*
X5195000Y-8745000D01*
X5195000Y-8705000D02*
X5155000Y-8745000D01*
X5155000Y-9305000D02*
X5195000Y-9345000D01*
X5195000Y-9305000D02*
X5155000Y-9345000D01*
X5155000Y-10655000D02*
X5195000Y-10695000D01*
X5195000Y-10655000D02*
X5155000Y-10695000D01*
X5155000Y-11255000D02*
X5195000Y-11295000D01*
X5195000Y-11255000D02*
X5155000Y-11295000D01*
X5305000Y-4805000D02*
X5345000Y-4845000D01*
X5345000Y-4805000D02*
X5305000Y-4845000D01*
X5305000Y-8405000D02*
X5345000Y-8445000D01*
X5345000Y-8405000D02*
X5305000Y-8445000D01*
X5305000Y-9005000D02*
X5345000Y-9045000D01*
X5345000Y-9005000D02*
X5305000Y-9045000D01*
X5305000Y-10955000D02*
X5345000Y-10995000D01*
X5345000Y-10955000D02*
X5305000Y-10995000D01*
X5330000Y-13630000D02*
X5370000Y-13670000D01*
X5370000Y-13630000D02*
X5330000Y-13670000D01*
X5330000Y-14680000D02*
X5370000Y-14720000D01*
X5370000Y-14680000D02*
X5330000Y-14720000D01*
X5455000Y-4505000D02*
X5495000Y-4545000D01*
X5495000Y-4505000D02*
X5455000Y-4545000D01*
X5455000Y-8705000D02*
X5495000Y-8745000D01*
X5495000Y-8705000D02*
X5455000Y-8745000D01*
X5455000Y-9305000D02*
X5495000Y-9345000D01*
X5495000Y-9305000D02*
X5455000Y-9345000D01*
X5455000Y-10655000D02*
X5495000Y-10695000D01*
X5495000Y-10655000D02*
X5455000Y-10695000D01*
X5455000Y-11255000D02*
X5495000Y-11295000D01*
X5495000Y-11255000D02*
X5455000Y-11295000D01*
X5605000Y-4805000D02*
X5645000Y-4845000D01*
X5645000Y-4805000D02*
X5605000Y-4845000D01*
X5605000Y-9005000D02*
X5645000Y-9045000D01*
X5645000Y-9005000D02*
X5605000Y-9045000D01*
X5605000Y-10955000D02*
X5645000Y-10995000D01*
X5645000Y-10955000D02*
X5605000Y-10995000D01*
X5630000Y-13630000D02*
X5670000Y-13670000D01*
X5670000Y-13630000D02*
X5630000Y-13670000D01*
X5630000Y-14680000D02*
X5670000Y-14720000D01*
X5670000Y-14680000D02*
X5630000Y-14720000D01*
X5755000Y-4505000D02*
X5795000Y-4545000D01*
X5795000Y-4505000D02*
X5755000Y-4545000D01*
X5755000Y-8705000D02*
X5795000Y-8745000D01*
X5795000Y-8705000D02*
X5755000Y-8745000D01*
X5755000Y-11255000D02*
X5795000Y-11295000D01*
X5795000Y-11255000D02*
X5755000Y-11295000D01*
X5830000Y-13505000D02*
X5870000Y-13545000D01*
X5870000Y-13505000D02*
X5830000Y-13545000D01*
X5830000Y-14555000D02*
X5870000Y-14595000D01*
X5870000Y-14555000D02*
X5830000Y-14595000D01*
X5905000Y-4805000D02*
X5945000Y-4845000D01*
X5945000Y-4805000D02*
X5905000Y-4845000D01*
X5905000Y-11555000D02*
X5945000Y-11595000D01*
X5945000Y-11555000D02*
X5905000Y-11595000D01*
X6055000Y-4505000D02*
X6095000Y-4545000D01*
X6095000Y-4505000D02*
X6055000Y-4545000D01*
X6055000Y-5105000D02*
X6095000Y-5145000D01*
X6095000Y-5105000D02*
X6055000Y-5145000D01*
X6055000Y-8105000D02*
X6095000Y-8145000D01*
X6095000Y-8105000D02*
X6055000Y-8145000D01*
X6055000Y-8705000D02*
X6095000Y-8745000D01*
X6095000Y-8705000D02*
X6055000Y-8745000D01*
X6055000Y-11255000D02*
X6095000Y-11295000D01*
X6095000Y-11255000D02*
X6055000Y-11295000D01*
X6205000Y-4805000D02*
X6245000Y-4845000D01*
X6245000Y-4805000D02*
X6205000Y-4845000D01*
X6205000Y-4805000D02*
X6245000Y-4845000D01*
X6245000Y-4805000D02*
X6205000Y-4845000D01*
X6205000Y-5405000D02*
X6245000Y-5445000D01*
X6245000Y-5405000D02*
X6205000Y-5445000D01*
X6205000Y-6005000D02*
X6245000Y-6045000D01*
X6245000Y-6005000D02*
X6205000Y-6045000D01*
X6205000Y-6605000D02*
X6245000Y-6645000D01*
X6245000Y-6605000D02*
X6205000Y-6645000D01*
X6205000Y-7205000D02*
X6245000Y-7245000D01*
X6245000Y-7205000D02*
X6205000Y-7245000D01*
X6205000Y-7805000D02*
X6245000Y-7845000D01*
X6245000Y-7805000D02*
X6205000Y-7845000D01*
X6205000Y-8405000D02*
X6245000Y-8445000D01*
X6245000Y-8405000D02*
X6205000Y-8445000D01*
X6205000Y-11555000D02*
X6245000Y-11595000D01*
X6245000Y-11555000D02*
X6205000Y-11595000D01*
X6280000Y-13505000D02*
X6320000Y-13545000D01*
X6320000Y-13505000D02*
X6280000Y-13545000D01*
X6280000Y-14530000D02*
X6320000Y-14570000D01*
X6320000Y-14530000D02*
X6280000Y-14570000D01*
X6355000Y-4505000D02*
X6395000Y-4545000D01*
X6395000Y-4505000D02*
X6355000Y-4545000D01*
X6355000Y-5105000D02*
X6395000Y-5145000D01*
X6395000Y-5105000D02*
X6355000Y-5145000D01*
X6355000Y-5705000D02*
X6395000Y-5745000D01*
X6395000Y-5705000D02*
X6355000Y-5745000D01*
X6355000Y-6305000D02*
X6395000Y-6345000D01*
X6395000Y-6305000D02*
X6355000Y-6345000D01*
X6355000Y-6905000D02*
X6395000Y-6945000D01*
X6395000Y-6905000D02*
X6355000Y-6945000D01*
X6355000Y-7505000D02*
X6395000Y-7545000D01*
X6395000Y-7505000D02*
X6355000Y-7545000D01*
X6355000Y-8105000D02*
X6395000Y-8145000D01*
X6395000Y-8105000D02*
X6355000Y-8145000D01*
X6355000Y-8705000D02*
X6395000Y-8745000D01*
X6395000Y-8705000D02*
X6355000Y-8745000D01*
X6355000Y-11255000D02*
X6395000Y-11295000D01*
X6395000Y-11255000D02*
X6355000Y-11295000D01*
X6355000Y-11855000D02*
X6395000Y-11895000D01*
X6395000Y-11855000D02*
X6355000Y-11895000D01*
X6480000Y-14705000D02*
X6520000Y-14745000D01*
X6520000Y-14705000D02*
X6480000Y-14745000D01*
X6505000Y-4805000D02*
X6545000Y-4845000D01*
X6545000Y-4805000D02*
X6505000Y-4845000D01*
X6505000Y-5405000D02*
X6545000Y-5445000D01*
X6545000Y-5405000D02*
X6505000Y-5445000D01*
X6505000Y-6005000D02*
X6545000Y-6045000D01*
X6545000Y-6005000D02*
X6505000Y-6045000D01*
X6505000Y-6605000D02*
X6545000Y-6645000D01*
X6545000Y-6605000D02*
X6505000Y-6645000D01*
X6505000Y-7205000D02*
X6545000Y-7245000D01*
X6545000Y-7205000D02*
X6505000Y-7245000D01*
X6505000Y-7805000D02*
X6545000Y-7845000D01*
X6545000Y-7805000D02*
X6505000Y-7845000D01*
X6505000Y-8405000D02*
X6545000Y-8445000D01*
X6545000Y-8405000D02*
X6505000Y-8445000D01*
X6505000Y-11555000D02*
X6545000Y-11595000D01*
X6545000Y-11555000D02*
X6505000Y-11595000D01*
X6505000Y-12155000D02*
X6545000Y-12195000D01*
X6545000Y-12155000D02*
X6505000Y-12195000D01*
X6630000Y-13155000D02*
X6670000Y-13195000D01*
X6670000Y-13155000D02*
X6630000Y-13195000D01*
X6655000Y-4505000D02*
X6695000Y-4545000D01*
X6695000Y-4505000D02*
X6655000Y-4545000D01*
X6655000Y-5105000D02*
X6695000Y-5145000D01*
X6695000Y-5105000D02*
X6655000Y-5145000D01*
X6655000Y-5705000D02*
X6695000Y-5745000D01*
X6695000Y-5705000D02*
X6655000Y-5745000D01*
X6655000Y-6305000D02*
X6695000Y-6345000D01*
X6695000Y-6305000D02*
X6655000Y-6345000D01*
X6655000Y-6905000D02*
X6695000Y-6945000D01*
X6695000Y-6905000D02*
X6655000Y-6945000D01*
X6655000Y-7505000D02*
X6695000Y-7545000D01*
X6695000Y-7505000D02*
X6655000Y-7545000D01*
X6655000Y-8105000D02*
X6695000Y-8145000D01*
X6695000Y-8105000D02*
X6655000Y-8145000D01*
X6655000Y-8705000D02*
X6695000Y-8745000D01*
X6695000Y-8705000D02*
X6655000Y-8745000D01*
X6655000Y-11255000D02*
X6695000Y-11295000D01*
X6695000Y-11255000D02*
X6655000Y-11295000D01*
X6655000Y-11855000D02*
X6695000Y-11895000D01*
X6695000Y-11855000D02*
X6655000Y-11895000D01*
X6655000Y-12455000D02*
X6695000Y-12495000D01*
X6695000Y-12455000D02*
X6655000Y-12495000D01*
X6805000Y-4805000D02*
X6845000Y-4845000D01*
X6845000Y-4805000D02*
X6805000Y-4845000D01*
X6805000Y-5405000D02*
X6845000Y-5445000D01*
X6845000Y-5405000D02*
X6805000Y-5445000D01*
X6805000Y-6005000D02*
X6845000Y-6045000D01*
X6845000Y-6005000D02*
X6805000Y-6045000D01*
X6805000Y-6605000D02*
X6845000Y-6645000D01*
X6845000Y-6605000D02*
X6805000Y-6645000D01*
X6805000Y-7205000D02*
X6845000Y-7245000D01*
X6845000Y-7205000D02*
X6805000Y-7245000D01*
X6805000Y-7805000D02*
X6845000Y-7845000D01*
X6845000Y-7805000D02*
X6805000Y-7845000D01*
X6805000Y-8405000D02*
X6845000Y-8445000D01*
X6845000Y-8405000D02*
X6805000Y-8445000D01*
X6805000Y-11555000D02*
X6845000Y-11595000D01*
X6845000Y-11555000D02*
X6805000Y-11595000D01*
X6805000Y-12155000D02*
X6845000Y-12195000D01*
X6845000Y-12155000D02*
X6805000Y-12195000D01*
X6805000Y-12755000D02*
X6845000Y-12795000D01*
X6845000Y-12755000D02*
X6805000Y-12795000D01*
X6805000Y-12755000D02*
X6845000Y-12795000D01*
X6845000Y-12755000D02*
X6805000Y-12795000D01*
X6955000Y-4505000D02*
X6995000Y-4545000D01*
X6995000Y-4505000D02*
X6955000Y-4545000D01*
X6955000Y-5105000D02*
X6995000Y-5145000D01*
X6995000Y-5105000D02*
X6955000Y-5145000D01*
X6955000Y-5705000D02*
X6995000Y-5745000D01*
X6995000Y-5705000D02*
X6955000Y-5745000D01*
X6955000Y-6305000D02*
X6995000Y-6345000D01*
X6995000Y-6305000D02*
X6955000Y-6345000D01*
X6955000Y-6905000D02*
X6995000Y-6945000D01*
X6995000Y-6905000D02*
X6955000Y-6945000D01*
X6955000Y-7505000D02*
X6995000Y-7545000D01*
X6995000Y-7505000D02*
X6955000Y-7545000D01*
X6955000Y-8105000D02*
X6995000Y-8145000D01*
X6995000Y-8105000D02*
X6955000Y-8145000D01*
X6955000Y-8705000D02*
X6995000Y-8745000D01*
X6995000Y-8705000D02*
X6955000Y-8745000D01*
X6955000Y-12455000D02*
X6995000Y-12495000D01*
X6995000Y-12455000D02*
X6955000Y-12495000D01*
X7005000Y-13655000D02*
X7045000Y-13695000D01*
X7045000Y-13655000D02*
X7005000Y-13695000D01*
X7005000Y-14205000D02*
X7045000Y-14245000D01*
X7045000Y-14205000D02*
X7005000Y-14245000D01*
X7105000Y-4805000D02*
X7145000Y-4845000D01*
X7145000Y-4805000D02*
X7105000Y-4845000D01*
X7105000Y-5405000D02*
X7145000Y-5445000D01*
X7145000Y-5405000D02*
X7105000Y-5445000D01*
X7105000Y-6005000D02*
X7145000Y-6045000D01*
X7145000Y-6005000D02*
X7105000Y-6045000D01*
X7105000Y-6605000D02*
X7145000Y-6645000D01*
X7145000Y-6605000D02*
X7105000Y-6645000D01*
X7105000Y-7205000D02*
X7145000Y-7245000D01*
X7145000Y-7205000D02*
X7105000Y-7245000D01*
X7105000Y-7805000D02*
X7145000Y-7845000D01*
X7145000Y-7805000D02*
X7105000Y-7845000D01*
X7105000Y-8405000D02*
X7145000Y-8445000D01*
X7145000Y-8405000D02*
X7105000Y-8445000D01*
X7105000Y-12755000D02*
X7145000Y-12795000D01*
X7145000Y-12755000D02*
X7105000Y-12795000D01*
X7255000Y-4505000D02*
X7295000Y-4545000D01*
X7295000Y-4505000D02*
X7255000Y-4545000D01*
X7255000Y-5105000D02*
X7295000Y-5145000D01*
X7295000Y-5105000D02*
X7255000Y-5145000D01*
X7255000Y-5705000D02*
X7295000Y-5745000D01*
X7295000Y-5705000D02*
X7255000Y-5745000D01*
X7255000Y-6305000D02*
X7295000Y-6345000D01*
X7295000Y-6305000D02*
X7255000Y-6345000D01*
X7255000Y-6905000D02*
X7295000Y-6945000D01*
X7295000Y-6905000D02*
X7255000Y-6945000D01*
X7255000Y-7505000D02*
X7295000Y-7545000D01*
X7295000Y-7505000D02*
X7255000Y-7545000D01*
X7255000Y-8105000D02*
X7295000Y-8145000D01*
X7295000Y-8105000D02*
X7255000Y-8145000D01*
X7255000Y-8705000D02*
X7295000Y-8745000D01*
X7295000Y-8705000D02*
X7255000Y-8745000D01*
X7255000Y-12455000D02*
X7295000Y-12495000D01*
X7295000Y-12455000D02*
X7255000Y-12495000D01*
X7355000Y-11405000D02*
X7395000Y-11445000D01*
X7395000Y-11405000D02*
X7355000Y-11445000D01*
X7355000Y-11630000D02*
X7395000Y-11670000D01*
X7395000Y-11630000D02*
X7355000Y-11670000D01*
X7355000Y-11855000D02*
X7395000Y-11895000D01*
X7395000Y-11855000D02*
X7355000Y-11895000D01*
X7405000Y-4805000D02*
X7445000Y-4845000D01*
X7445000Y-4805000D02*
X7405000Y-4845000D01*
X7405000Y-6005000D02*
X7445000Y-6045000D01*
X7445000Y-6005000D02*
X7405000Y-6045000D01*
X7405000Y-7205000D02*
X7445000Y-7245000D01*
X7445000Y-7205000D02*
X7405000Y-7245000D01*
X7405000Y-7805000D02*
X7445000Y-7845000D01*
X7445000Y-7805000D02*
X7405000Y-7845000D01*
X7405000Y-8405000D02*
X7445000Y-8445000D01*
X7445000Y-8405000D02*
X7405000Y-8445000D01*
X7405000Y-12755000D02*
X7445000Y-12795000D01*
X7445000Y-12755000D02*
X7405000Y-12795000D01*
X7480000Y-13980000D02*
X7520000Y-14020000D01*
X7520000Y-13980000D02*
X7480000Y-14020000D01*
X7555000Y-4505000D02*
X7595000Y-4545000D01*
X7595000Y-4505000D02*
X7555000Y-4545000D01*
X7555000Y-5705000D02*
X7595000Y-5745000D01*
X7595000Y-5705000D02*
X7555000Y-5745000D01*
X7555000Y-6305000D02*
X7595000Y-6345000D01*
X7595000Y-6305000D02*
X7555000Y-6345000D01*
X7555000Y-7505000D02*
X7595000Y-7545000D01*
X7595000Y-7505000D02*
X7555000Y-7545000D01*
X7555000Y-8105000D02*
X7595000Y-8145000D01*
X7595000Y-8105000D02*
X7555000Y-8145000D01*
X7555000Y-8705000D02*
X7595000Y-8745000D01*
X7595000Y-8705000D02*
X7555000Y-8745000D01*
X7555000Y-12455000D02*
X7595000Y-12495000D01*
X7595000Y-12455000D02*
X7555000Y-12495000D01*
X7580000Y-11305000D02*
X7620000Y-11345000D01*
X7620000Y-11305000D02*
X7580000Y-11345000D01*
X7580000Y-11530000D02*
X7620000Y-11570000D01*
X7620000Y-11530000D02*
X7580000Y-11570000D01*
X7580000Y-11755000D02*
X7620000Y-11795000D01*
X7620000Y-11755000D02*
X7580000Y-11795000D01*
X7705000Y-4805000D02*
X7745000Y-4845000D01*
X7745000Y-4805000D02*
X7705000Y-4845000D01*
X7705000Y-7205000D02*
X7745000Y-7245000D01*
X7745000Y-7205000D02*
X7705000Y-7245000D01*
X7705000Y-7805000D02*
X7745000Y-7845000D01*
X7745000Y-7805000D02*
X7705000Y-7845000D01*
X7705000Y-12755000D02*
X7745000Y-12795000D01*
X7745000Y-12755000D02*
X7705000Y-12795000D01*
X7855000Y-6905000D02*
X7895000Y-6945000D01*
X7895000Y-6905000D02*
X7855000Y-6945000D01*
X7855000Y-7505000D02*
X7895000Y-7545000D01*
X7895000Y-7505000D02*
X7855000Y-7545000D01*
X7855000Y-12455000D02*
X7895000Y-12495000D01*
X7895000Y-12455000D02*
X7855000Y-12495000D01*
X8005000Y-7205000D02*
X8045000Y-7245000D01*
X8045000Y-7205000D02*
X8005000Y-7245000D01*
X8005000Y-7805000D02*
X8045000Y-7845000D01*
X8045000Y-7805000D02*
X8005000Y-7845000D01*
X8005000Y-12755000D02*
X8045000Y-12795000D01*
X8045000Y-12755000D02*
X8005000Y-12795000D01*
X8005000Y-12755000D02*
X8045000Y-12795000D01*
X8045000Y-12755000D02*
X8005000Y-12795000D01*
X8155000Y-6905000D02*
X8195000Y-6945000D01*
X8195000Y-6905000D02*
X8155000Y-6945000D01*
X8155000Y-7505000D02*
X8195000Y-7545000D01*
X8195000Y-7505000D02*
X8155000Y-7545000D01*
X8155000Y-12455000D02*
X8195000Y-12495000D01*
X8195000Y-12455000D02*
X8155000Y-12495000D01*
X8305000Y-7205000D02*
X8345000Y-7245000D01*
X8345000Y-7205000D02*
X8305000Y-7245000D01*
X8305000Y-7805000D02*
X8345000Y-7845000D01*
X8345000Y-7805000D02*
X8305000Y-7845000D01*
X8305000Y-12755000D02*
X8345000Y-12795000D01*
X8345000Y-12755000D02*
X8305000Y-12795000D01*
X8455000Y-6905000D02*
X8495000Y-6945000D01*
X8495000Y-6905000D02*
X8455000Y-6945000D01*
X8455000Y-7505000D02*
X8495000Y-7545000D01*
X8495000Y-7505000D02*
X8455000Y-7545000D01*
X8455000Y-14330000D02*
X8495000Y-14370000D01*
X8495000Y-14330000D02*
X8455000Y-14370000D01*
X8605000Y-7205000D02*
X8645000Y-7245000D01*
X8645000Y-7205000D02*
X8605000Y-7245000D01*
X8755000Y-6905000D02*
X8795000Y-6945000D01*
X8795000Y-6905000D02*
X8755000Y-6945000D01*
X8830000Y-12580000D02*
X8870000Y-12620000D01*
X8870000Y-12580000D02*
X8830000Y-12620000D01*
X8905000Y-7205000D02*
X8945000Y-7245000D01*
X8945000Y-7205000D02*
X8905000Y-7245000D01*
X8955000Y-13130000D02*
X8995000Y-13170000D01*
X8995000Y-13130000D02*
X8955000Y-13170000D01*
X8980000Y-12850000D02*
X9020000Y-12890000D01*
X9020000Y-12850000D02*
X8980000Y-12890000D01*
X8980000Y-14630000D02*
X9020000Y-14670000D01*
X9020000Y-14630000D02*
X8980000Y-14670000D01*
X9055000Y-6905000D02*
X9095000Y-6945000D01*
X9095000Y-6905000D02*
X9055000Y-6945000D01*
X9130000Y-12580000D02*
X9170000Y-12620000D01*
X9170000Y-12580000D02*
X9130000Y-12620000D01*
X9180000Y-13130000D02*
X9220000Y-13170000D01*
X9220000Y-13130000D02*
X9180000Y-13170000D01*
X9205000Y-7205000D02*
X9245000Y-7245000D01*
X9245000Y-7205000D02*
X9205000Y-7245000D01*
X9280000Y-12850000D02*
X9320000Y-12890000D01*
X9320000Y-12850000D02*
X9280000Y-12890000D01*
X9355000Y-6905000D02*
X9395000Y-6945000D01*
X9395000Y-6905000D02*
X9355000Y-6945000D01*
X9430000Y-12580000D02*
X9470000Y-12620000D01*
X9470000Y-12580000D02*
X9430000Y-12620000D01*
X9430000Y-14780000D02*
X9470000Y-14820000D01*
X9470000Y-14780000D02*
X9430000Y-14820000D01*
X9505000Y-7205000D02*
X9545000Y-7245000D01*
X9545000Y-7205000D02*
X9505000Y-7245000D01*
X9580000Y-13130000D02*
X9620000Y-13170000D01*
X9620000Y-13130000D02*
X9580000Y-13170000D01*
X9580000Y-14580000D02*
X9620000Y-14620000D01*
X9620000Y-14580000D02*
X9580000Y-14620000D01*
X9655000Y-6905000D02*
X9695000Y-6945000D01*
X9695000Y-6905000D02*
X9655000Y-6945000D01*
X9805000Y-7205000D02*
X9845000Y-7245000D01*
X9845000Y-7205000D02*
X9805000Y-7245000D01*
X9830000Y-7805000D02*
X9870000Y-7845000D01*
X9870000Y-7805000D02*
X9830000Y-7845000D01*
X9830000Y-8405000D02*
X9870000Y-8445000D01*
X9870000Y-8405000D02*
X9830000Y-8445000D01*
X9855000Y-11555000D02*
X9895000Y-11595000D01*
X9895000Y-11555000D02*
X9855000Y-11595000D01*
X9855000Y-11805000D02*
X9895000Y-11845000D01*
X9895000Y-11805000D02*
X9855000Y-11845000D01*
X9855000Y-12305000D02*
X9895000Y-12345000D01*
X9895000Y-12305000D02*
X9855000Y-12345000D01*
X9955000Y-6905000D02*
X9995000Y-6945000D01*
X9995000Y-6905000D02*
X9955000Y-6945000D01*
X9955000Y-7505000D02*
X9995000Y-7545000D01*
X9995000Y-7505000D02*
X9955000Y-7545000D01*
X9980000Y-8105000D02*
X10020000Y-8145000D01*
X10020000Y-8105000D02*
X9980000Y-8145000D01*
X9980000Y-12955000D02*
X10020000Y-12995000D01*
X10020000Y-12955000D02*
X9980000Y-12995000D01*
X10055000Y-13730000D02*
X10095000Y-13770000D01*
X10095000Y-13730000D02*
X10055000Y-13770000D01*
X10055000Y-13930000D02*
X10095000Y-13970000D01*
X10095000Y-13930000D02*
X10055000Y-13970000D01*
X10075000Y-11555000D02*
X10115000Y-11595000D01*
X10115000Y-11555000D02*
X10075000Y-11595000D01*
X10075000Y-11805000D02*
X10115000Y-11845000D01*
X10115000Y-11805000D02*
X10075000Y-11845000D01*
X10075000Y-12055000D02*
X10115000Y-12095000D01*
X10115000Y-12055000D02*
X10075000Y-12095000D01*
X10105000Y-7205000D02*
X10145000Y-7245000D01*
X10145000Y-7205000D02*
X10105000Y-7245000D01*
X10120000Y-12305000D02*
X10160000Y-12345000D01*
X10160000Y-12305000D02*
X10120000Y-12345000D01*
X10130000Y-7805000D02*
X10170000Y-7845000D01*
X10170000Y-7805000D02*
X10130000Y-7845000D01*
X10130000Y-8405000D02*
X10170000Y-8445000D01*
X10170000Y-8405000D02*
X10130000Y-8445000D01*
X10155000Y-12805000D02*
X10195000Y-12845000D01*
X10195000Y-12805000D02*
X10155000Y-12845000D01*
X10255000Y-7505000D02*
X10295000Y-7545000D01*
X10295000Y-7505000D02*
X10255000Y-7545000D01*
X10280000Y-8105000D02*
X10320000Y-8145000D01*
X10320000Y-8105000D02*
X10280000Y-8145000D01*
X10295000Y-11555000D02*
X10335000Y-11595000D01*
X10335000Y-11555000D02*
X10295000Y-11595000D01*
X10295000Y-11805000D02*
X10335000Y-11845000D01*
X10335000Y-11805000D02*
X10295000Y-11845000D01*
X10295000Y-12055000D02*
X10335000Y-12095000D01*
X10335000Y-12055000D02*
X10295000Y-12095000D01*
X11805000Y-8105000D02*
X11845000Y-8145000D01*
X11845000Y-8105000D02*
X11805000Y-8145000D01*
X11805000Y-11855000D02*
X11845000Y-11895000D01*
X11845000Y-11855000D02*
X11805000Y-11895000D01*
X11955000Y-8405000D02*
X11995000Y-8445000D01*
X11995000Y-8405000D02*
X11955000Y-8445000D01*
X11955000Y-11555000D02*
X11995000Y-11595000D01*
X11995000Y-11555000D02*
X11955000Y-11595000D01*
X12105000Y-8105000D02*
X12145000Y-8145000D01*
X12145000Y-8105000D02*
X12105000Y-8145000D01*
X12105000Y-11855000D02*
X12145000Y-11895000D01*
X12145000Y-11855000D02*
X12105000Y-11895000D01*
X12255000Y-8405000D02*
X12295000Y-8445000D01*
X12295000Y-8405000D02*
X12255000Y-8445000D01*
X12255000Y-11555000D02*
X12295000Y-11595000D01*
X12295000Y-11555000D02*
X12255000Y-11595000D01*
X12405000Y-8105000D02*
X12445000Y-8145000D01*
X12445000Y-8105000D02*
X12405000Y-8145000D01*
X12405000Y-11855000D02*
X12445000Y-11895000D01*
X12445000Y-11855000D02*
X12405000Y-11895000D01*
X12555000Y-8405000D02*
X12595000Y-8445000D01*
X12595000Y-8405000D02*
X12555000Y-8445000D01*
X12555000Y-11555000D02*
X12595000Y-11595000D01*
X12595000Y-11555000D02*
X12555000Y-11595000D01*
X12705000Y-5105000D02*
X12745000Y-5145000D01*
X12745000Y-5105000D02*
X12705000Y-5145000D01*
X12705000Y-5705000D02*
X12745000Y-5745000D01*
X12745000Y-5705000D02*
X12705000Y-5745000D01*
X12705000Y-6305000D02*
X12745000Y-6345000D01*
X12745000Y-6305000D02*
X12705000Y-6345000D01*
X12705000Y-6905000D02*
X12745000Y-6945000D01*
X12745000Y-6905000D02*
X12705000Y-6945000D01*
X12705000Y-8105000D02*
X12745000Y-8145000D01*
X12745000Y-8105000D02*
X12705000Y-8145000D01*
X12705000Y-11855000D02*
X12745000Y-11895000D01*
X12745000Y-11855000D02*
X12705000Y-11895000D01*
X12705000Y-13055000D02*
X12745000Y-13095000D01*
X12745000Y-13055000D02*
X12705000Y-13095000D01*
X12705000Y-13655000D02*
X12745000Y-13695000D01*
X12745000Y-13655000D02*
X12705000Y-13695000D01*
X12705000Y-14255000D02*
X12745000Y-14295000D01*
X12745000Y-14255000D02*
X12705000Y-14295000D01*
X12705000Y-14855000D02*
X12745000Y-14895000D01*
X12745000Y-14855000D02*
X12705000Y-14895000D01*
X12855000Y-4205000D02*
X12895000Y-4245000D01*
X12895000Y-4205000D02*
X12855000Y-4245000D01*
X12855000Y-4805000D02*
X12895000Y-4845000D01*
X12895000Y-4805000D02*
X12855000Y-4845000D01*
X12855000Y-5405000D02*
X12895000Y-5445000D01*
X12895000Y-5405000D02*
X12855000Y-5445000D01*
X12855000Y-6005000D02*
X12895000Y-6045000D01*
X12895000Y-6005000D02*
X12855000Y-6045000D01*
X12855000Y-6605000D02*
X12895000Y-6645000D01*
X12895000Y-6605000D02*
X12855000Y-6645000D01*
X12855000Y-7205000D02*
X12895000Y-7245000D01*
X12895000Y-7205000D02*
X12855000Y-7245000D01*
X12855000Y-7805000D02*
X12895000Y-7845000D01*
X12895000Y-7805000D02*
X12855000Y-7845000D01*
X12855000Y-8405000D02*
X12895000Y-8445000D01*
X12895000Y-8405000D02*
X12855000Y-8445000D01*
X12855000Y-11555000D02*
X12895000Y-11595000D01*
X12895000Y-11555000D02*
X12855000Y-11595000D01*
X12855000Y-12155000D02*
X12895000Y-12195000D01*
X12895000Y-12155000D02*
X12855000Y-12195000D01*
X12855000Y-12755000D02*
X12895000Y-12795000D01*
X12895000Y-12755000D02*
X12855000Y-12795000D01*
X12855000Y-13355000D02*
X12895000Y-13395000D01*
X12895000Y-13355000D02*
X12855000Y-13395000D01*
X12855000Y-13955000D02*
X12895000Y-13995000D01*
X12895000Y-13955000D02*
X12855000Y-13995000D01*
X12855000Y-14555000D02*
X12895000Y-14595000D01*
X12895000Y-14555000D02*
X12855000Y-14595000D01*
X12855000Y-15155000D02*
X12895000Y-15195000D01*
X12895000Y-15155000D02*
X12855000Y-15195000D01*
X12855000Y-15755000D02*
X12895000Y-15795000D01*
X12895000Y-15755000D02*
X12855000Y-15795000D01*
X13005000Y-4505000D02*
X13045000Y-4545000D01*
X13045000Y-4505000D02*
X13005000Y-4545000D01*
X13005000Y-5105000D02*
X13045000Y-5145000D01*
X13045000Y-5105000D02*
X13005000Y-5145000D01*
X13005000Y-5705000D02*
X13045000Y-5745000D01*
X13045000Y-5705000D02*
X13005000Y-5745000D01*
X13005000Y-6305000D02*
X13045000Y-6345000D01*
X13045000Y-6305000D02*
X13005000Y-6345000D01*
X13005000Y-6905000D02*
X13045000Y-6945000D01*
X13045000Y-6905000D02*
X13005000Y-6945000D01*
X13005000Y-7505000D02*
X13045000Y-7545000D01*
X13045000Y-7505000D02*
X13005000Y-7545000D01*
X13005000Y-8105000D02*
X13045000Y-8145000D01*
X13045000Y-8105000D02*
X13005000Y-8145000D01*
X13005000Y-11855000D02*
X13045000Y-11895000D01*
X13045000Y-11855000D02*
X13005000Y-11895000D01*
X13005000Y-12455000D02*
X13045000Y-12495000D01*
X13045000Y-12455000D02*
X13005000Y-12495000D01*
X13005000Y-13055000D02*
X13045000Y-13095000D01*
X13045000Y-13055000D02*
X13005000Y-13095000D01*
X13005000Y-13655000D02*
X13045000Y-13695000D01*
X13045000Y-13655000D02*
X13005000Y-13695000D01*
X13005000Y-14255000D02*
X13045000Y-14295000D01*
X13045000Y-14255000D02*
X13005000Y-14295000D01*
X13005000Y-14855000D02*
X13045000Y-14895000D01*
X13045000Y-14855000D02*
X13005000Y-14895000D01*
X13005000Y-15455000D02*
X13045000Y-15495000D01*
X13045000Y-15455000D02*
X13005000Y-15495000D01*
X13155000Y-4205000D02*
X13195000Y-4245000D01*
X13195000Y-4205000D02*
X13155000Y-4245000D01*
X13155000Y-4805000D02*
X13195000Y-4845000D01*
X13195000Y-4805000D02*
X13155000Y-4845000D01*
X13155000Y-5405000D02*
X13195000Y-5445000D01*
X13195000Y-5405000D02*
X13155000Y-5445000D01*
X13155000Y-6005000D02*
X13195000Y-6045000D01*
X13195000Y-6005000D02*
X13155000Y-6045000D01*
X13155000Y-6605000D02*
X13195000Y-6645000D01*
X13195000Y-6605000D02*
X13155000Y-6645000D01*
X13155000Y-7205000D02*
X13195000Y-7245000D01*
X13195000Y-7205000D02*
X13155000Y-7245000D01*
X13155000Y-7805000D02*
X13195000Y-7845000D01*
X13195000Y-7805000D02*
X13155000Y-7845000D01*
X13155000Y-8405000D02*
X13195000Y-8445000D01*
X13195000Y-8405000D02*
X13155000Y-8445000D01*
X13155000Y-11555000D02*
X13195000Y-11595000D01*
X13195000Y-11555000D02*
X13155000Y-11595000D01*
X13155000Y-12155000D02*
X13195000Y-12195000D01*
X13195000Y-12155000D02*
X13155000Y-12195000D01*
X13155000Y-12755000D02*
X13195000Y-12795000D01*
X13195000Y-12755000D02*
X13155000Y-12795000D01*
X13155000Y-13355000D02*
X13195000Y-13395000D01*
X13195000Y-13355000D02*
X13155000Y-13395000D01*
X13155000Y-13955000D02*
X13195000Y-13995000D01*
X13195000Y-13955000D02*
X13155000Y-13995000D01*
X13155000Y-14555000D02*
X13195000Y-14595000D01*
X13195000Y-14555000D02*
X13155000Y-14595000D01*
X13155000Y-15155000D02*
X13195000Y-15195000D01*
X13195000Y-15155000D02*
X13155000Y-15195000D01*
X13155000Y-15755000D02*
X13195000Y-15795000D01*
X13195000Y-15755000D02*
X13155000Y-15795000D01*
X13305000Y-4505000D02*
X13345000Y-4545000D01*
X13345000Y-4505000D02*
X13305000Y-4545000D01*
X13305000Y-5105000D02*
X13345000Y-5145000D01*
X13345000Y-5105000D02*
X13305000Y-5145000D01*
X13305000Y-5705000D02*
X13345000Y-5745000D01*
X13345000Y-5705000D02*
X13305000Y-5745000D01*
X13305000Y-6305000D02*
X13345000Y-6345000D01*
X13345000Y-6305000D02*
X13305000Y-6345000D01*
X13305000Y-6905000D02*
X13345000Y-6945000D01*
X13345000Y-6905000D02*
X13305000Y-6945000D01*
X13305000Y-7505000D02*
X13345000Y-7545000D01*
X13345000Y-7505000D02*
X13305000Y-7545000D01*
X13305000Y-8105000D02*
X13345000Y-8145000D01*
X13345000Y-8105000D02*
X13305000Y-8145000D01*
X13305000Y-11855000D02*
X13345000Y-11895000D01*
X13345000Y-11855000D02*
X13305000Y-11895000D01*
X13305000Y-12455000D02*
X13345000Y-12495000D01*
X13345000Y-12455000D02*
X13305000Y-12495000D01*
X13305000Y-13055000D02*
X13345000Y-13095000D01*
X13345000Y-13055000D02*
X13305000Y-13095000D01*
X13305000Y-13655000D02*
X13345000Y-13695000D01*
X13345000Y-13655000D02*
X13305000Y-13695000D01*
X13305000Y-14255000D02*
X13345000Y-14295000D01*
X13345000Y-14255000D02*
X13305000Y-14295000D01*
X13305000Y-14855000D02*
X13345000Y-14895000D01*
X13345000Y-14855000D02*
X13305000Y-14895000D01*
X13305000Y-15455000D02*
X13345000Y-15495000D01*
X13345000Y-15455000D02*
X13305000Y-15495000D01*
X13455000Y-4205000D02*
X13495000Y-4245000D01*
X13495000Y-4205000D02*
X13455000Y-4245000D01*
X13455000Y-4805000D02*
X13495000Y-4845000D01*
X13495000Y-4805000D02*
X13455000Y-4845000D01*
X13455000Y-15155000D02*
X13495000Y-15195000D01*
X13495000Y-15155000D02*
X13455000Y-15195000D01*
X13455000Y-15755000D02*
X13495000Y-15795000D01*
X13495000Y-15755000D02*
X13455000Y-15795000D01*
X13605000Y-4505000D02*
X13645000Y-4545000D01*
X13645000Y-4505000D02*
X13605000Y-4545000D01*
X13605000Y-15455000D02*
X13645000Y-15495000D01*
X13645000Y-15455000D02*
X13605000Y-15495000D01*
X13755000Y-4205000D02*
X13795000Y-4245000D01*
X13795000Y-4205000D02*
X13755000Y-4245000D01*
X13755000Y-4805000D02*
X13795000Y-4845000D01*
X13795000Y-4805000D02*
X13755000Y-4845000D01*
X13755000Y-15155000D02*
X13795000Y-15195000D01*
X13795000Y-15155000D02*
X13755000Y-15195000D01*
X13755000Y-15755000D02*
X13795000Y-15795000D01*
X13795000Y-15755000D02*
X13755000Y-15795000D01*
X13905000Y-4505000D02*
X13945000Y-4545000D01*
X13945000Y-4505000D02*
X13905000Y-4545000D01*
X13905000Y-15455000D02*
X13945000Y-15495000D01*
X13945000Y-15455000D02*
X13905000Y-15495000D01*
X14055000Y-4205000D02*
X14095000Y-4245000D01*
X14095000Y-4205000D02*
X14055000Y-4245000D01*
X14055000Y-4805000D02*
X14095000Y-4845000D01*
X14095000Y-4805000D02*
X14055000Y-4845000D01*
X14055000Y-15155000D02*
X14095000Y-15195000D01*
X14095000Y-15155000D02*
X14055000Y-15195000D01*
X14055000Y-15755000D02*
X14095000Y-15795000D01*
X14095000Y-15755000D02*
X14055000Y-15795000D01*
X14205000Y-4505000D02*
X14245000Y-4545000D01*
X14245000Y-4505000D02*
X14205000Y-4545000D01*
X14205000Y-15455000D02*
X14245000Y-15495000D01*
X14245000Y-15455000D02*
X14205000Y-15495000D01*
X14355000Y-4205000D02*
X14395000Y-4245000D01*
X14395000Y-4205000D02*
X14355000Y-4245000D01*
X14355000Y-4805000D02*
X14395000Y-4845000D01*
X14395000Y-4805000D02*
X14355000Y-4845000D01*
X14355000Y-15155000D02*
X14395000Y-15195000D01*
X14395000Y-15155000D02*
X14355000Y-15195000D01*
X14355000Y-15755000D02*
X14395000Y-15795000D01*
X14395000Y-15755000D02*
X14355000Y-15795000D01*
X14505000Y-4505000D02*
X14545000Y-4545000D01*
X14545000Y-4505000D02*
X14505000Y-4545000D01*
X14505000Y-15455000D02*
X14545000Y-15495000D01*
X14545000Y-15455000D02*
X14505000Y-15495000D01*
X14655000Y-4205000D02*
X14695000Y-4245000D01*
X14695000Y-4205000D02*
X14655000Y-4245000D01*
X14655000Y-4805000D02*
X14695000Y-4845000D01*
X14695000Y-4805000D02*
X14655000Y-4845000D01*
X14655000Y-15155000D02*
X14695000Y-15195000D01*
X14695000Y-15155000D02*
X14655000Y-15195000D01*
X14655000Y-15755000D02*
X14695000Y-15795000D01*
X14695000Y-15755000D02*
X14655000Y-15795000D01*
X14805000Y-4505000D02*
X14845000Y-4545000D01*
X14845000Y-4505000D02*
X14805000Y-4545000D01*
X14805000Y-15455000D02*
X14845000Y-15495000D01*
X14845000Y-15455000D02*
X14805000Y-15495000D01*
X14955000Y-4205000D02*
X14995000Y-4245000D01*
X14995000Y-4205000D02*
X14955000Y-4245000D01*
X14955000Y-4805000D02*
X14995000Y-4845000D01*
X14995000Y-4805000D02*
X14955000Y-4845000D01*
X14955000Y-15155000D02*
X14995000Y-15195000D01*
X14995000Y-15155000D02*
X14955000Y-15195000D01*
X14955000Y-15755000D02*
X14995000Y-15795000D01*
X14995000Y-15755000D02*
X14955000Y-15795000D01*
X15105000Y-4505000D02*
X15145000Y-4545000D01*
X15145000Y-4505000D02*
X15105000Y-4545000D01*
X15105000Y-15455000D02*
X15145000Y-15495000D01*
X15145000Y-15455000D02*
X15105000Y-15495000D01*
X15255000Y-4205000D02*
X15295000Y-4245000D01*
X15295000Y-4205000D02*
X15255000Y-4245000D01*
X15255000Y-4805000D02*
X15295000Y-4845000D01*
X15295000Y-4805000D02*
X15255000Y-4845000D01*
X15255000Y-7005000D02*
X15295000Y-7045000D01*
X15295000Y-7005000D02*
X15255000Y-7045000D01*
X15255000Y-7565000D02*
X15295000Y-7605000D01*
X15295000Y-7565000D02*
X15255000Y-7605000D01*
X15255000Y-8125000D02*
X15295000Y-8165000D01*
X15295000Y-8125000D02*
X15255000Y-8165000D01*
X15255000Y-15155000D02*
X15295000Y-15195000D01*
X15295000Y-15155000D02*
X15255000Y-15195000D01*
X15255000Y-15755000D02*
X15295000Y-15795000D01*
X15295000Y-15755000D02*
X15255000Y-15795000D01*
X15295000Y-12955000D02*
X15335000Y-12995000D01*
X15335000Y-12955000D02*
X15295000Y-12995000D01*
X15405000Y-4505000D02*
X15445000Y-4545000D01*
X15445000Y-4505000D02*
X15405000Y-4545000D01*
X15405000Y-7285000D02*
X15445000Y-7325000D01*
X15445000Y-7285000D02*
X15405000Y-7325000D01*
X15405000Y-7845000D02*
X15445000Y-7885000D01*
X15445000Y-7845000D02*
X15405000Y-7885000D01*
X15405000Y-8405000D02*
X15445000Y-8445000D01*
X15445000Y-8405000D02*
X15405000Y-8445000D01*
X15405000Y-15455000D02*
X15445000Y-15495000D01*
X15445000Y-15455000D02*
X15405000Y-15495000D01*
X15430000Y-11555000D02*
X15470000Y-11595000D01*
X15470000Y-11555000D02*
X15430000Y-11595000D01*
X15430000Y-12115000D02*
X15470000Y-12155000D01*
X15470000Y-12115000D02*
X15430000Y-12155000D01*
X15430000Y-12675000D02*
X15470000Y-12715000D01*
X15470000Y-12675000D02*
X15430000Y-12715000D01*
X15555000Y-4205000D02*
X15595000Y-4245000D01*
X15595000Y-4205000D02*
X15555000Y-4245000D01*
X15555000Y-4805000D02*
X15595000Y-4845000D01*
X15595000Y-4805000D02*
X15555000Y-4845000D01*
X15555000Y-7005000D02*
X15595000Y-7045000D01*
X15595000Y-7005000D02*
X15555000Y-7045000D01*
X15555000Y-7565000D02*
X15595000Y-7605000D01*
X15595000Y-7565000D02*
X15555000Y-7605000D01*
X15555000Y-8125000D02*
X15595000Y-8165000D01*
X15595000Y-8125000D02*
X15555000Y-8165000D01*
X15555000Y-15155000D02*
X15595000Y-15195000D01*
X15595000Y-15155000D02*
X15555000Y-15195000D01*
X15555000Y-15755000D02*
X15595000Y-15795000D01*
X15595000Y-15755000D02*
X15555000Y-15795000D01*
X15565000Y-11835000D02*
X15605000Y-11875000D01*
X15605000Y-11835000D02*
X15565000Y-11875000D01*
X15565000Y-12395000D02*
X15605000Y-12435000D01*
X15605000Y-12395000D02*
X15565000Y-12435000D01*
X15565000Y-12955000D02*
X15605000Y-12995000D01*
X15605000Y-12955000D02*
X15565000Y-12995000D01*
X15700000Y-11555000D02*
X15740000Y-11595000D01*
X15740000Y-11555000D02*
X15700000Y-11595000D01*
X15700000Y-12115000D02*
X15740000Y-12155000D01*
X15740000Y-12115000D02*
X15700000Y-12155000D01*
X15700000Y-12675000D02*
X15740000Y-12715000D01*
X15740000Y-12675000D02*
X15700000Y-12715000D01*
X15705000Y-4505000D02*
X15745000Y-4545000D01*
X15745000Y-4505000D02*
X15705000Y-4545000D01*
X15705000Y-7285000D02*
X15745000Y-7325000D01*
X15745000Y-7285000D02*
X15705000Y-7325000D01*
X15705000Y-7845000D02*
X15745000Y-7885000D01*
X15745000Y-7845000D02*
X15705000Y-7885000D01*
X15705000Y-8405000D02*
X15745000Y-8445000D01*
X15745000Y-8405000D02*
X15705000Y-8445000D01*
X15705000Y-15455000D02*
X15745000Y-15495000D01*
X15745000Y-15455000D02*
X15705000Y-15495000D01*
X15835000Y-11835000D02*
X15875000Y-11875000D01*
X15875000Y-11835000D02*
X15835000Y-11875000D01*
X15835000Y-12395000D02*
X15875000Y-12435000D01*
X15875000Y-12395000D02*
X15835000Y-12435000D01*
X15835000Y-12955000D02*
X15875000Y-12995000D01*
X15875000Y-12955000D02*
X15835000Y-12995000D01*
X15855000Y-4205000D02*
X15895000Y-4245000D01*
X15895000Y-4205000D02*
X15855000Y-4245000D01*
X15855000Y-4805000D02*
X15895000Y-4845000D01*
X15895000Y-4805000D02*
X15855000Y-4845000D01*
X15855000Y-7005000D02*
X15895000Y-7045000D01*
X15895000Y-7005000D02*
X15855000Y-7045000D01*
X15855000Y-7565000D02*
X15895000Y-7605000D01*
X15895000Y-7565000D02*
X15855000Y-7605000D01*
X15855000Y-8125000D02*
X15895000Y-8165000D01*
X15895000Y-8125000D02*
X15855000Y-8165000D01*
X15855000Y-15155000D02*
X15895000Y-15195000D01*
X15895000Y-15155000D02*
X15855000Y-15195000D01*
X15855000Y-15755000D02*
X15895000Y-15795000D01*
X15895000Y-15755000D02*
X15855000Y-15795000D01*
X15970000Y-11555000D02*
X16010000Y-11595000D01*
X16010000Y-11555000D02*
X15970000Y-11595000D01*
X15970000Y-12115000D02*
X16010000Y-12155000D01*
X16010000Y-12115000D02*
X15970000Y-12155000D01*
X15970000Y-12675000D02*
X16010000Y-12715000D01*
X16010000Y-12675000D02*
X15970000Y-12715000D01*
X16005000Y-4505000D02*
X16045000Y-4545000D01*
X16045000Y-4505000D02*
X16005000Y-4545000D01*
X16005000Y-7285000D02*
X16045000Y-7325000D01*
X16045000Y-7285000D02*
X16005000Y-7325000D01*
X16005000Y-7845000D02*
X16045000Y-7885000D01*
X16045000Y-7845000D02*
X16005000Y-7885000D01*
X16005000Y-8405000D02*
X16045000Y-8445000D01*
X16045000Y-8405000D02*
X16005000Y-8445000D01*
X16005000Y-15455000D02*
X16045000Y-15495000D01*
X16045000Y-15455000D02*
X16005000Y-15495000D01*
X16105000Y-11835000D02*
X16145000Y-11875000D01*
X16145000Y-11835000D02*
X16105000Y-11875000D01*
X16105000Y-12395000D02*
X16145000Y-12435000D01*
X16145000Y-12395000D02*
X16105000Y-12435000D01*
X16105000Y-12955000D02*
X16145000Y-12995000D01*
X16145000Y-12955000D02*
X16105000Y-12995000D01*
X16155000Y-7005000D02*
X16195000Y-7045000D01*
X16195000Y-7005000D02*
X16155000Y-7045000D01*
X16155000Y-7565000D02*
X16195000Y-7605000D01*
X16195000Y-7565000D02*
X16155000Y-7605000D01*
X16155000Y-8125000D02*
X16195000Y-8165000D01*
X16195000Y-8125000D02*
X16155000Y-8165000D01*
X16240000Y-11555000D02*
X16280000Y-11595000D01*
X16280000Y-11555000D02*
X16240000Y-11595000D01*
X16240000Y-12115000D02*
X16280000Y-12155000D01*
X16280000Y-12115000D02*
X16240000Y-12155000D01*
X16305000Y-7285000D02*
X16345000Y-7325000D01*
X16345000Y-7285000D02*
X16305000Y-7325000D01*
X16305000Y-7845000D02*
X16345000Y-7885000D01*
X16345000Y-7845000D02*
X16305000Y-7885000D01*
X16305000Y-8405000D02*
X16345000Y-8445000D01*
X16345000Y-8405000D02*
X16305000Y-8445000D01*
X16375000Y-11835000D02*
X16415000Y-11875000D01*
X16415000Y-11835000D02*
X16375000Y-11875000D01*
X16375000Y-12395000D02*
X16415000Y-12435000D01*
X16415000Y-12395000D02*
X16375000Y-12435000D01*
X16455000Y-7005000D02*
X16495000Y-7045000D01*
X16495000Y-7005000D02*
X16455000Y-7045000D01*
X16455000Y-7565000D02*
X16495000Y-7605000D01*
X16495000Y-7565000D02*
X16455000Y-7605000D01*
X16455000Y-8125000D02*
X16495000Y-8165000D01*
X16495000Y-8125000D02*
X16455000Y-8165000D01*
X16605000Y-7285000D02*
X16645000Y-7325000D01*
X16645000Y-7285000D02*
X16605000Y-7325000D01*
X16605000Y-7845000D02*
X16645000Y-7885000D01*
X16645000Y-7845000D02*
X16605000Y-7885000D01*
X16605000Y-8405000D02*
X16645000Y-8445000D01*
X16645000Y-8405000D02*
X16605000Y-8445000D01*
X16755000Y-7005000D02*
X16795000Y-7045000D01*
X16795000Y-7005000D02*
X16755000Y-7045000D01*
X16755000Y-8125000D02*
X16795000Y-8165000D01*
X16795000Y-8125000D02*
X16755000Y-8165000D01*
X16905000Y-7285000D02*
X16945000Y-7325000D01*
X16945000Y-7285000D02*
X16905000Y-7325000D01*
X16905000Y-8405000D02*
X16945000Y-8445000D01*
X16945000Y-8405000D02*
X16905000Y-8445000D01*
X16905000Y-8965000D02*
X16945000Y-9005000D01*
X16945000Y-8965000D02*
X16905000Y-9005000D01*
X17055000Y-7005000D02*
X17095000Y-7045000D01*
X17095000Y-7005000D02*
X17055000Y-7045000D01*
X17055000Y-8125000D02*
X17095000Y-8165000D01*
X17095000Y-8125000D02*
X17055000Y-8165000D01*
X17055000Y-8685000D02*
X17095000Y-8725000D01*
X17095000Y-8685000D02*
X17055000Y-8725000D01*
X17055000Y-9245000D02*
X17095000Y-9285000D01*
X17095000Y-9245000D02*
X17055000Y-9285000D01*
X17205000Y-4505000D02*
X17245000Y-4545000D01*
X17245000Y-4505000D02*
X17205000Y-4545000D01*
X17205000Y-7285000D02*
X17245000Y-7325000D01*
X17245000Y-7285000D02*
X17205000Y-7325000D01*
X17205000Y-8405000D02*
X17245000Y-8445000D01*
X17245000Y-8405000D02*
X17205000Y-8445000D01*
X17205000Y-8965000D02*
X17245000Y-9005000D01*
X17245000Y-8965000D02*
X17205000Y-9005000D01*
X17205000Y-15455000D02*
X17245000Y-15495000D01*
X17245000Y-15455000D02*
X17205000Y-15495000D01*
X17355000Y-4205000D02*
X17395000Y-4245000D01*
X17395000Y-4205000D02*
X17355000Y-4245000D01*
X17355000Y-4805000D02*
X17395000Y-4845000D01*
X17395000Y-4805000D02*
X17355000Y-4845000D01*
X17355000Y-7005000D02*
X17395000Y-7045000D01*
X17395000Y-7005000D02*
X17355000Y-7045000D01*
X17355000Y-8125000D02*
X17395000Y-8165000D01*
X17395000Y-8125000D02*
X17355000Y-8165000D01*
X17355000Y-8685000D02*
X17395000Y-8725000D01*
X17395000Y-8685000D02*
X17355000Y-8725000D01*
X17355000Y-9245000D02*
X17395000Y-9285000D01*
X17395000Y-9245000D02*
X17355000Y-9285000D01*
X17355000Y-15155000D02*
X17395000Y-15195000D01*
X17395000Y-15155000D02*
X17355000Y-15195000D01*
X17355000Y-15755000D02*
X17395000Y-15795000D01*
X17395000Y-15755000D02*
X17355000Y-15795000D01*
X17505000Y-4505000D02*
X17545000Y-4545000D01*
X17545000Y-4505000D02*
X17505000Y-4545000D01*
X17505000Y-7285000D02*
X17545000Y-7325000D01*
X17545000Y-7285000D02*
X17505000Y-7325000D01*
X17505000Y-8405000D02*
X17545000Y-8445000D01*
X17545000Y-8405000D02*
X17505000Y-8445000D01*
X17505000Y-8965000D02*
X17545000Y-9005000D01*
X17545000Y-8965000D02*
X17505000Y-9005000D01*
X17505000Y-9525000D02*
X17545000Y-9565000D01*
X17545000Y-9525000D02*
X17505000Y-9565000D01*
X17505000Y-15455000D02*
X17545000Y-15495000D01*
X17545000Y-15455000D02*
X17505000Y-15495000D01*
X17655000Y-4205000D02*
X17695000Y-4245000D01*
X17695000Y-4205000D02*
X17655000Y-4245000D01*
X17655000Y-4805000D02*
X17695000Y-4845000D01*
X17695000Y-4805000D02*
X17655000Y-4845000D01*
X17655000Y-7005000D02*
X17695000Y-7045000D01*
X17695000Y-7005000D02*
X17655000Y-7045000D01*
X17655000Y-8685000D02*
X17695000Y-8725000D01*
X17695000Y-8685000D02*
X17655000Y-8725000D01*
X17655000Y-9245000D02*
X17695000Y-9285000D01*
X17695000Y-9245000D02*
X17655000Y-9285000D01*
X17655000Y-15155000D02*
X17695000Y-15195000D01*
X17695000Y-15155000D02*
X17655000Y-15195000D01*
X17655000Y-15755000D02*
X17695000Y-15795000D01*
X17695000Y-15755000D02*
X17655000Y-15795000D01*
X17805000Y-4505000D02*
X17845000Y-4545000D01*
X17845000Y-4505000D02*
X17805000Y-4545000D01*
X17805000Y-7285000D02*
X17845000Y-7325000D01*
X17845000Y-7285000D02*
X17805000Y-7325000D01*
X17805000Y-8965000D02*
X17845000Y-9005000D01*
X17845000Y-8965000D02*
X17805000Y-9005000D01*
X17805000Y-9525000D02*
X17845000Y-9565000D01*
X17845000Y-9525000D02*
X17805000Y-9565000D01*
X17805000Y-15455000D02*
X17845000Y-15495000D01*
X17845000Y-15455000D02*
X17805000Y-15495000D01*
X17955000Y-4205000D02*
X17995000Y-4245000D01*
X17995000Y-4205000D02*
X17955000Y-4245000D01*
X17955000Y-4805000D02*
X17995000Y-4845000D01*
X17995000Y-4805000D02*
X17955000Y-4845000D01*
X17955000Y-7005000D02*
X17995000Y-7045000D01*
X17995000Y-7005000D02*
X17955000Y-7045000D01*
X17955000Y-9245000D02*
X17995000Y-9285000D01*
X17995000Y-9245000D02*
X17955000Y-9285000D01*
X17955000Y-15155000D02*
X17995000Y-15195000D01*
X17995000Y-15155000D02*
X17955000Y-15195000D01*
X17955000Y-15755000D02*
X17995000Y-15795000D01*
X17995000Y-15755000D02*
X17955000Y-15795000D01*
X18105000Y-4505000D02*
X18145000Y-4545000D01*
X18145000Y-4505000D02*
X18105000Y-4545000D01*
X18105000Y-7285000D02*
X18145000Y-7325000D01*
X18145000Y-7285000D02*
X18105000Y-7325000D01*
X18105000Y-8965000D02*
X18145000Y-9005000D01*
X18145000Y-8965000D02*
X18105000Y-9005000D01*
X18105000Y-9525000D02*
X18145000Y-9565000D01*
X18145000Y-9525000D02*
X18105000Y-9565000D01*
X18105000Y-15455000D02*
X18145000Y-15495000D01*
X18145000Y-15455000D02*
X18105000Y-15495000D01*
X18255000Y-4205000D02*
X18295000Y-4245000D01*
X18295000Y-4205000D02*
X18255000Y-4245000D01*
X18255000Y-4805000D02*
X18295000Y-4845000D01*
X18295000Y-4805000D02*
X18255000Y-4845000D01*
X18255000Y-7005000D02*
X18295000Y-7045000D01*
X18295000Y-7005000D02*
X18255000Y-7045000D01*
X18255000Y-9245000D02*
X18295000Y-9285000D01*
X18295000Y-9245000D02*
X18255000Y-9285000D01*
X18255000Y-15155000D02*
X18295000Y-15195000D01*
X18295000Y-15155000D02*
X18255000Y-15195000D01*
X18255000Y-15755000D02*
X18295000Y-15795000D01*
X18295000Y-15755000D02*
X18255000Y-15795000D01*
X18405000Y-4505000D02*
X18445000Y-4545000D01*
X18445000Y-4505000D02*
X18405000Y-4545000D01*
X18405000Y-7285000D02*
X18445000Y-7325000D01*
X18445000Y-7285000D02*
X18405000Y-7325000D01*
X18405000Y-8965000D02*
X18445000Y-9005000D01*
X18445000Y-8965000D02*
X18405000Y-9005000D01*
X18405000Y-9525000D02*
X18445000Y-9565000D01*
X18445000Y-9525000D02*
X18405000Y-9565000D01*
X18405000Y-15455000D02*
X18445000Y-15495000D01*
X18445000Y-15455000D02*
X18405000Y-15495000D01*
X18555000Y-4205000D02*
X18595000Y-4245000D01*
X18595000Y-4205000D02*
X18555000Y-4245000D01*
X18555000Y-4805000D02*
X18595000Y-4845000D01*
X18595000Y-4805000D02*
X18555000Y-4845000D01*
X18555000Y-7005000D02*
X18595000Y-7045000D01*
X18595000Y-7005000D02*
X18555000Y-7045000D01*
X18555000Y-9245000D02*
X18595000Y-9285000D01*
X18595000Y-9245000D02*
X18555000Y-9285000D01*
X18555000Y-15155000D02*
X18595000Y-15195000D01*
X18595000Y-15155000D02*
X18555000Y-15195000D01*
X18555000Y-15755000D02*
X18595000Y-15795000D01*
X18595000Y-15755000D02*
X18555000Y-15795000D01*
X18705000Y-4505000D02*
X18745000Y-4545000D01*
X18745000Y-4505000D02*
X18705000Y-4545000D01*
X18705000Y-7285000D02*
X18745000Y-7325000D01*
X18745000Y-7285000D02*
X18705000Y-7325000D01*
X18705000Y-8965000D02*
X18745000Y-9005000D01*
X18745000Y-8965000D02*
X18705000Y-9005000D01*
X18705000Y-15455000D02*
X18745000Y-15495000D01*
X18745000Y-15455000D02*
X18705000Y-15495000D01*
X18855000Y-4205000D02*
X18895000Y-4245000D01*
X18895000Y-4205000D02*
X18855000Y-4245000D01*
X18855000Y-4805000D02*
X18895000Y-4845000D01*
X18895000Y-4805000D02*
X18855000Y-4845000D01*
X18855000Y-7005000D02*
X18895000Y-7045000D01*
X18895000Y-7005000D02*
X18855000Y-7045000D01*
X18855000Y-8685000D02*
X18895000Y-8725000D01*
X18895000Y-8685000D02*
X18855000Y-8725000D01*
X18855000Y-9245000D02*
X18895000Y-9285000D01*
X18895000Y-9245000D02*
X18855000Y-9285000D01*
X18855000Y-15155000D02*
X18895000Y-15195000D01*
X18895000Y-15155000D02*
X18855000Y-15195000D01*
X18855000Y-15755000D02*
X18895000Y-15795000D01*
X18895000Y-15755000D02*
X18855000Y-15795000D01*
X19005000Y-4505000D02*
X19045000Y-4545000D01*
X19045000Y-4505000D02*
X19005000Y-4545000D01*
X19005000Y-7285000D02*
X19045000Y-7325000D01*
X19045000Y-7285000D02*
X19005000Y-7325000D01*
X19005000Y-8405000D02*
X19045000Y-8445000D01*
X19045000Y-8405000D02*
X19005000Y-8445000D01*
X19005000Y-8965000D02*
X19045000Y-9005000D01*
X19045000Y-8965000D02*
X19005000Y-9005000D01*
X19005000Y-15455000D02*
X19045000Y-15495000D01*
X19045000Y-15455000D02*
X19005000Y-15495000D01*
X19155000Y-4205000D02*
X19195000Y-4245000D01*
X19195000Y-4205000D02*
X19155000Y-4245000D01*
X19155000Y-4805000D02*
X19195000Y-4845000D01*
X19195000Y-4805000D02*
X19155000Y-4845000D01*
X19155000Y-7005000D02*
X19195000Y-7045000D01*
X19195000Y-7005000D02*
X19155000Y-7045000D01*
X19155000Y-8125000D02*
X19195000Y-8165000D01*
X19195000Y-8125000D02*
X19155000Y-8165000D01*
X19155000Y-8685000D02*
X19195000Y-8725000D01*
X19195000Y-8685000D02*
X19155000Y-8725000D01*
X19155000Y-9245000D02*
X19195000Y-9285000D01*
X19195000Y-9245000D02*
X19155000Y-9285000D01*
X19155000Y-15155000D02*
X19195000Y-15195000D01*
X19195000Y-15155000D02*
X19155000Y-15195000D01*
X19155000Y-15755000D02*
X19195000Y-15795000D01*
X19195000Y-15755000D02*
X19155000Y-15795000D01*
X19305000Y-4505000D02*
X19345000Y-4545000D01*
X19345000Y-4505000D02*
X19305000Y-4545000D01*
X19305000Y-7285000D02*
X19345000Y-7325000D01*
X19345000Y-7285000D02*
X19305000Y-7325000D01*
X19305000Y-7845000D02*
X19345000Y-7885000D01*
X19345000Y-7845000D02*
X19305000Y-7885000D01*
X19305000Y-8405000D02*
X19345000Y-8445000D01*
X19345000Y-8405000D02*
X19305000Y-8445000D01*
X19305000Y-8965000D02*
X19345000Y-9005000D01*
X19345000Y-8965000D02*
X19305000Y-9005000D01*
X19305000Y-9525000D02*
X19345000Y-9565000D01*
X19345000Y-9525000D02*
X19305000Y-9565000D01*
X19305000Y-15455000D02*
X19345000Y-15495000D01*
X19345000Y-15455000D02*
X19305000Y-15495000D01*
X19455000Y-4205000D02*
X19495000Y-4245000D01*
X19495000Y-4205000D02*
X19455000Y-4245000D01*
X19455000Y-4805000D02*
X19495000Y-4845000D01*
X19495000Y-4805000D02*
X19455000Y-4845000D01*
X19455000Y-7005000D02*
X19495000Y-7045000D01*
X19495000Y-7005000D02*
X19455000Y-7045000D01*
X19455000Y-7565000D02*
X19495000Y-7605000D01*
X19495000Y-7565000D02*
X19455000Y-7605000D01*
X19455000Y-8125000D02*
X19495000Y-8165000D01*
X19495000Y-8125000D02*
X19455000Y-8165000D01*
X19455000Y-8685000D02*
X19495000Y-8725000D01*
X19495000Y-8685000D02*
X19455000Y-8725000D01*
X19455000Y-9245000D02*
X19495000Y-9285000D01*
X19495000Y-9245000D02*
X19455000Y-9285000D01*
X19455000Y-15155000D02*
X19495000Y-15195000D01*
X19495000Y-15155000D02*
X19455000Y-15195000D01*
X19455000Y-15755000D02*
X19495000Y-15795000D01*
X19495000Y-15755000D02*
X19455000Y-15795000D01*
X19605000Y-4505000D02*
X19645000Y-4545000D01*
X19645000Y-4505000D02*
X19605000Y-4545000D01*
X19605000Y-7285000D02*
X19645000Y-7325000D01*
X19645000Y-7285000D02*
X19605000Y-7325000D01*
X19605000Y-7845000D02*
X19645000Y-7885000D01*
X19645000Y-7845000D02*
X19605000Y-7885000D01*
X19605000Y-8405000D02*
X19645000Y-8445000D01*
X19645000Y-8405000D02*
X19605000Y-8445000D01*
X19605000Y-8965000D02*
X19645000Y-9005000D01*
X19645000Y-8965000D02*
X19605000Y-9005000D01*
X19605000Y-9525000D02*
X19645000Y-9565000D01*
X19645000Y-9525000D02*
X19605000Y-9565000D01*
X19605000Y-15455000D02*
X19645000Y-15495000D01*
X19645000Y-15455000D02*
X19605000Y-15495000D01*
X19755000Y-4205000D02*
X19795000Y-4245000D01*
X19795000Y-4205000D02*
X19755000Y-4245000D01*
X19755000Y-4805000D02*
X19795000Y-4845000D01*
X19795000Y-4805000D02*
X19755000Y-4845000D01*
X19755000Y-7005000D02*
X19795000Y-7045000D01*
X19795000Y-7005000D02*
X19755000Y-7045000D01*
X19755000Y-7565000D02*
X19795000Y-7605000D01*
X19795000Y-7565000D02*
X19755000Y-7605000D01*
X19755000Y-8125000D02*
X19795000Y-8165000D01*
X19795000Y-8125000D02*
X19755000Y-8165000D01*
X19755000Y-10980000D02*
X19795000Y-11020000D01*
X19795000Y-10980000D02*
X19755000Y-11020000D01*
X19755000Y-11305000D02*
X19795000Y-11345000D01*
X19795000Y-11305000D02*
X19755000Y-11345000D01*
X19755000Y-15155000D02*
X19795000Y-15195000D01*
X19795000Y-15155000D02*
X19755000Y-15195000D01*
X19755000Y-15755000D02*
X19795000Y-15795000D01*
X19795000Y-15755000D02*
X19755000Y-15795000D01*
X19855000Y-11130000D02*
X19895000Y-11170000D01*
X19895000Y-11130000D02*
X19855000Y-11170000D01*
X19905000Y-4505000D02*
X19945000Y-4545000D01*
X19945000Y-4505000D02*
X19905000Y-4545000D01*
X19905000Y-15455000D02*
X19945000Y-15495000D01*
X19945000Y-15455000D02*
X19905000Y-15495000D01*
X19980000Y-11305000D02*
X20020000Y-11345000D01*
X20020000Y-11305000D02*
X19980000Y-11345000D01*
X20055000Y-4205000D02*
X20095000Y-4245000D01*
X20095000Y-4205000D02*
X20055000Y-4245000D01*
X20055000Y-4805000D02*
X20095000Y-4845000D01*
X20095000Y-4805000D02*
X20055000Y-4845000D01*
X20055000Y-15155000D02*
X20095000Y-15195000D01*
X20095000Y-15155000D02*
X20055000Y-15195000D01*
X20055000Y-15755000D02*
X20095000Y-15795000D01*
X20095000Y-15755000D02*
X20055000Y-15795000D01*
X20105000Y-11130000D02*
X20145000Y-11170000D01*
X20145000Y-11130000D02*
X20105000Y-11170000D01*
X20205000Y-4505000D02*
X20245000Y-4545000D01*
X20245000Y-4505000D02*
X20205000Y-4545000D01*
X20205000Y-5105000D02*
X20245000Y-5145000D01*
X20245000Y-5105000D02*
X20205000Y-5145000D01*
X20205000Y-5705000D02*
X20245000Y-5745000D01*
X20245000Y-5705000D02*
X20205000Y-5745000D01*
X20205000Y-6305000D02*
X20245000Y-6345000D01*
X20245000Y-6305000D02*
X20205000Y-6345000D01*
X20205000Y-6905000D02*
X20245000Y-6945000D01*
X20245000Y-6905000D02*
X20205000Y-6945000D01*
X20205000Y-7505000D02*
X20245000Y-7545000D01*
X20245000Y-7505000D02*
X20205000Y-7545000D01*
X20205000Y-10980000D02*
X20245000Y-11020000D01*
X20245000Y-10980000D02*
X20205000Y-11020000D01*
X20205000Y-11305000D02*
X20245000Y-11345000D01*
X20245000Y-11305000D02*
X20205000Y-11345000D01*
X20205000Y-12455000D02*
X20245000Y-12495000D01*
X20245000Y-12455000D02*
X20205000Y-12495000D01*
X20205000Y-13055000D02*
X20245000Y-13095000D01*
X20245000Y-13055000D02*
X20205000Y-13095000D01*
X20205000Y-13655000D02*
X20245000Y-13695000D01*
X20245000Y-13655000D02*
X20205000Y-13695000D01*
X20205000Y-14255000D02*
X20245000Y-14295000D01*
X20245000Y-14255000D02*
X20205000Y-14295000D01*
X20205000Y-14855000D02*
X20245000Y-14895000D01*
X20245000Y-14855000D02*
X20205000Y-14895000D01*
X20205000Y-15455000D02*
X20245000Y-15495000D01*
X20245000Y-15455000D02*
X20205000Y-15495000D01*
X20330002Y-8470000D02*
X20370002Y-8510000D01*
X20370002Y-8470000D02*
X20330002Y-8510000D01*
X20355000Y-4205000D02*
X20395000Y-4245000D01*
X20395000Y-4205000D02*
X20355000Y-4245000D01*
X20355000Y-4805000D02*
X20395000Y-4845000D01*
X20395000Y-4805000D02*
X20355000Y-4845000D01*
X20355000Y-5405000D02*
X20395000Y-5445000D01*
X20395000Y-5405000D02*
X20355000Y-5445000D01*
X20355000Y-6005000D02*
X20395000Y-6045000D01*
X20395000Y-6005000D02*
X20355000Y-6045000D01*
X20355000Y-6605000D02*
X20395000Y-6645000D01*
X20395000Y-6605000D02*
X20355000Y-6645000D01*
X20355000Y-7205000D02*
X20395000Y-7245000D01*
X20395000Y-7205000D02*
X20355000Y-7245000D01*
X20355000Y-13355000D02*
X20395000Y-13395000D01*
X20395000Y-13355000D02*
X20355000Y-13395000D01*
X20355000Y-13955000D02*
X20395000Y-13995000D01*
X20395000Y-13955000D02*
X20355000Y-13995000D01*
X20355000Y-14555000D02*
X20395000Y-14595000D01*
X20395000Y-14555000D02*
X20355000Y-14595000D01*
X20355000Y-15155000D02*
X20395000Y-15195000D01*
X20395000Y-15155000D02*
X20355000Y-15195000D01*
X20355000Y-15755000D02*
X20395000Y-15795000D01*
X20395000Y-15755000D02*
X20355000Y-15795000D01*
X20455000Y-7880000D02*
X20495000Y-7920000D01*
X20495000Y-7880000D02*
X20455000Y-7920000D01*
X20505000Y-4505000D02*
X20545000Y-4545000D01*
X20545000Y-4505000D02*
X20505000Y-4545000D01*
X20505000Y-5105000D02*
X20545000Y-5145000D01*
X20545000Y-5105000D02*
X20505000Y-5145000D01*
X20505000Y-5705000D02*
X20545000Y-5745000D01*
X20545000Y-5705000D02*
X20505000Y-5745000D01*
X20505000Y-6305000D02*
X20545000Y-6345000D01*
X20545000Y-6305000D02*
X20505000Y-6345000D01*
X20505000Y-6905000D02*
X20545000Y-6945000D01*
X20545000Y-6905000D02*
X20505000Y-6945000D01*
X20505000Y-7505000D02*
X20545000Y-7545000D01*
X20545000Y-7505000D02*
X20505000Y-7545000D01*
X20505000Y-12455000D02*
X20545000Y-12495000D01*
X20545000Y-12455000D02*
X20505000Y-12495000D01*
X20505000Y-13055000D02*
X20545000Y-13095000D01*
X20545000Y-13055000D02*
X20505000Y-13095000D01*
X20505000Y-13655000D02*
X20545000Y-13695000D01*
X20545000Y-13655000D02*
X20505000Y-13695000D01*
X20505000Y-14255000D02*
X20545000Y-14295000D01*
X20545000Y-14255000D02*
X20505000Y-14295000D01*
X20505000Y-14855000D02*
X20545000Y-14895000D01*
X20545000Y-14855000D02*
X20505000Y-14895000D01*
X20505000Y-15455000D02*
X20545000Y-15495000D01*
X20545000Y-15455000D02*
X20505000Y-15495000D01*
X20655000Y-4205000D02*
X20695000Y-4245000D01*
X20695000Y-4205000D02*
X20655000Y-4245000D01*
X20655000Y-4805000D02*
X20695000Y-4845000D01*
X20695000Y-4805000D02*
X20655000Y-4845000D01*
X20655000Y-5405000D02*
X20695000Y-5445000D01*
X20695000Y-5405000D02*
X20655000Y-5445000D01*
X20655000Y-6005000D02*
X20695000Y-6045000D01*
X20695000Y-6005000D02*
X20655000Y-6045000D01*
X20655000Y-6605000D02*
X20695000Y-6645000D01*
X20695000Y-6605000D02*
X20655000Y-6645000D01*
X20655000Y-7205000D02*
X20695000Y-7245000D01*
X20695000Y-7205000D02*
X20655000Y-7245000D01*
X20655000Y-12755000D02*
X20695000Y-12795000D01*
X20695000Y-12755000D02*
X20655000Y-12795000D01*
X20655000Y-13355000D02*
X20695000Y-13395000D01*
X20695000Y-13355000D02*
X20655000Y-13395000D01*
X20655000Y-13955000D02*
X20695000Y-13995000D01*
X20695000Y-13955000D02*
X20655000Y-13995000D01*
X20655000Y-14555000D02*
X20695000Y-14595000D01*
X20695000Y-14555000D02*
X20655000Y-14595000D01*
X20655000Y-15155000D02*
X20695000Y-15195000D01*
X20695000Y-15155000D02*
X20655000Y-15195000D01*
X20655000Y-15755000D02*
X20695000Y-15795000D01*
X20695000Y-15755000D02*
X20655000Y-15795000D01*
X20780000Y-12080000D02*
X20820000Y-12120000D01*
X20820000Y-12080000D02*
X20780000Y-12120000D01*
X20805000Y-4505000D02*
X20845000Y-4545000D01*
X20845000Y-4505000D02*
X20805000Y-4545000D01*
X20805000Y-5105000D02*
X20845000Y-5145000D01*
X20845000Y-5105000D02*
X20805000Y-5145000D01*
X20805000Y-5705000D02*
X20845000Y-5745000D01*
X20845000Y-5705000D02*
X20805000Y-5745000D01*
X20805000Y-6305000D02*
X20845000Y-6345000D01*
X20845000Y-6305000D02*
X20805000Y-6345000D01*
X20805000Y-6905000D02*
X20845000Y-6945000D01*
X20845000Y-6905000D02*
X20805000Y-6945000D01*
X20805000Y-7505000D02*
X20845000Y-7545000D01*
X20845000Y-7505000D02*
X20805000Y-7545000D01*
X20805000Y-12455000D02*
X20845000Y-12495000D01*
X20845000Y-12455000D02*
X20805000Y-12495000D01*
X20805000Y-13055000D02*
X20845000Y-13095000D01*
X20845000Y-13055000D02*
X20805000Y-13095000D01*
X20805000Y-13655000D02*
X20845000Y-13695000D01*
X20845000Y-13655000D02*
X20805000Y-13695000D01*
X20805000Y-14255000D02*
X20845000Y-14295000D01*
X20845000Y-14255000D02*
X20805000Y-14295000D01*
X20805000Y-14855000D02*
X20845000Y-14895000D01*
X20845000Y-14855000D02*
X20805000Y-14895000D01*
X20805000Y-15455000D02*
X20845000Y-15495000D01*
X20845000Y-15455000D02*
X20805000Y-15495000D01*
X20930000Y-11490000D02*
X20970000Y-11530000D01*
X20970000Y-11490000D02*
X20930000Y-11530000D01*
X20955000Y-7205000D02*
X20995000Y-7245000D01*
X20995000Y-7205000D02*
X20955000Y-7245000D01*
X20955000Y-12755000D02*
X20995000Y-12795000D01*
X20995000Y-12755000D02*
X20955000Y-12795000D01*
X21105000Y-6905000D02*
X21145000Y-6945000D01*
X21145000Y-6905000D02*
X21105000Y-6945000D01*
X21105000Y-7505000D02*
X21145000Y-7545000D01*
X21145000Y-7505000D02*
X21105000Y-7545000D01*
X21105000Y-12455000D02*
X21145000Y-12495000D01*
X21145000Y-12455000D02*
X21105000Y-12495000D01*
X21105000Y-13055000D02*
X21145000Y-13095000D01*
X21145000Y-13055000D02*
X21105000Y-13095000D01*
X21255000Y-7205000D02*
X21295000Y-7245000D01*
X21295000Y-7205000D02*
X21255000Y-7245000D01*
X21255000Y-12755000D02*
X21295000Y-12795000D01*
X21295000Y-12755000D02*
X21255000Y-12795000D01*
X21405000Y-6905000D02*
X21445000Y-6945000D01*
X21445000Y-6905000D02*
X21405000Y-6945000D01*
X21405000Y-7505000D02*
X21445000Y-7545000D01*
X21445000Y-7505000D02*
X21405000Y-7545000D01*
X21405000Y-12455000D02*
X21445000Y-12495000D01*
X21445000Y-12455000D02*
X21405000Y-12495000D01*
X21405000Y-13055000D02*
X21445000Y-13095000D01*
X21445000Y-13055000D02*
X21405000Y-13095000D01*
X21555000Y-7205000D02*
X21595000Y-7245000D01*
X21595000Y-7205000D02*
X21555000Y-7245000D01*
X21555000Y-7805000D02*
X21595000Y-7845000D01*
X21595000Y-7805000D02*
X21555000Y-7845000D01*
X21555000Y-8405000D02*
X21595000Y-8445000D01*
X21595000Y-8405000D02*
X21555000Y-8445000D01*
X21555000Y-9005000D02*
X21595000Y-9045000D01*
X21595000Y-9005000D02*
X21555000Y-9045000D01*
X21555000Y-9605000D02*
X21595000Y-9645000D01*
X21595000Y-9605000D02*
X21555000Y-9645000D01*
X21555000Y-10355000D02*
X21595000Y-10395000D01*
X21595000Y-10355000D02*
X21555000Y-10395000D01*
X21555000Y-10955000D02*
X21595000Y-10995000D01*
X21595000Y-10955000D02*
X21555000Y-10995000D01*
X21555000Y-11555000D02*
X21595000Y-11595000D01*
X21595000Y-11555000D02*
X21555000Y-11595000D01*
X21555000Y-12155000D02*
X21595000Y-12195000D01*
X21595000Y-12155000D02*
X21555000Y-12195000D01*
X21555000Y-12755000D02*
X21595000Y-12795000D01*
X21595000Y-12755000D02*
X21555000Y-12795000D01*
X21705000Y-6905000D02*
X21745000Y-6945000D01*
X21745000Y-6905000D02*
X21705000Y-6945000D01*
X21705000Y-7505000D02*
X21745000Y-7545000D01*
X21745000Y-7505000D02*
X21705000Y-7545000D01*
X21705000Y-8105000D02*
X21745000Y-8145000D01*
X21745000Y-8105000D02*
X21705000Y-8145000D01*
X21705000Y-9305000D02*
X21745000Y-9345000D01*
X21745000Y-9305000D02*
X21705000Y-9345000D01*
X21705000Y-10655000D02*
X21745000Y-10695000D01*
X21745000Y-10655000D02*
X21705000Y-10695000D01*
X21705000Y-11855000D02*
X21745000Y-11895000D01*
X21745000Y-11855000D02*
X21705000Y-11895000D01*
X21705000Y-12455000D02*
X21745000Y-12495000D01*
X21745000Y-12455000D02*
X21705000Y-12495000D01*
X21705000Y-13055000D02*
X21745000Y-13095000D01*
X21745000Y-13055000D02*
X21705000Y-13095000D01*
X21855000Y-7205000D02*
X21895000Y-7245000D01*
X21895000Y-7205000D02*
X21855000Y-7245000D01*
X21855000Y-7805000D02*
X21895000Y-7845000D01*
X21895000Y-7805000D02*
X21855000Y-7845000D01*
X21855000Y-9005000D02*
X21895000Y-9045000D01*
X21895000Y-9005000D02*
X21855000Y-9045000D01*
X21855000Y-9605000D02*
X21895000Y-9645000D01*
X21895000Y-9605000D02*
X21855000Y-9645000D01*
X21855000Y-10355000D02*
X21895000Y-10395000D01*
X21895000Y-10355000D02*
X21855000Y-10395000D01*
X21855000Y-10955000D02*
X21895000Y-10995000D01*
X21895000Y-10955000D02*
X21855000Y-10995000D01*
X21855000Y-12155000D02*
X21895000Y-12195000D01*
X21895000Y-12155000D02*
X21855000Y-12195000D01*
X21855000Y-12755000D02*
X21895000Y-12795000D01*
X21895000Y-12755000D02*
X21855000Y-12795000D01*
X22005000Y-6905000D02*
X22045000Y-6945000D01*
X22045000Y-6905000D02*
X22005000Y-6945000D01*
X22005000Y-7505000D02*
X22045000Y-7545000D01*
X22045000Y-7505000D02*
X22005000Y-7545000D01*
X22005000Y-8105000D02*
X22045000Y-8145000D01*
X22045000Y-8105000D02*
X22005000Y-8145000D01*
X22005000Y-9305000D02*
X22045000Y-9345000D01*
X22045000Y-9305000D02*
X22005000Y-9345000D01*
X22005000Y-10655000D02*
X22045000Y-10695000D01*
X22045000Y-10655000D02*
X22005000Y-10695000D01*
X22005000Y-11855000D02*
X22045000Y-11895000D01*
X22045000Y-11855000D02*
X22005000Y-11895000D01*
X22005000Y-12455000D02*
X22045000Y-12495000D01*
X22045000Y-12455000D02*
X22005000Y-12495000D01*
X22005000Y-13055000D02*
X22045000Y-13095000D01*
X22045000Y-13055000D02*
X22005000Y-13095000D01*
X22155000Y-7205000D02*
X22195000Y-7245000D01*
X22195000Y-7205000D02*
X22155000Y-7245000D01*
X22155000Y-7805000D02*
X22195000Y-7845000D01*
X22195000Y-7805000D02*
X22155000Y-7845000D01*
X22155000Y-9005000D02*
X22195000Y-9045000D01*
X22195000Y-9005000D02*
X22155000Y-9045000D01*
X22155000Y-9605000D02*
X22195000Y-9645000D01*
X22195000Y-9605000D02*
X22155000Y-9645000D01*
X22155000Y-10355000D02*
X22195000Y-10395000D01*
X22195000Y-10355000D02*
X22155000Y-10395000D01*
X22155000Y-10955000D02*
X22195000Y-10995000D01*
X22195000Y-10955000D02*
X22155000Y-10995000D01*
X22155000Y-12155000D02*
X22195000Y-12195000D01*
X22195000Y-12155000D02*
X22155000Y-12195000D01*
X22155000Y-12755000D02*
X22195000Y-12795000D01*
X22195000Y-12755000D02*
X22155000Y-12795000D01*
X22305000Y-7505000D02*
X22345000Y-7545000D01*
X22345000Y-7505000D02*
X22305000Y-7545000D01*
X22305000Y-8105000D02*
X22345000Y-8145000D01*
X22345000Y-8105000D02*
X22305000Y-8145000D01*
X22305000Y-8705000D02*
X22345000Y-8745000D01*
X22345000Y-8705000D02*
X22305000Y-8745000D01*
X22305000Y-9305000D02*
X22345000Y-9345000D01*
X22345000Y-9305000D02*
X22305000Y-9345000D01*
X22305000Y-10655000D02*
X22345000Y-10695000D01*
X22345000Y-10655000D02*
X22305000Y-10695000D01*
X22305000Y-11255000D02*
X22345000Y-11295000D01*
X22345000Y-11255000D02*
X22305000Y-11295000D01*
X22305000Y-11855000D02*
X22345000Y-11895000D01*
X22345000Y-11855000D02*
X22305000Y-11895000D01*
X22305000Y-12455000D02*
X22345000Y-12495000D01*
X22345000Y-12455000D02*
X22305000Y-12495000D01*
X4160000Y-11500000D02*
G75*
G03X4160000Y-11500000I-160000J0D01*
G01*
X18460000Y-8500000D02*
G75*
G03X18460000Y-8500000I-160000J0D01*
G01*
X7760000Y-6700000D02*
G75*
G03X7760000Y-6700000I-160000J0D01*
G01*
X22110000Y-8500000D02*
G75*
G03X22110000Y-8500000I-160000J0D01*
G01*
X22110000Y-11500000D02*
G75*
G03X22110000Y-11500000I-160000J0D01*
G01*
X4160000Y-8500000D02*
G75*
G03X4160000Y-8500000I-160000J0D01*
G01*
X18460000Y-11500000D02*
G75*
G03X18460000Y-11500000I-160000J0D01*
G01*
X7760000Y-5300000D02*
G75*
G03X7760000Y-5300000I-160000J0D01*
G01*
X4200000Y-4485000D02*
X4200000Y-4915000D01*
X3985000Y-4700000D02*
X4415000Y-4700000D01*
X21800000Y-4485000D02*
X21800000Y-4915000D01*
X21585000Y-4700000D02*
X22015000Y-4700000D01*
X12275000Y-15085000D02*
X12275000Y-15515000D01*
X12060000Y-15300000D02*
X12490000Y-15300000D01*
X9725000Y-15085000D02*
X9725000Y-15515000D01*
X9510000Y-15300000D02*
X9940000Y-15300000D01*
X4200000Y-15085000D02*
X4200000Y-15515000D01*
X3985000Y-15300000D02*
X4415000Y-15300000D01*
X21800000Y-15085000D02*
X21800000Y-15515000D01*
X21585000Y-15300000D02*
X22015000Y-15300000D01*
X12275000Y-4485000D02*
X12275000Y-4915000D01*
X12060000Y-4700000D02*
X12490000Y-4700000D01*
X12275000Y-12285000D02*
X12275000Y-12715000D01*
X12060000Y-12500000D02*
X12490000Y-12500000D01*
X12275000Y-7285000D02*
X12275000Y-7715000D01*
X12060000Y-7500000D02*
X12490000Y-7500000D01*
X9725000Y-4485000D02*
X9725000Y-4915000D01*
X9510000Y-4700000D02*
X9940000Y-4700000D01*
D12*
X3783928Y-16468214D02*
X3783928Y-16168214D01*
X3855357Y-16168214D01*
X3898214Y-16182500D01*
X3926786Y-16211071D01*
X3941071Y-16239643D01*
X3955357Y-16296786D01*
X3955357Y-16339643D01*
X3941071Y-16396786D01*
X3926786Y-16425357D01*
X3898214Y-16453929D01*
X3855357Y-16468214D01*
X3783928Y-16468214D01*
X4083928Y-16468214D02*
X4083928Y-16268214D01*
X4083928Y-16325357D02*
X4098214Y-16296786D01*
X4112500Y-16282500D01*
X4141071Y-16268214D01*
X4169643Y-16268214D01*
X4269643Y-16468214D02*
X4269643Y-16268214D01*
X4269643Y-16168214D02*
X4255357Y-16182500D01*
X4269643Y-16196786D01*
X4283928Y-16182500D01*
X4269643Y-16168214D01*
X4269643Y-16196786D01*
X4455357Y-16468214D02*
X4426786Y-16453929D01*
X4412500Y-16425357D01*
X4412500Y-16168214D01*
X4612500Y-16468214D02*
X4583928Y-16453929D01*
X4569643Y-16425357D01*
X4569643Y-16168214D01*
X4955357Y-16468214D02*
X4955357Y-16168214D01*
X5055357Y-16382500D01*
X5155357Y-16168214D01*
X5155357Y-16468214D01*
X5426786Y-16468214D02*
X5426786Y-16311071D01*
X5412500Y-16282500D01*
X5383928Y-16268214D01*
X5326786Y-16268214D01*
X5298214Y-16282500D01*
X5426786Y-16453929D02*
X5398214Y-16468214D01*
X5326786Y-16468214D01*
X5298214Y-16453929D01*
X5283928Y-16425357D01*
X5283928Y-16396786D01*
X5298214Y-16368214D01*
X5326786Y-16353929D01*
X5398214Y-16353929D01*
X5426786Y-16339643D01*
X5569643Y-16268214D02*
X5569643Y-16568214D01*
X5569643Y-16282500D02*
X5598214Y-16268214D01*
X5655357Y-16268214D01*
X5683928Y-16282500D01*
X5698214Y-16296786D01*
X5712500Y-16325357D01*
X5712500Y-16411071D01*
X5698214Y-16439643D01*
X5683928Y-16453929D01*
X5655357Y-16468214D01*
X5598214Y-16468214D01*
X5569643Y-16453929D01*
X5841071Y-16439643D02*
X5855357Y-16453929D01*
X5841071Y-16468214D01*
X5826786Y-16453929D01*
X5841071Y-16439643D01*
X5841071Y-16468214D01*
X5841071Y-16282500D02*
X5855357Y-16296786D01*
X5841071Y-16311071D01*
X5826786Y-16296786D01*
X5841071Y-16282500D01*
X5841071Y-16311071D01*
X3457500Y-16942500D02*
X3497500Y-16982500D01*
X3497500Y-16942500D02*
X3457500Y-16982500D01*
X3841071Y-16798214D02*
X3869643Y-16798214D01*
X3898214Y-16812500D01*
X3912500Y-16826786D01*
X3926786Y-16855357D01*
X3941071Y-16912500D01*
X3941071Y-16983929D01*
X3926786Y-17041072D01*
X3912500Y-17069643D01*
X3898214Y-17083929D01*
X3869643Y-17098214D01*
X3841071Y-17098214D01*
X3812500Y-17083929D01*
X3798214Y-17069643D01*
X3783928Y-17041072D01*
X3769643Y-16983929D01*
X3769643Y-16912500D01*
X3783928Y-16855357D01*
X3798214Y-16826786D01*
X3812500Y-16812500D01*
X3841071Y-16798214D01*
X4069643Y-17069643D02*
X4083928Y-17083929D01*
X4069643Y-17098214D01*
X4055357Y-17083929D01*
X4069643Y-17069643D01*
X4069643Y-17098214D01*
X4341071Y-16898214D02*
X4341071Y-17098214D01*
X4269643Y-16783929D02*
X4198214Y-16998214D01*
X4383928Y-16998214D01*
X4555357Y-16798214D02*
X4583928Y-16798214D01*
X4612500Y-16812500D01*
X4626786Y-16826786D01*
X4641071Y-16855357D01*
X4655357Y-16912500D01*
X4655357Y-16983929D01*
X4641071Y-17041072D01*
X4626786Y-17069643D01*
X4612500Y-17083929D01*
X4583928Y-17098214D01*
X4555357Y-17098214D01*
X4526786Y-17083929D01*
X4512500Y-17069643D01*
X4498214Y-17041072D01*
X4483928Y-16983929D01*
X4483928Y-16912500D01*
X4498214Y-16855357D01*
X4512500Y-16826786D01*
X4526786Y-16812500D01*
X4555357Y-16798214D01*
X4783928Y-17098214D02*
X4783928Y-16898214D01*
X4783928Y-16926786D02*
X4798214Y-16912500D01*
X4826786Y-16898214D01*
X4869643Y-16898214D01*
X4898214Y-16912500D01*
X4912500Y-16941072D01*
X4912500Y-17098214D01*
X4912500Y-16941072D02*
X4926786Y-16912500D01*
X4955357Y-16898214D01*
X4998214Y-16898214D01*
X5026786Y-16912500D01*
X5041071Y-16941072D01*
X5041071Y-17098214D01*
X5183928Y-17098214D02*
X5183928Y-16898214D01*
X5183928Y-16926786D02*
X5198214Y-16912500D01*
X5226786Y-16898214D01*
X5269643Y-16898214D01*
X5298214Y-16912500D01*
X5312500Y-16941072D01*
X5312500Y-17098214D01*
X5312500Y-16941072D02*
X5326786Y-16912500D01*
X5355357Y-16898214D01*
X5398214Y-16898214D01*
X5426786Y-16912500D01*
X5441071Y-16941072D01*
X5441071Y-17098214D01*
X6026786Y-16783929D02*
X5769643Y-17169643D01*
X6412500Y-16798214D02*
X6441071Y-16798214D01*
X6469643Y-16812500D01*
X6483928Y-16826786D01*
X6498214Y-16855357D01*
X6512500Y-16912500D01*
X6512500Y-16983929D01*
X6498214Y-17041072D01*
X6483928Y-17069643D01*
X6469643Y-17083929D01*
X6441071Y-17098214D01*
X6412500Y-17098214D01*
X6383928Y-17083929D01*
X6369643Y-17069643D01*
X6355357Y-17041072D01*
X6341071Y-16983929D01*
X6341071Y-16912500D01*
X6355357Y-16855357D01*
X6369643Y-16826786D01*
X6383928Y-16812500D01*
X6412500Y-16798214D01*
X6641071Y-17069643D02*
X6655357Y-17083929D01*
X6641071Y-17098214D01*
X6626786Y-17083929D01*
X6641071Y-17069643D01*
X6641071Y-17098214D01*
X6841071Y-16798214D02*
X6869643Y-16798214D01*
X6898214Y-16812500D01*
X6912500Y-16826786D01*
X6926786Y-16855357D01*
X6941071Y-16912500D01*
X6941071Y-16983929D01*
X6926786Y-17041072D01*
X6912500Y-17069643D01*
X6898214Y-17083929D01*
X6869643Y-17098214D01*
X6841071Y-17098214D01*
X6812500Y-17083929D01*
X6798214Y-17069643D01*
X6783928Y-17041072D01*
X6769643Y-16983929D01*
X6769643Y-16912500D01*
X6783928Y-16855357D01*
X6798214Y-16826786D01*
X6812500Y-16812500D01*
X6841071Y-16798214D01*
X7226786Y-17098214D02*
X7055357Y-17098214D01*
X7141071Y-17098214D02*
X7141071Y-16798214D01*
X7112500Y-16841072D01*
X7083928Y-16869643D01*
X7055357Y-16883929D01*
X7483928Y-16798214D02*
X7426786Y-16798214D01*
X7398214Y-16812500D01*
X7383928Y-16826786D01*
X7355357Y-16869643D01*
X7341071Y-16926786D01*
X7341071Y-17041072D01*
X7355357Y-17069643D01*
X7369643Y-17083929D01*
X7398214Y-17098214D01*
X7455357Y-17098214D01*
X7483928Y-17083929D01*
X7498214Y-17069643D01*
X7512500Y-17041072D01*
X7512500Y-16969643D01*
X7498214Y-16941072D01*
X7483928Y-16926786D01*
X7455357Y-16912500D01*
X7398214Y-16912500D01*
X7369643Y-16926786D01*
X7355357Y-16941072D01*
X7341071Y-16969643D01*
X7626786Y-16798214D02*
X7626786Y-16855357D01*
X7741071Y-16798214D02*
X7741071Y-16855357D01*
X8183928Y-17212500D02*
X8169643Y-17198214D01*
X8141071Y-17155357D01*
X8126786Y-17126786D01*
X8112500Y-17083929D01*
X8098214Y-17012500D01*
X8098214Y-16955357D01*
X8112500Y-16883929D01*
X8126786Y-16841072D01*
X8141071Y-16812500D01*
X8169643Y-16769643D01*
X8183928Y-16755357D01*
X8269643Y-16798214D02*
X8469643Y-16798214D01*
X8341071Y-17098214D01*
X8641071Y-16798214D02*
X8669643Y-16798214D01*
X8698214Y-16812500D01*
X8712500Y-16826786D01*
X8726786Y-16855357D01*
X8741071Y-16912500D01*
X8741071Y-16983929D01*
X8726786Y-17041072D01*
X8712500Y-17069643D01*
X8698214Y-17083929D01*
X8669643Y-17098214D01*
X8641071Y-17098214D01*
X8612500Y-17083929D01*
X8598214Y-17069643D01*
X8583928Y-17041072D01*
X8569643Y-16983929D01*
X8569643Y-16912500D01*
X8583928Y-16855357D01*
X8598214Y-16826786D01*
X8612500Y-16812500D01*
X8641071Y-16798214D01*
X9026786Y-17098214D02*
X8855357Y-17098214D01*
X8941071Y-17098214D02*
X8941071Y-16798214D01*
X8912500Y-16841072D01*
X8883928Y-16869643D01*
X8855357Y-16883929D01*
X9383928Y-17098214D02*
X9383928Y-16798214D01*
X9512500Y-17098214D02*
X9512500Y-16941072D01*
X9498214Y-16912500D01*
X9469643Y-16898214D01*
X9426786Y-16898214D01*
X9398214Y-16912500D01*
X9383928Y-16926786D01*
X9698214Y-17098214D02*
X9669643Y-17083929D01*
X9655357Y-17069643D01*
X9641071Y-17041072D01*
X9641071Y-16955357D01*
X9655357Y-16926786D01*
X9669643Y-16912500D01*
X9698214Y-16898214D01*
X9741071Y-16898214D01*
X9769643Y-16912500D01*
X9783928Y-16926786D01*
X9798214Y-16955357D01*
X9798214Y-17041072D01*
X9783928Y-17069643D01*
X9769643Y-17083929D01*
X9741071Y-17098214D01*
X9698214Y-17098214D01*
X9969643Y-17098214D02*
X9941071Y-17083929D01*
X9926786Y-17055357D01*
X9926786Y-16798214D01*
X10198214Y-17083929D02*
X10169643Y-17098214D01*
X10112500Y-17098214D01*
X10083928Y-17083929D01*
X10069643Y-17055357D01*
X10069643Y-16941072D01*
X10083928Y-16912500D01*
X10112500Y-16898214D01*
X10169643Y-16898214D01*
X10198214Y-16912500D01*
X10212500Y-16941072D01*
X10212500Y-16969643D01*
X10069643Y-16998214D01*
X10326786Y-17083929D02*
X10355357Y-17098214D01*
X10412500Y-17098214D01*
X10441071Y-17083929D01*
X10455357Y-17055357D01*
X10455357Y-17041072D01*
X10441071Y-17012500D01*
X10412500Y-16998214D01*
X10369643Y-16998214D01*
X10341071Y-16983929D01*
X10326786Y-16955357D01*
X10326786Y-16941072D01*
X10341071Y-16912500D01*
X10369643Y-16898214D01*
X10412500Y-16898214D01*
X10441071Y-16912500D01*
X10555357Y-17212500D02*
X10569643Y-17198214D01*
X10598214Y-17155357D01*
X10612500Y-17126786D01*
X10626786Y-17083929D01*
X10641071Y-17012500D01*
X10641071Y-16955357D01*
X10626786Y-16883929D01*
X10612500Y-16841072D01*
X10598214Y-16812500D01*
X10569643Y-16769643D01*
X10555357Y-16755357D01*
X3497500Y-17358500D02*
G75*
G03X3497500Y-17358500I-160000J0D01*
G01*
X3755357Y-17194214D02*
X3941071Y-17194214D01*
X3841071Y-17308500D01*
X3883928Y-17308500D01*
X3912500Y-17322786D01*
X3926786Y-17337072D01*
X3941071Y-17365643D01*
X3941071Y-17437072D01*
X3926786Y-17465643D01*
X3912500Y-17479929D01*
X3883928Y-17494214D01*
X3798214Y-17494214D01*
X3769643Y-17479929D01*
X3755357Y-17465643D01*
X4069643Y-17465643D02*
X4083928Y-17479929D01*
X4069643Y-17494214D01*
X4055357Y-17479929D01*
X4069643Y-17465643D01*
X4069643Y-17494214D01*
X4198214Y-17222786D02*
X4212500Y-17208500D01*
X4241071Y-17194214D01*
X4312500Y-17194214D01*
X4341071Y-17208500D01*
X4355357Y-17222786D01*
X4369643Y-17251357D01*
X4369643Y-17279929D01*
X4355357Y-17322786D01*
X4183928Y-17494214D01*
X4369643Y-17494214D01*
X4555357Y-17194214D02*
X4583928Y-17194214D01*
X4612500Y-17208500D01*
X4626786Y-17222786D01*
X4641071Y-17251357D01*
X4655357Y-17308500D01*
X4655357Y-17379929D01*
X4641071Y-17437072D01*
X4626786Y-17465643D01*
X4612500Y-17479929D01*
X4583928Y-17494214D01*
X4555357Y-17494214D01*
X4526786Y-17479929D01*
X4512500Y-17465643D01*
X4498214Y-17437072D01*
X4483928Y-17379929D01*
X4483928Y-17308500D01*
X4498214Y-17251357D01*
X4512500Y-17222786D01*
X4526786Y-17208500D01*
X4555357Y-17194214D01*
X4783928Y-17494214D02*
X4783928Y-17294214D01*
X4783928Y-17322786D02*
X4798214Y-17308500D01*
X4826786Y-17294214D01*
X4869643Y-17294214D01*
X4898214Y-17308500D01*
X4912500Y-17337072D01*
X4912500Y-17494214D01*
X4912500Y-17337072D02*
X4926786Y-17308500D01*
X4955357Y-17294214D01*
X4998214Y-17294214D01*
X5026786Y-17308500D01*
X5041071Y-17337072D01*
X5041071Y-17494214D01*
X5183928Y-17494214D02*
X5183928Y-17294214D01*
X5183928Y-17322786D02*
X5198214Y-17308500D01*
X5226786Y-17294214D01*
X5269643Y-17294214D01*
X5298214Y-17308500D01*
X5312500Y-17337072D01*
X5312500Y-17494214D01*
X5312500Y-17337072D02*
X5326786Y-17308500D01*
X5355357Y-17294214D01*
X5398214Y-17294214D01*
X5426786Y-17308500D01*
X5441071Y-17337072D01*
X5441071Y-17494214D01*
X6026786Y-17179929D02*
X5769643Y-17565643D01*
X6412500Y-17194214D02*
X6441071Y-17194214D01*
X6469643Y-17208500D01*
X6483928Y-17222786D01*
X6498214Y-17251357D01*
X6512500Y-17308500D01*
X6512500Y-17379929D01*
X6498214Y-17437072D01*
X6483928Y-17465643D01*
X6469643Y-17479929D01*
X6441071Y-17494214D01*
X6412500Y-17494214D01*
X6383928Y-17479929D01*
X6369643Y-17465643D01*
X6355357Y-17437072D01*
X6341071Y-17379929D01*
X6341071Y-17308500D01*
X6355357Y-17251357D01*
X6369643Y-17222786D01*
X6383928Y-17208500D01*
X6412500Y-17194214D01*
X6641071Y-17465643D02*
X6655357Y-17479929D01*
X6641071Y-17494214D01*
X6626786Y-17479929D01*
X6641071Y-17465643D01*
X6641071Y-17494214D01*
X6941071Y-17494214D02*
X6769643Y-17494214D01*
X6855357Y-17494214D02*
X6855357Y-17194214D01*
X6826786Y-17237072D01*
X6798214Y-17265643D01*
X6769643Y-17279929D01*
X7055357Y-17222786D02*
X7069643Y-17208500D01*
X7098214Y-17194214D01*
X7169643Y-17194214D01*
X7198214Y-17208500D01*
X7212500Y-17222786D01*
X7226786Y-17251357D01*
X7226786Y-17279929D01*
X7212500Y-17322786D01*
X7041071Y-17494214D01*
X7226786Y-17494214D01*
X7483928Y-17194214D02*
X7426786Y-17194214D01*
X7398214Y-17208500D01*
X7383928Y-17222786D01*
X7355357Y-17265643D01*
X7341071Y-17322786D01*
X7341071Y-17437072D01*
X7355357Y-17465643D01*
X7369643Y-17479929D01*
X7398214Y-17494214D01*
X7455357Y-17494214D01*
X7483928Y-17479929D01*
X7498214Y-17465643D01*
X7512500Y-17437072D01*
X7512500Y-17365643D01*
X7498214Y-17337072D01*
X7483928Y-17322786D01*
X7455357Y-17308500D01*
X7398214Y-17308500D01*
X7369643Y-17322786D01*
X7355357Y-17337072D01*
X7341071Y-17365643D01*
X7626786Y-17194214D02*
X7626786Y-17251357D01*
X7741071Y-17194214D02*
X7741071Y-17251357D01*
X8183928Y-17608500D02*
X8169643Y-17594214D01*
X8141071Y-17551357D01*
X8126786Y-17522786D01*
X8112500Y-17479929D01*
X8098214Y-17408500D01*
X8098214Y-17351357D01*
X8112500Y-17279929D01*
X8126786Y-17237072D01*
X8141071Y-17208500D01*
X8169643Y-17165643D01*
X8183928Y-17151357D01*
X8341071Y-17322786D02*
X8312500Y-17308500D01*
X8298214Y-17294214D01*
X8283928Y-17265643D01*
X8283928Y-17251357D01*
X8298214Y-17222786D01*
X8312500Y-17208500D01*
X8341071Y-17194214D01*
X8398214Y-17194214D01*
X8426786Y-17208500D01*
X8441071Y-17222786D01*
X8455357Y-17251357D01*
X8455357Y-17265643D01*
X8441071Y-17294214D01*
X8426786Y-17308500D01*
X8398214Y-17322786D01*
X8341071Y-17322786D01*
X8312500Y-17337072D01*
X8298214Y-17351357D01*
X8283928Y-17379929D01*
X8283928Y-17437072D01*
X8298214Y-17465643D01*
X8312500Y-17479929D01*
X8341071Y-17494214D01*
X8398214Y-17494214D01*
X8426786Y-17479929D01*
X8441071Y-17465643D01*
X8455357Y-17437072D01*
X8455357Y-17379929D01*
X8441071Y-17351357D01*
X8426786Y-17337072D01*
X8398214Y-17322786D01*
X8812500Y-17494214D02*
X8812500Y-17194214D01*
X8941071Y-17494214D02*
X8941071Y-17337072D01*
X8926786Y-17308500D01*
X8898214Y-17294214D01*
X8855357Y-17294214D01*
X8826786Y-17308500D01*
X8812500Y-17322786D01*
X9126786Y-17494214D02*
X9098214Y-17479929D01*
X9083928Y-17465643D01*
X9069643Y-17437072D01*
X9069643Y-17351357D01*
X9083928Y-17322786D01*
X9098214Y-17308500D01*
X9126786Y-17294214D01*
X9169643Y-17294214D01*
X9198214Y-17308500D01*
X9212500Y-17322786D01*
X9226786Y-17351357D01*
X9226786Y-17437072D01*
X9212500Y-17465643D01*
X9198214Y-17479929D01*
X9169643Y-17494214D01*
X9126786Y-17494214D01*
X9398214Y-17494214D02*
X9369643Y-17479929D01*
X9355357Y-17451357D01*
X9355357Y-17194214D01*
X9626786Y-17479929D02*
X9598214Y-17494214D01*
X9541071Y-17494214D01*
X9512500Y-17479929D01*
X9498214Y-17451357D01*
X9498214Y-17337072D01*
X9512500Y-17308500D01*
X9541071Y-17294214D01*
X9598214Y-17294214D01*
X9626786Y-17308500D01*
X9641071Y-17337072D01*
X9641071Y-17365643D01*
X9498214Y-17394214D01*
X9755357Y-17479929D02*
X9783928Y-17494214D01*
X9841071Y-17494214D01*
X9869643Y-17479929D01*
X9883928Y-17451357D01*
X9883928Y-17437072D01*
X9869643Y-17408500D01*
X9841071Y-17394214D01*
X9798214Y-17394214D01*
X9769643Y-17379929D01*
X9755357Y-17351357D01*
X9755357Y-17337072D01*
X9769643Y-17308500D01*
X9798214Y-17294214D01*
X9841071Y-17294214D01*
X9869643Y-17308500D01*
X9983928Y-17608500D02*
X9998214Y-17594214D01*
X10026786Y-17551357D01*
X10041071Y-17522786D01*
X10055357Y-17479929D01*
X10069643Y-17408500D01*
X10069643Y-17351357D01*
X10055357Y-17279929D01*
X10041071Y-17237072D01*
X10026786Y-17208500D01*
X9998214Y-17165643D01*
X9983928Y-17151357D01*
X3282500Y-17593500D02*
X3282500Y-18023500D01*
X3067500Y-17808500D02*
X3497500Y-17808500D01*
X3912500Y-17744214D02*
X3912500Y-17944214D01*
X3841071Y-17629929D02*
X3769643Y-17844214D01*
X3955357Y-17844214D01*
X4069643Y-17915643D02*
X4083928Y-17929929D01*
X4069643Y-17944214D01*
X4055357Y-17929929D01*
X4069643Y-17915643D01*
X4069643Y-17944214D01*
X4183928Y-17644214D02*
X4369643Y-17644214D01*
X4269643Y-17758500D01*
X4312500Y-17758500D01*
X4341071Y-17772786D01*
X4355357Y-17787072D01*
X4369643Y-17815643D01*
X4369643Y-17887072D01*
X4355357Y-17915643D01*
X4341071Y-17929929D01*
X4312500Y-17944214D01*
X4226786Y-17944214D01*
X4198214Y-17929929D01*
X4183928Y-17915643D01*
X4555357Y-17644214D02*
X4583928Y-17644214D01*
X4612500Y-17658500D01*
X4626786Y-17672786D01*
X4641071Y-17701357D01*
X4655357Y-17758500D01*
X4655357Y-17829929D01*
X4641071Y-17887072D01*
X4626786Y-17915643D01*
X4612500Y-17929929D01*
X4583928Y-17944214D01*
X4555357Y-17944214D01*
X4526786Y-17929929D01*
X4512500Y-17915643D01*
X4498214Y-17887072D01*
X4483928Y-17829929D01*
X4483928Y-17758500D01*
X4498214Y-17701357D01*
X4512500Y-17672786D01*
X4526786Y-17658500D01*
X4555357Y-17644214D01*
X4783928Y-17944214D02*
X4783928Y-17744214D01*
X4783928Y-17772786D02*
X4798214Y-17758500D01*
X4826786Y-17744214D01*
X4869643Y-17744214D01*
X4898214Y-17758500D01*
X4912500Y-17787072D01*
X4912500Y-17944214D01*
X4912500Y-17787072D02*
X4926786Y-17758500D01*
X4955357Y-17744214D01*
X4998214Y-17744214D01*
X5026786Y-17758500D01*
X5041071Y-17787072D01*
X5041071Y-17944214D01*
X5183928Y-17944214D02*
X5183928Y-17744214D01*
X5183928Y-17772786D02*
X5198214Y-17758500D01*
X5226786Y-17744214D01*
X5269643Y-17744214D01*
X5298214Y-17758500D01*
X5312500Y-17787072D01*
X5312500Y-17944214D01*
X5312500Y-17787072D02*
X5326786Y-17758500D01*
X5355357Y-17744214D01*
X5398214Y-17744214D01*
X5426786Y-17758500D01*
X5441071Y-17787072D01*
X5441071Y-17944214D01*
X6026786Y-17629929D02*
X5769643Y-18015643D01*
X6412500Y-17644214D02*
X6441071Y-17644214D01*
X6469643Y-17658500D01*
X6483928Y-17672786D01*
X6498214Y-17701357D01*
X6512500Y-17758500D01*
X6512500Y-17829929D01*
X6498214Y-17887072D01*
X6483928Y-17915643D01*
X6469643Y-17929929D01*
X6441071Y-17944214D01*
X6412500Y-17944214D01*
X6383928Y-17929929D01*
X6369643Y-17915643D01*
X6355357Y-17887072D01*
X6341071Y-17829929D01*
X6341071Y-17758500D01*
X6355357Y-17701357D01*
X6369643Y-17672786D01*
X6383928Y-17658500D01*
X6412500Y-17644214D01*
X6641071Y-17915643D02*
X6655357Y-17929929D01*
X6641071Y-17944214D01*
X6626786Y-17929929D01*
X6641071Y-17915643D01*
X6641071Y-17944214D01*
X6941071Y-17944214D02*
X6769643Y-17944214D01*
X6855357Y-17944214D02*
X6855357Y-17644214D01*
X6826786Y-17687072D01*
X6798214Y-17715643D01*
X6769643Y-17729929D01*
X7198214Y-17644214D02*
X7141071Y-17644214D01*
X7112500Y-17658500D01*
X7098214Y-17672786D01*
X7069643Y-17715643D01*
X7055357Y-17772786D01*
X7055357Y-17887072D01*
X7069643Y-17915643D01*
X7083928Y-17929929D01*
X7112500Y-17944214D01*
X7169643Y-17944214D01*
X7198214Y-17929929D01*
X7212500Y-17915643D01*
X7226786Y-17887072D01*
X7226786Y-17815643D01*
X7212500Y-17787072D01*
X7198214Y-17772786D01*
X7169643Y-17758500D01*
X7112500Y-17758500D01*
X7083928Y-17772786D01*
X7069643Y-17787072D01*
X7055357Y-17815643D01*
X7369643Y-17944214D02*
X7426786Y-17944214D01*
X7455357Y-17929929D01*
X7469643Y-17915643D01*
X7498214Y-17872786D01*
X7512500Y-17815643D01*
X7512500Y-17701357D01*
X7498214Y-17672786D01*
X7483928Y-17658500D01*
X7455357Y-17644214D01*
X7398214Y-17644214D01*
X7369643Y-17658500D01*
X7355357Y-17672786D01*
X7341071Y-17701357D01*
X7341071Y-17772786D01*
X7355357Y-17801357D01*
X7369643Y-17815643D01*
X7398214Y-17829929D01*
X7455357Y-17829929D01*
X7483928Y-17815643D01*
X7498214Y-17801357D01*
X7512500Y-17772786D01*
X7626786Y-17644214D02*
X7626786Y-17701357D01*
X7741071Y-17644214D02*
X7741071Y-17701357D01*
X8183928Y-18058500D02*
X8169643Y-18044214D01*
X8141071Y-18001357D01*
X8126786Y-17972786D01*
X8112500Y-17929929D01*
X8098214Y-17858500D01*
X8098214Y-17801357D01*
X8112500Y-17729929D01*
X8126786Y-17687072D01*
X8141071Y-17658500D01*
X8169643Y-17615643D01*
X8183928Y-17601357D01*
X8455357Y-17944214D02*
X8283928Y-17944214D01*
X8369643Y-17944214D02*
X8369643Y-17644214D01*
X8341071Y-17687072D01*
X8312500Y-17715643D01*
X8283928Y-17729929D01*
X8641071Y-17644214D02*
X8669643Y-17644214D01*
X8698214Y-17658500D01*
X8712500Y-17672786D01*
X8726786Y-17701357D01*
X8741071Y-17758500D01*
X8741071Y-17829929D01*
X8726786Y-17887072D01*
X8712500Y-17915643D01*
X8698214Y-17929929D01*
X8669643Y-17944214D01*
X8641071Y-17944214D01*
X8612500Y-17929929D01*
X8598214Y-17915643D01*
X8583928Y-17887072D01*
X8569643Y-17829929D01*
X8569643Y-17758500D01*
X8583928Y-17701357D01*
X8598214Y-17672786D01*
X8612500Y-17658500D01*
X8641071Y-17644214D01*
X9098214Y-17944214D02*
X9098214Y-17644214D01*
X9226786Y-17944214D02*
X9226786Y-17787072D01*
X9212500Y-17758500D01*
X9183928Y-17744214D01*
X9141071Y-17744214D01*
X9112500Y-17758500D01*
X9098214Y-17772786D01*
X9412500Y-17944214D02*
X9383928Y-17929929D01*
X9369643Y-17915643D01*
X9355357Y-17887072D01*
X9355357Y-17801357D01*
X9369643Y-17772786D01*
X9383928Y-17758500D01*
X9412500Y-17744214D01*
X9455357Y-17744214D01*
X9483928Y-17758500D01*
X9498214Y-17772786D01*
X9512500Y-17801357D01*
X9512500Y-17887072D01*
X9498214Y-17915643D01*
X9483928Y-17929929D01*
X9455357Y-17944214D01*
X9412500Y-17944214D01*
X9683928Y-17944214D02*
X9655357Y-17929929D01*
X9641071Y-17901357D01*
X9641071Y-17644214D01*
X9912500Y-17929929D02*
X9883928Y-17944214D01*
X9826786Y-17944214D01*
X9798214Y-17929929D01*
X9783928Y-17901357D01*
X9783928Y-17787072D01*
X9798214Y-17758500D01*
X9826786Y-17744214D01*
X9883928Y-17744214D01*
X9912500Y-17758500D01*
X9926786Y-17787072D01*
X9926786Y-17815643D01*
X9783928Y-17844214D01*
X10041071Y-17929929D02*
X10069643Y-17944214D01*
X10126786Y-17944214D01*
X10155357Y-17929929D01*
X10169643Y-17901357D01*
X10169643Y-17887072D01*
X10155357Y-17858500D01*
X10126786Y-17844214D01*
X10083928Y-17844214D01*
X10055357Y-17829929D01*
X10041071Y-17801357D01*
X10041071Y-17787072D01*
X10055357Y-17758500D01*
X10083928Y-17744214D01*
X10126786Y-17744214D01*
X10155357Y-17758500D01*
X10269643Y-18058500D02*
X10283928Y-18044214D01*
X10312500Y-18001357D01*
X10326786Y-17972786D01*
X10341071Y-17929929D01*
X10355357Y-17858500D01*
X10355357Y-17801357D01*
X10341071Y-17729929D01*
X10326786Y-17687072D01*
X10312500Y-17658500D01*
X10283928Y-17615643D01*
X10269643Y-17601357D01*
M02*
